M48
;GenerationSoftware,Autodesk,EAGLE,9.1.1*%
;CreationDate,2018-07-31T10:00:34Z*%
FMAT,2
ICI,OFF
METRIC,TZ,000.000
T10C0.350
T9C0.610
T8C0.800
T7C1.000
T6C1.016
T5C1.200
T4C1.300
T3C1.500
T2C3.000
T1C3.100
%
G90
M71
T1
X3200Y2830
X3200Y46080
X65010Y46080
T2
X76940Y2880
T3
X73310Y16720
X6710Y34290
X6710Y41290
X73260Y30240
X73280Y26960
X73260Y37240
X73280Y19960
X73310Y9720
T4
X12840Y4250
X17840Y4250
T5
X43340Y4080
X54140Y4080
X57640Y4080
X61140Y4080
X46840Y4080
X50340Y4080
X64880Y4080
X68380Y4080
X71880Y4080
T6
X73330Y46170
X73330Y43630
X73330Y41090
T7
X76110Y35990
X76160Y15470
X76160Y10970
X76110Y31490
X3860Y40040
X3860Y35540
X76130Y25710
X76130Y21210
T8
X66165Y33108
X58545Y33108
X63625Y33108
X61085Y33108
X61085Y35648
X63625Y35648
X66165Y35648
X58545Y35648
T9
X39960Y35310
X39960Y40390
T10
X46750Y19500
X47500Y18000
X49250Y17750
X51250Y18000
X49500Y20750
X50250Y19500
X11770Y8110
X68750Y31750
X64750Y19250
X47080Y31330
X55140Y15880
X48310Y31350
X58580Y15870
X49480Y31380
X62070Y15860
X39000Y28750
X46170Y30740
X36640Y30260
X45000Y30750
X42460Y37060
X38750Y38000
X41210Y38750
X41220Y37120
X56100Y9390
X59550Y9410
X63000Y9420
X38770Y21710
X38710Y23560
X36810Y23580
X6990Y16720
X36900Y14610
X8750Y28500
X7000Y28500
X3750Y28500
X3750Y26250
X5250Y26250
X4220Y16710
X41410Y33490
X53980Y41470
X7000Y30000
X8750Y30000
X43500Y42750
X66750Y38500
X50250Y37500
X16250Y5500
X17820Y6860
X19570Y5610
X20820Y4360
X20820Y6360
X40820Y4110
X41320Y5860
X43320Y6610
X46820Y6610
X50070Y6610
X50070Y1760
X46820Y1860
X43320Y1860
X19570Y2610
X17820Y1860
X16320Y2610
X19570Y7610
X11420Y22260
X11420Y24510
X13920Y24510
X16260Y25960
X13670Y26510
X16670Y13010
X13480Y6650
X11770Y6610
X10110Y6580
X9920Y5260
X8170Y2500
X11870Y2320
X10060Y2530
X8890Y4080
X18420Y13010
X31800Y19270
X34300Y18520
X35800Y16520
X54190Y14760
X57620Y14730
X61100Y14750
X13790Y2260
X1590Y6360
X7040Y4090
X41900Y36220
X52860Y9380
X46300Y38040
X12760Y43260
X65270Y10110
X67020Y10110
X69020Y10110
X68020Y8860
X66270Y8860
X65270Y7610
X67020Y7610
X69020Y7610
X70020Y6360
X66520Y1860
X70270Y1860
X66520Y6360
X72770Y6360
X73020Y1860
X48500Y19250
X47500Y20750
M30