G04 EAGLE Gerber X2 export*
%TF.Part,Single*%
%TF.FileFunction,Copper,L1,Top,Mixed*%
%TF.FilePolarity,Positive*%
%TF.GenerationSoftware,Autodesk,EAGLE,9.1.1*%
%TF.CreationDate,2018-07-30T19:22:14Z*%
G75*
%MOMM*%
%FSLAX34Y34*%
%LPD*%
%AMOC8*
5,1,8,0,0,1.08239X$1,22.5*%
G01*
%ADD10R,1.000000X0.200000*%
%ADD11R,0.200000X1.000000*%
%ADD12R,2.413000X2.413000*%
%ADD13C,2.413000*%
%ADD14R,2.250000X2.250000*%
%ADD15C,1.508000*%
%ADD16R,2.032000X2.032000*%
%ADD17C,2.032000*%
%ADD18R,1.400000X1.200000*%
%ADD19R,1.200000X1.400000*%
%ADD20R,1.879600X1.879600*%
%ADD21C,1.879600*%
%ADD22R,1.308000X1.308000*%
%ADD23C,1.308000*%
%ADD24R,0.550000X1.000000*%
%ADD25R,1.600000X1.803000*%
%ADD26R,1.803000X1.600000*%
%ADD27R,1.800000X1.600000*%
%ADD28R,1.600000X1.800000*%
%ADD29C,1.117600*%
%ADD30R,1.000000X0.450000*%
%ADD31R,0.450000X1.000000*%
%ADD32R,1.500000X3.600000*%
%ADD33R,6.000000X2.000000*%
%ADD34C,0.508000*%
%ADD35C,0.152400*%
%ADD36C,0.457200*%
%ADD37C,0.609600*%
%ADD38C,0.756400*%
%ADD39C,0.203200*%
%ADD40C,0.304800*%
%ADD41C,2.286000*%
%ADD42C,0.558800*%
%ADD43C,0.254000*%
%ADD44C,0.762000*%
%ADD45C,4.016000*%
%ADD46C,4.116000*%

G36*
X731263Y10173D02*
X731263Y10173D01*
X731350Y10176D01*
X731403Y10193D01*
X731457Y10201D01*
X731537Y10236D01*
X731621Y10263D01*
X731660Y10291D01*
X731717Y10317D01*
X731830Y10413D01*
X731894Y10458D01*
X740718Y19282D01*
X740770Y19352D01*
X740830Y19416D01*
X740856Y19465D01*
X740889Y19509D01*
X740920Y19591D01*
X740960Y19669D01*
X740968Y19717D01*
X740990Y19775D01*
X741002Y19923D01*
X741015Y20000D01*
X741015Y60000D01*
X741003Y60087D01*
X741000Y60174D01*
X740983Y60227D01*
X740975Y60282D01*
X740940Y60361D01*
X740913Y60445D01*
X740885Y60484D01*
X740859Y60541D01*
X740763Y60654D01*
X740718Y60718D01*
X728218Y73218D01*
X728148Y73270D01*
X728084Y73330D01*
X728035Y73356D01*
X727991Y73389D01*
X727909Y73420D01*
X727831Y73460D01*
X727784Y73468D01*
X727725Y73490D01*
X727577Y73502D01*
X727500Y73515D01*
X710421Y73515D01*
X701015Y82921D01*
X701015Y102500D01*
X701003Y102587D01*
X701000Y102674D01*
X700983Y102727D01*
X700975Y102782D01*
X700940Y102861D01*
X700913Y102945D01*
X700885Y102984D01*
X700859Y103041D01*
X700763Y103154D01*
X700749Y103174D01*
X700743Y103184D01*
X700739Y103188D01*
X700718Y103218D01*
X693218Y110718D01*
X693148Y110770D01*
X693084Y110830D01*
X693035Y110856D01*
X692991Y110889D01*
X692909Y110920D01*
X692831Y110960D01*
X692784Y110968D01*
X692725Y110990D01*
X692577Y111002D01*
X692500Y111015D01*
X652500Y111015D01*
X652413Y111003D01*
X652326Y111000D01*
X652273Y110983D01*
X652219Y110975D01*
X652139Y110940D01*
X652055Y110913D01*
X652016Y110885D01*
X651959Y110859D01*
X651846Y110763D01*
X651782Y110718D01*
X644282Y103218D01*
X644230Y103148D01*
X644170Y103084D01*
X644144Y103035D01*
X644111Y102991D01*
X644080Y102909D01*
X644040Y102831D01*
X644032Y102784D01*
X644010Y102725D01*
X643998Y102577D01*
X643985Y102500D01*
X643985Y72921D01*
X631782Y60718D01*
X631730Y60648D01*
X631670Y60584D01*
X631644Y60535D01*
X631611Y60491D01*
X631580Y60409D01*
X631540Y60331D01*
X631532Y60284D01*
X631510Y60225D01*
X631498Y60077D01*
X631485Y60000D01*
X631485Y20000D01*
X631497Y19913D01*
X631500Y19826D01*
X631517Y19773D01*
X631525Y19719D01*
X631560Y19639D01*
X631587Y19555D01*
X631615Y19516D01*
X631641Y19459D01*
X631737Y19346D01*
X631782Y19282D01*
X640606Y10458D01*
X640676Y10406D01*
X640740Y10346D01*
X640789Y10320D01*
X640833Y10287D01*
X640915Y10256D01*
X640993Y10216D01*
X641041Y10208D01*
X641099Y10186D01*
X641247Y10174D01*
X641324Y10161D01*
X731176Y10161D01*
X731263Y10173D01*
G37*
G36*
X140087Y16497D02*
X140087Y16497D01*
X140174Y16500D01*
X140227Y16517D01*
X140282Y16525D01*
X140361Y16560D01*
X140445Y16587D01*
X140484Y16615D01*
X140541Y16641D01*
X140654Y16737D01*
X140718Y16782D01*
X148218Y24282D01*
X148270Y24352D01*
X148330Y24416D01*
X148356Y24465D01*
X148389Y24509D01*
X148420Y24591D01*
X148460Y24669D01*
X148468Y24717D01*
X148490Y24775D01*
X148502Y24923D01*
X148515Y25000D01*
X148515Y60000D01*
X148503Y60087D01*
X148500Y60174D01*
X148483Y60227D01*
X148475Y60282D01*
X148440Y60361D01*
X148413Y60445D01*
X148385Y60484D01*
X148359Y60541D01*
X148263Y60654D01*
X148218Y60718D01*
X120718Y88218D01*
X120648Y88270D01*
X120584Y88330D01*
X120535Y88356D01*
X120491Y88389D01*
X120409Y88420D01*
X120331Y88460D01*
X120284Y88468D01*
X120225Y88490D01*
X120077Y88502D01*
X120000Y88515D01*
X105000Y88515D01*
X104913Y88503D01*
X104826Y88500D01*
X104773Y88483D01*
X104719Y88475D01*
X104639Y88440D01*
X104555Y88413D01*
X104516Y88385D01*
X104459Y88359D01*
X104346Y88263D01*
X104282Y88218D01*
X91608Y75544D01*
X91561Y75482D01*
X91507Y75426D01*
X91476Y75369D01*
X91437Y75317D01*
X91410Y75244D01*
X91373Y75175D01*
X91359Y75112D01*
X91336Y75051D01*
X91330Y74974D01*
X91313Y74897D01*
X91319Y74842D01*
X91313Y74768D01*
X91338Y74641D01*
X91345Y74563D01*
X91541Y73834D01*
X91541Y69531D01*
X83016Y69531D01*
X82958Y69523D01*
X82900Y69524D01*
X82818Y69503D01*
X82735Y69491D01*
X82681Y69467D01*
X82625Y69453D01*
X82552Y69410D01*
X82475Y69375D01*
X82431Y69337D01*
X82380Y69307D01*
X82323Y69246D01*
X82258Y69191D01*
X82226Y69143D01*
X82186Y69100D01*
X82147Y69025D01*
X82101Y68955D01*
X82083Y68899D01*
X82056Y68847D01*
X82045Y68779D01*
X82015Y68684D01*
X82012Y68584D01*
X82001Y68516D01*
X82001Y67499D01*
X81999Y67499D01*
X81999Y68516D01*
X81991Y68574D01*
X81992Y68632D01*
X81971Y68714D01*
X81959Y68797D01*
X81935Y68851D01*
X81921Y68907D01*
X81878Y68980D01*
X81843Y69057D01*
X81805Y69101D01*
X81775Y69152D01*
X81714Y69209D01*
X81659Y69274D01*
X81611Y69306D01*
X81568Y69346D01*
X81493Y69385D01*
X81423Y69431D01*
X81367Y69449D01*
X81315Y69476D01*
X81247Y69487D01*
X81152Y69517D01*
X81052Y69520D01*
X80984Y69531D01*
X72459Y69531D01*
X72459Y72500D01*
X72451Y72558D01*
X72453Y72616D01*
X72431Y72698D01*
X72419Y72782D01*
X72396Y72835D01*
X72381Y72891D01*
X72338Y72964D01*
X72303Y73041D01*
X72265Y73086D01*
X72236Y73136D01*
X72174Y73194D01*
X72120Y73258D01*
X72071Y73290D01*
X72028Y73330D01*
X71953Y73369D01*
X71883Y73416D01*
X71827Y73433D01*
X71775Y73460D01*
X71707Y73471D01*
X71612Y73501D01*
X71512Y73504D01*
X71444Y73515D01*
X67556Y73515D01*
X67498Y73507D01*
X67440Y73509D01*
X67358Y73487D01*
X67274Y73475D01*
X67221Y73452D01*
X67165Y73437D01*
X67092Y73394D01*
X67015Y73359D01*
X66970Y73321D01*
X66920Y73292D01*
X66862Y73230D01*
X66798Y73176D01*
X66766Y73127D01*
X66726Y73084D01*
X66687Y73009D01*
X66640Y72939D01*
X66623Y72883D01*
X66596Y72831D01*
X66585Y72763D01*
X66555Y72668D01*
X66552Y72568D01*
X66541Y72500D01*
X66541Y69731D01*
X58016Y69731D01*
X57958Y69723D01*
X57900Y69724D01*
X57818Y69703D01*
X57735Y69691D01*
X57681Y69667D01*
X57625Y69653D01*
X57552Y69610D01*
X57475Y69575D01*
X57431Y69537D01*
X57380Y69507D01*
X57323Y69446D01*
X57258Y69391D01*
X57226Y69343D01*
X57186Y69300D01*
X57147Y69225D01*
X57101Y69155D01*
X57083Y69099D01*
X57056Y69047D01*
X57045Y68979D01*
X57015Y68884D01*
X57012Y68784D01*
X57001Y68716D01*
X57001Y67699D01*
X56999Y67699D01*
X56999Y68716D01*
X56991Y68774D01*
X56992Y68832D01*
X56971Y68914D01*
X56959Y68997D01*
X56935Y69051D01*
X56921Y69107D01*
X56878Y69180D01*
X56843Y69257D01*
X56805Y69301D01*
X56775Y69352D01*
X56714Y69409D01*
X56659Y69474D01*
X56611Y69506D01*
X56568Y69546D01*
X56493Y69585D01*
X56423Y69631D01*
X56367Y69649D01*
X56315Y69676D01*
X56247Y69687D01*
X56152Y69717D01*
X56052Y69720D01*
X55984Y69731D01*
X47459Y69731D01*
X47459Y72500D01*
X47451Y72558D01*
X47453Y72616D01*
X47431Y72698D01*
X47419Y72782D01*
X47396Y72835D01*
X47381Y72891D01*
X47338Y72964D01*
X47303Y73041D01*
X47265Y73086D01*
X47236Y73136D01*
X47174Y73194D01*
X47120Y73258D01*
X47071Y73290D01*
X47028Y73330D01*
X46953Y73369D01*
X46883Y73416D01*
X46827Y73433D01*
X46775Y73460D01*
X46707Y73471D01*
X46612Y73501D01*
X46512Y73504D01*
X46444Y73515D01*
X41956Y73515D01*
X41898Y73507D01*
X41840Y73509D01*
X41758Y73487D01*
X41674Y73475D01*
X41621Y73452D01*
X41565Y73437D01*
X41492Y73394D01*
X41415Y73359D01*
X41370Y73321D01*
X41320Y73292D01*
X41262Y73230D01*
X41198Y73176D01*
X41166Y73127D01*
X41126Y73084D01*
X41087Y73009D01*
X41040Y72939D01*
X41023Y72883D01*
X40996Y72831D01*
X40985Y72763D01*
X40955Y72668D01*
X40952Y72568D01*
X40941Y72500D01*
X40941Y69731D01*
X32416Y69731D01*
X32358Y69723D01*
X32300Y69724D01*
X32218Y69703D01*
X32135Y69691D01*
X32081Y69667D01*
X32025Y69653D01*
X31952Y69610D01*
X31875Y69575D01*
X31831Y69537D01*
X31780Y69507D01*
X31723Y69446D01*
X31658Y69391D01*
X31626Y69343D01*
X31586Y69300D01*
X31547Y69225D01*
X31501Y69155D01*
X31483Y69099D01*
X31456Y69047D01*
X31445Y68979D01*
X31415Y68884D01*
X31412Y68784D01*
X31401Y68716D01*
X31401Y67699D01*
X31399Y67699D01*
X31399Y68716D01*
X31391Y68774D01*
X31392Y68832D01*
X31371Y68914D01*
X31359Y68997D01*
X31335Y69051D01*
X31321Y69107D01*
X31278Y69180D01*
X31243Y69257D01*
X31205Y69301D01*
X31175Y69352D01*
X31114Y69409D01*
X31059Y69474D01*
X31011Y69506D01*
X30968Y69546D01*
X30893Y69585D01*
X30823Y69631D01*
X30767Y69649D01*
X30715Y69676D01*
X30647Y69687D01*
X30552Y69717D01*
X30452Y69720D01*
X30384Y69731D01*
X21859Y69731D01*
X21859Y72500D01*
X21851Y72558D01*
X21853Y72616D01*
X21831Y72698D01*
X21819Y72781D01*
X21796Y72835D01*
X21781Y72891D01*
X21738Y72964D01*
X21703Y73041D01*
X21665Y73086D01*
X21636Y73136D01*
X21574Y73194D01*
X21520Y73258D01*
X21471Y73290D01*
X21428Y73330D01*
X21353Y73369D01*
X21283Y73415D01*
X21227Y73433D01*
X21175Y73460D01*
X21107Y73471D01*
X21012Y73501D01*
X20912Y73504D01*
X20844Y73515D01*
X11176Y73515D01*
X11118Y73507D01*
X11060Y73509D01*
X10978Y73487D01*
X10894Y73475D01*
X10841Y73451D01*
X10785Y73437D01*
X10712Y73394D01*
X10635Y73359D01*
X10590Y73321D01*
X10540Y73291D01*
X10482Y73230D01*
X10418Y73175D01*
X10386Y73127D01*
X10346Y73084D01*
X10307Y73009D01*
X10260Y72939D01*
X10243Y72883D01*
X10216Y72831D01*
X10205Y72763D01*
X10175Y72668D01*
X10172Y72568D01*
X10161Y72500D01*
X10161Y58824D01*
X10173Y58737D01*
X10176Y58650D01*
X10193Y58597D01*
X10201Y58543D01*
X10236Y58463D01*
X10263Y58379D01*
X10291Y58340D01*
X10317Y58283D01*
X10413Y58170D01*
X10458Y58106D01*
X20057Y48507D01*
X20058Y48506D01*
X20059Y48505D01*
X20174Y48419D01*
X20284Y48336D01*
X20286Y48336D01*
X20287Y48335D01*
X20420Y48284D01*
X20550Y48235D01*
X20551Y48235D01*
X20553Y48234D01*
X20697Y48223D01*
X20833Y48212D01*
X20835Y48212D01*
X20836Y48212D01*
X20852Y48215D01*
X21112Y48267D01*
X21139Y48282D01*
X21163Y48287D01*
X27502Y50913D01*
X36498Y50913D01*
X44809Y47470D01*
X51170Y41109D01*
X54613Y32798D01*
X54613Y23802D01*
X52163Y17889D01*
X52135Y17777D01*
X52100Y17668D01*
X52099Y17640D01*
X52092Y17613D01*
X52096Y17499D01*
X52093Y17384D01*
X52100Y17357D01*
X52100Y17329D01*
X52136Y17220D01*
X52164Y17109D01*
X52179Y17085D01*
X52187Y17058D01*
X52251Y16963D01*
X52310Y16864D01*
X52330Y16845D01*
X52345Y16822D01*
X52433Y16748D01*
X52517Y16670D01*
X52542Y16657D01*
X52563Y16639D01*
X52668Y16593D01*
X52770Y16540D01*
X52795Y16536D01*
X52823Y16524D01*
X53087Y16487D01*
X53101Y16485D01*
X140000Y16485D01*
X140087Y16497D01*
G37*
G36*
X205087Y11497D02*
X205087Y11497D01*
X205174Y11500D01*
X205227Y11517D01*
X205282Y11525D01*
X205361Y11560D01*
X205445Y11587D01*
X205484Y11615D01*
X205541Y11641D01*
X205654Y11737D01*
X205718Y11782D01*
X215718Y21782D01*
X215770Y21852D01*
X215830Y21916D01*
X215856Y21965D01*
X215889Y22009D01*
X215920Y22091D01*
X215960Y22169D01*
X215968Y22217D01*
X215990Y22275D01*
X216002Y22423D01*
X216015Y22500D01*
X216015Y67500D01*
X216003Y67587D01*
X216000Y67674D01*
X215983Y67727D01*
X215975Y67782D01*
X215940Y67861D01*
X215913Y67945D01*
X215885Y67984D01*
X215859Y68041D01*
X215763Y68154D01*
X215718Y68218D01*
X200718Y83218D01*
X200648Y83270D01*
X200584Y83330D01*
X200535Y83356D01*
X200491Y83389D01*
X200409Y83420D01*
X200331Y83460D01*
X200284Y83468D01*
X200225Y83490D01*
X200077Y83502D01*
X200000Y83515D01*
X160000Y83515D01*
X159913Y83503D01*
X159826Y83500D01*
X159773Y83483D01*
X159719Y83475D01*
X159639Y83440D01*
X159555Y83413D01*
X159516Y83385D01*
X159459Y83359D01*
X159346Y83263D01*
X159282Y83218D01*
X156782Y80718D01*
X156730Y80648D01*
X156670Y80584D01*
X156644Y80535D01*
X156611Y80491D01*
X156580Y80409D01*
X156540Y80331D01*
X156532Y80284D01*
X156510Y80225D01*
X156498Y80077D01*
X156485Y80000D01*
X156485Y22500D01*
X156497Y22413D01*
X156500Y22326D01*
X156517Y22273D01*
X156525Y22219D01*
X156560Y22139D01*
X156587Y22055D01*
X156615Y22016D01*
X156641Y21959D01*
X156737Y21846D01*
X156782Y21782D01*
X166782Y11782D01*
X166852Y11730D01*
X166916Y11670D01*
X166965Y11644D01*
X167009Y11611D01*
X167091Y11580D01*
X167169Y11540D01*
X167217Y11532D01*
X167275Y11510D01*
X167423Y11498D01*
X167500Y11485D01*
X205000Y11485D01*
X205087Y11497D01*
G37*
G36*
X90076Y234307D02*
X90076Y234307D01*
X90152Y234305D01*
X90321Y234327D01*
X90492Y234341D01*
X90566Y234359D01*
X90641Y234369D01*
X90805Y234418D01*
X90971Y234459D01*
X91040Y234489D01*
X91114Y234511D01*
X91267Y234587D01*
X91424Y234654D01*
X91488Y234695D01*
X91557Y234728D01*
X91696Y234827D01*
X91840Y234919D01*
X91897Y234970D01*
X91959Y235014D01*
X92080Y235134D01*
X92208Y235248D01*
X92256Y235307D01*
X92310Y235360D01*
X92411Y235499D01*
X92518Y235631D01*
X92555Y235698D01*
X92600Y235759D01*
X92677Y235912D01*
X92762Y236060D01*
X92788Y236132D01*
X92823Y236200D01*
X92874Y236363D01*
X92933Y236523D01*
X92948Y236597D01*
X92971Y236670D01*
X92983Y236775D01*
X93028Y237007D01*
X93035Y237243D01*
X93047Y237348D01*
X93047Y241252D01*
X93041Y241328D01*
X93043Y241404D01*
X93021Y241573D01*
X93007Y241744D01*
X92989Y241818D01*
X92979Y241893D01*
X92930Y242057D01*
X92889Y242223D01*
X92859Y242292D01*
X92837Y242366D01*
X92761Y242519D01*
X92694Y242676D01*
X92653Y242740D01*
X92620Y242809D01*
X92521Y242948D01*
X92429Y243092D01*
X92378Y243149D01*
X92334Y243211D01*
X92214Y243332D01*
X92100Y243460D01*
X92041Y243508D01*
X91987Y243562D01*
X91849Y243663D01*
X91716Y243770D01*
X91650Y243807D01*
X91589Y243852D01*
X91436Y243929D01*
X91288Y244014D01*
X91216Y244040D01*
X91148Y244075D01*
X90985Y244126D01*
X90825Y244185D01*
X90750Y244200D01*
X90678Y244223D01*
X90573Y244235D01*
X90341Y244280D01*
X90105Y244287D01*
X90000Y244299D01*
X66499Y244299D01*
X66499Y251841D01*
X71132Y251841D01*
X71359Y251859D01*
X71587Y251875D01*
X71605Y251879D01*
X71624Y251881D01*
X71845Y251936D01*
X72067Y251988D01*
X72085Y251995D01*
X72103Y251999D01*
X72312Y252089D01*
X72523Y252176D01*
X72539Y252186D01*
X72556Y252194D01*
X72748Y252316D01*
X72942Y252436D01*
X72957Y252449D01*
X72972Y252459D01*
X73141Y252610D01*
X73314Y252761D01*
X73326Y252775D01*
X73340Y252788D01*
X73483Y252965D01*
X73629Y253140D01*
X73638Y253157D01*
X73650Y253171D01*
X73763Y253370D01*
X73878Y253566D01*
X73885Y253584D01*
X73894Y253600D01*
X73974Y253815D01*
X74055Y254027D01*
X74059Y254045D01*
X74066Y254063D01*
X74110Y254286D01*
X74156Y254510D01*
X74157Y254528D01*
X74161Y254547D01*
X74168Y254774D01*
X74178Y255002D01*
X74175Y255018D01*
X74176Y255040D01*
X74159Y255167D01*
X74159Y260701D01*
X83748Y260701D01*
X83824Y260707D01*
X83900Y260705D01*
X84069Y260727D01*
X84240Y260741D01*
X84313Y260759D01*
X84389Y260769D01*
X84553Y260818D01*
X84718Y260859D01*
X84788Y260889D01*
X84861Y260911D01*
X85015Y260987D01*
X85172Y261054D01*
X85236Y261095D01*
X85304Y261128D01*
X85444Y261227D01*
X85588Y261319D01*
X85645Y261370D01*
X85707Y261414D01*
X85828Y261534D01*
X85956Y261648D01*
X86004Y261707D01*
X86058Y261760D01*
X86158Y261899D01*
X86266Y262031D01*
X86303Y262098D01*
X86348Y262159D01*
X86425Y262312D01*
X86510Y262460D01*
X86536Y262532D01*
X86570Y262600D01*
X86622Y262763D01*
X86622Y262764D01*
X86623Y262764D01*
X86692Y262794D01*
X86766Y262816D01*
X86919Y262891D01*
X87076Y262958D01*
X87140Y262999D01*
X87209Y263033D01*
X87348Y263131D01*
X87492Y263223D01*
X87549Y263274D01*
X87611Y263318D01*
X87732Y263438D01*
X87860Y263552D01*
X87908Y263611D01*
X87962Y263665D01*
X88063Y263803D01*
X88170Y263936D01*
X88207Y264002D01*
X88252Y264064D01*
X88329Y264216D01*
X88414Y264365D01*
X88440Y264436D01*
X88475Y264504D01*
X88526Y264667D01*
X88585Y264827D01*
X88600Y264902D01*
X88623Y264974D01*
X88635Y265079D01*
X88680Y265311D01*
X88687Y265547D01*
X88699Y265652D01*
X88699Y276241D01*
X90000Y276241D01*
X90076Y276247D01*
X90152Y276245D01*
X90321Y276267D01*
X90492Y276281D01*
X90566Y276299D01*
X90641Y276309D01*
X90805Y276358D01*
X90971Y276399D01*
X91040Y276429D01*
X91114Y276451D01*
X91267Y276527D01*
X91424Y276594D01*
X91488Y276635D01*
X91557Y276668D01*
X91696Y276767D01*
X91840Y276859D01*
X91897Y276910D01*
X91959Y276954D01*
X92080Y277074D01*
X92208Y277188D01*
X92256Y277247D01*
X92310Y277301D01*
X92411Y277439D01*
X92518Y277572D01*
X92555Y277638D01*
X92600Y277699D01*
X92677Y277852D01*
X92762Y278000D01*
X92788Y278072D01*
X92823Y278140D01*
X92874Y278303D01*
X92933Y278463D01*
X92948Y278538D01*
X92971Y278610D01*
X92983Y278715D01*
X93028Y278947D01*
X93035Y279183D01*
X93047Y279288D01*
X93047Y307500D01*
X93043Y307558D01*
X93043Y307587D01*
X93042Y307599D01*
X93043Y307652D01*
X93021Y307821D01*
X93007Y307992D01*
X92989Y308066D01*
X92979Y308141D01*
X92930Y308305D01*
X92889Y308471D01*
X92859Y308540D01*
X92837Y308614D01*
X92761Y308767D01*
X92694Y308924D01*
X92653Y308988D01*
X92620Y309057D01*
X92521Y309196D01*
X92429Y309340D01*
X92378Y309397D01*
X92334Y309459D01*
X92214Y309580D01*
X92100Y309708D01*
X92041Y309756D01*
X91987Y309810D01*
X91849Y309911D01*
X91716Y310018D01*
X91650Y310055D01*
X91589Y310100D01*
X91436Y310177D01*
X91288Y310262D01*
X91216Y310288D01*
X91148Y310323D01*
X90985Y310374D01*
X90825Y310433D01*
X90750Y310448D01*
X90678Y310471D01*
X90573Y310483D01*
X90341Y310528D01*
X90105Y310535D01*
X90000Y310547D01*
X32500Y310547D01*
X32424Y310541D01*
X32348Y310543D01*
X32179Y310521D01*
X32008Y310507D01*
X31934Y310489D01*
X31859Y310479D01*
X31695Y310430D01*
X31529Y310389D01*
X31460Y310359D01*
X31387Y310337D01*
X31233Y310261D01*
X31076Y310194D01*
X31012Y310153D01*
X30943Y310120D01*
X30804Y310021D01*
X30660Y309929D01*
X30603Y309878D01*
X30541Y309834D01*
X30420Y309714D01*
X30292Y309600D01*
X30244Y309541D01*
X30190Y309487D01*
X30089Y309349D01*
X29982Y309216D01*
X29945Y309150D01*
X29900Y309089D01*
X29823Y308936D01*
X29738Y308788D01*
X29712Y308716D01*
X29677Y308648D01*
X29626Y308485D01*
X29567Y308325D01*
X29552Y308250D01*
X29529Y308178D01*
X29517Y308073D01*
X29472Y307841D01*
X29465Y307605D01*
X29453Y307500D01*
X29453Y254888D01*
X29459Y254812D01*
X29457Y254736D01*
X29479Y254567D01*
X29493Y254396D01*
X29511Y254322D01*
X29521Y254247D01*
X29570Y254083D01*
X29611Y253917D01*
X29641Y253848D01*
X29663Y253774D01*
X29739Y253621D01*
X29806Y253464D01*
X29847Y253400D01*
X29880Y253331D01*
X29979Y253192D01*
X30071Y253048D01*
X30122Y252991D01*
X30166Y252929D01*
X30286Y252808D01*
X30400Y252680D01*
X30459Y252632D01*
X30513Y252578D01*
X30651Y252477D01*
X30784Y252370D01*
X30850Y252333D01*
X30911Y252288D01*
X31064Y252211D01*
X31212Y252126D01*
X31284Y252100D01*
X31352Y252065D01*
X31515Y252014D01*
X31675Y251955D01*
X31750Y251940D01*
X31822Y251917D01*
X31927Y251905D01*
X32159Y251860D01*
X32395Y251853D01*
X32500Y251841D01*
X56501Y251841D01*
X56501Y241252D01*
X56507Y241176D01*
X56505Y241100D01*
X56527Y240931D01*
X56541Y240760D01*
X56559Y240687D01*
X56569Y240611D01*
X56618Y240447D01*
X56659Y240282D01*
X56689Y240212D01*
X56711Y240139D01*
X56787Y239985D01*
X56854Y239828D01*
X56895Y239764D01*
X56928Y239696D01*
X57027Y239556D01*
X57119Y239412D01*
X57170Y239355D01*
X57214Y239293D01*
X57334Y239172D01*
X57448Y239044D01*
X57507Y238996D01*
X57560Y238942D01*
X57699Y238842D01*
X57831Y238734D01*
X57898Y238697D01*
X57959Y238652D01*
X58112Y238575D01*
X58260Y238490D01*
X58332Y238464D01*
X58400Y238430D01*
X58563Y238378D01*
X58723Y238319D01*
X58797Y238304D01*
X58870Y238281D01*
X58975Y238269D01*
X59207Y238224D01*
X59443Y238217D01*
X59548Y238205D01*
X60405Y238205D01*
X60405Y237348D01*
X60411Y237272D01*
X60409Y237196D01*
X60431Y237027D01*
X60445Y236856D01*
X60463Y236782D01*
X60473Y236707D01*
X60523Y236543D01*
X60564Y236377D01*
X60594Y236307D01*
X60616Y236234D01*
X60691Y236081D01*
X60758Y235924D01*
X60799Y235860D01*
X60833Y235791D01*
X60931Y235652D01*
X61023Y235508D01*
X61074Y235451D01*
X61118Y235389D01*
X61238Y235267D01*
X61352Y235140D01*
X61411Y235092D01*
X61465Y235038D01*
X61603Y234937D01*
X61736Y234830D01*
X61802Y234793D01*
X61864Y234748D01*
X62016Y234671D01*
X62165Y234586D01*
X62236Y234560D01*
X62304Y234525D01*
X62467Y234474D01*
X62627Y234415D01*
X62702Y234400D01*
X62774Y234377D01*
X62879Y234365D01*
X63111Y234320D01*
X63347Y234313D01*
X63452Y234301D01*
X90000Y234301D01*
X90076Y234307D01*
G37*
G36*
X375076Y121959D02*
X375076Y121959D01*
X375152Y121957D01*
X375321Y121979D01*
X375492Y121993D01*
X375566Y122011D01*
X375641Y122021D01*
X375805Y122070D01*
X375971Y122111D01*
X376040Y122141D01*
X376114Y122163D01*
X376267Y122239D01*
X376424Y122306D01*
X376488Y122347D01*
X376557Y122380D01*
X376696Y122479D01*
X376840Y122571D01*
X376897Y122622D01*
X376959Y122666D01*
X377080Y122786D01*
X377208Y122900D01*
X377256Y122959D01*
X377310Y123013D01*
X377411Y123151D01*
X377518Y123284D01*
X377555Y123350D01*
X377600Y123411D01*
X377677Y123564D01*
X377762Y123712D01*
X377788Y123784D01*
X377823Y123852D01*
X377874Y124015D01*
X377933Y124175D01*
X377948Y124250D01*
X377971Y124322D01*
X377983Y124427D01*
X378028Y124659D01*
X378035Y124895D01*
X378047Y125000D01*
X378047Y175412D01*
X378041Y175488D01*
X378043Y175564D01*
X378021Y175733D01*
X378007Y175904D01*
X377989Y175978D01*
X377979Y176053D01*
X377930Y176217D01*
X377889Y176383D01*
X377859Y176453D01*
X377837Y176526D01*
X377761Y176679D01*
X377694Y176836D01*
X377653Y176900D01*
X377620Y176969D01*
X377521Y177108D01*
X377429Y177252D01*
X377378Y177309D01*
X377334Y177371D01*
X377214Y177493D01*
X377100Y177620D01*
X377041Y177668D01*
X376987Y177722D01*
X376849Y177823D01*
X376716Y177930D01*
X376650Y177967D01*
X376589Y178012D01*
X376436Y178089D01*
X376288Y178174D01*
X376216Y178200D01*
X376148Y178235D01*
X375985Y178286D01*
X375825Y178345D01*
X375750Y178360D01*
X375678Y178383D01*
X375573Y178395D01*
X375341Y178440D01*
X375105Y178447D01*
X375000Y178459D01*
X372099Y178459D01*
X372099Y188048D01*
X372093Y188124D01*
X372095Y188200D01*
X372073Y188369D01*
X372059Y188540D01*
X372041Y188613D01*
X372031Y188689D01*
X371982Y188853D01*
X371941Y189018D01*
X371911Y189088D01*
X371889Y189161D01*
X371813Y189315D01*
X371746Y189472D01*
X371705Y189536D01*
X371672Y189604D01*
X371573Y189744D01*
X371481Y189888D01*
X371430Y189945D01*
X371386Y190007D01*
X371266Y190128D01*
X371152Y190256D01*
X371093Y190304D01*
X371039Y190358D01*
X370901Y190458D01*
X370768Y190566D01*
X370702Y190603D01*
X370641Y190648D01*
X370488Y190725D01*
X370340Y190810D01*
X370268Y190836D01*
X370200Y190870D01*
X370037Y190922D01*
X370036Y190922D01*
X370036Y190923D01*
X370006Y190992D01*
X369984Y191066D01*
X369909Y191219D01*
X369842Y191376D01*
X369801Y191440D01*
X369767Y191509D01*
X369669Y191648D01*
X369577Y191792D01*
X369526Y191849D01*
X369482Y191911D01*
X369362Y192032D01*
X369248Y192160D01*
X369189Y192208D01*
X369135Y192262D01*
X368997Y192363D01*
X368864Y192470D01*
X368798Y192507D01*
X368736Y192552D01*
X368584Y192629D01*
X368435Y192714D01*
X368364Y192740D01*
X368296Y192775D01*
X368133Y192826D01*
X367973Y192885D01*
X367898Y192900D01*
X367826Y192923D01*
X367721Y192935D01*
X367489Y192980D01*
X367253Y192987D01*
X367148Y192999D01*
X356559Y192999D01*
X356559Y197500D01*
X356553Y197576D01*
X356555Y197652D01*
X356533Y197821D01*
X356519Y197992D01*
X356501Y198066D01*
X356491Y198141D01*
X356442Y198305D01*
X356401Y198471D01*
X356371Y198540D01*
X356349Y198614D01*
X356273Y198767D01*
X356206Y198924D01*
X356165Y198988D01*
X356132Y199057D01*
X356033Y199196D01*
X355941Y199340D01*
X355890Y199397D01*
X355846Y199459D01*
X355726Y199580D01*
X355612Y199708D01*
X355553Y199756D01*
X355499Y199810D01*
X355361Y199911D01*
X355228Y200018D01*
X355162Y200055D01*
X355101Y200100D01*
X354948Y200177D01*
X354800Y200262D01*
X354728Y200288D01*
X354660Y200323D01*
X354497Y200374D01*
X354337Y200433D01*
X354262Y200448D01*
X354190Y200471D01*
X354085Y200483D01*
X353853Y200528D01*
X353617Y200535D01*
X353512Y200547D01*
X312500Y200547D01*
X312424Y200541D01*
X312348Y200543D01*
X312179Y200521D01*
X312008Y200507D01*
X311934Y200489D01*
X311859Y200479D01*
X311695Y200430D01*
X311529Y200389D01*
X311460Y200359D01*
X311387Y200337D01*
X311233Y200261D01*
X311076Y200194D01*
X311012Y200153D01*
X310943Y200120D01*
X310804Y200021D01*
X310660Y199929D01*
X310603Y199878D01*
X310541Y199834D01*
X310420Y199714D01*
X310292Y199600D01*
X310244Y199541D01*
X310190Y199487D01*
X310089Y199349D01*
X309982Y199216D01*
X309945Y199150D01*
X309900Y199089D01*
X309823Y198936D01*
X309738Y198788D01*
X309712Y198716D01*
X309677Y198648D01*
X309626Y198485D01*
X309567Y198325D01*
X309552Y198250D01*
X309529Y198178D01*
X309517Y198073D01*
X309472Y197841D01*
X309465Y197605D01*
X309453Y197500D01*
X309453Y187688D01*
X309459Y187612D01*
X309457Y187536D01*
X309479Y187367D01*
X309493Y187196D01*
X309511Y187122D01*
X309521Y187047D01*
X309570Y186883D01*
X309611Y186717D01*
X309641Y186648D01*
X309663Y186574D01*
X309739Y186421D01*
X309806Y186264D01*
X309847Y186200D01*
X309880Y186131D01*
X309979Y185992D01*
X310071Y185848D01*
X310122Y185791D01*
X310166Y185729D01*
X310286Y185608D01*
X310400Y185480D01*
X310459Y185432D01*
X310513Y185378D01*
X310651Y185277D01*
X310784Y185170D01*
X310850Y185133D01*
X310911Y185088D01*
X311064Y185011D01*
X311212Y184926D01*
X311284Y184900D01*
X311352Y184865D01*
X311515Y184814D01*
X311675Y184755D01*
X311750Y184740D01*
X311822Y184717D01*
X311927Y184705D01*
X312159Y184660D01*
X312395Y184653D01*
X312500Y184641D01*
X313701Y184641D01*
X313701Y174052D01*
X313707Y173976D01*
X313705Y173900D01*
X313727Y173731D01*
X313741Y173560D01*
X313759Y173487D01*
X313769Y173411D01*
X313818Y173247D01*
X313859Y173082D01*
X313889Y173012D01*
X313911Y172939D01*
X313987Y172785D01*
X314054Y172628D01*
X314095Y172564D01*
X314128Y172496D01*
X314227Y172356D01*
X314319Y172212D01*
X314370Y172155D01*
X314414Y172093D01*
X314534Y171972D01*
X314648Y171844D01*
X314707Y171796D01*
X314760Y171742D01*
X314899Y171642D01*
X315031Y171534D01*
X315098Y171497D01*
X315159Y171452D01*
X315312Y171375D01*
X315460Y171290D01*
X315532Y171264D01*
X315600Y171230D01*
X315763Y171178D01*
X315764Y171178D01*
X315764Y171177D01*
X315794Y171107D01*
X315816Y171034D01*
X315891Y170881D01*
X315958Y170724D01*
X315999Y170660D01*
X316033Y170591D01*
X316131Y170452D01*
X316223Y170308D01*
X316274Y170251D01*
X316318Y170189D01*
X316438Y170067D01*
X316552Y169940D01*
X316611Y169892D01*
X316665Y169838D01*
X316803Y169737D01*
X316936Y169630D01*
X317002Y169593D01*
X317064Y169548D01*
X317216Y169471D01*
X317365Y169386D01*
X317436Y169360D01*
X317504Y169325D01*
X317667Y169274D01*
X317827Y169215D01*
X317902Y169200D01*
X317974Y169177D01*
X318079Y169165D01*
X318311Y169120D01*
X318547Y169113D01*
X318652Y169101D01*
X328241Y169101D01*
X328241Y167500D01*
X328247Y167424D01*
X328245Y167348D01*
X328267Y167179D01*
X328281Y167008D01*
X328299Y166934D01*
X328309Y166859D01*
X328358Y166695D01*
X328399Y166529D01*
X328429Y166460D01*
X328451Y166387D01*
X328527Y166233D01*
X328594Y166076D01*
X328635Y166012D01*
X328668Y165943D01*
X328767Y165804D01*
X328859Y165660D01*
X328910Y165603D01*
X328954Y165541D01*
X329074Y165420D01*
X329188Y165292D01*
X329247Y165244D01*
X329300Y165190D01*
X329439Y165089D01*
X329571Y164982D01*
X329638Y164945D01*
X329699Y164900D01*
X329852Y164823D01*
X330000Y164738D01*
X330072Y164712D01*
X330140Y164677D01*
X330303Y164626D01*
X330463Y164567D01*
X330537Y164552D01*
X330610Y164529D01*
X330715Y164517D01*
X330947Y164472D01*
X331183Y164465D01*
X331288Y164453D01*
X341238Y164453D01*
X346953Y158738D01*
X346953Y127372D01*
X346959Y127296D01*
X346957Y127220D01*
X346979Y127051D01*
X346993Y126880D01*
X347011Y126807D01*
X347021Y126731D01*
X347070Y126567D01*
X347111Y126402D01*
X347141Y126332D01*
X347163Y126259D01*
X347239Y126105D01*
X347306Y125948D01*
X347347Y125884D01*
X347380Y125816D01*
X347479Y125676D01*
X347571Y125532D01*
X347622Y125475D01*
X347666Y125413D01*
X347786Y125292D01*
X347900Y125164D01*
X347959Y125116D01*
X348013Y125062D01*
X348151Y124962D01*
X348284Y124854D01*
X348350Y124817D01*
X348411Y124772D01*
X348564Y124695D01*
X348623Y124661D01*
X348664Y124497D01*
X348694Y124427D01*
X348716Y124354D01*
X348791Y124201D01*
X348858Y124044D01*
X348899Y123980D01*
X348933Y123911D01*
X349031Y123772D01*
X349123Y123628D01*
X349174Y123571D01*
X349218Y123509D01*
X349338Y123387D01*
X349452Y123260D01*
X349511Y123212D01*
X349565Y123158D01*
X349703Y123057D01*
X349836Y122950D01*
X349902Y122913D01*
X349964Y122868D01*
X350116Y122791D01*
X350265Y122706D01*
X350336Y122680D01*
X350404Y122645D01*
X350567Y122594D01*
X350727Y122535D01*
X350802Y122520D01*
X350874Y122497D01*
X350979Y122485D01*
X351211Y122440D01*
X351447Y122433D01*
X351552Y122421D01*
X363585Y122421D01*
X363614Y122400D01*
X363767Y122323D01*
X363915Y122238D01*
X363987Y122212D01*
X364055Y122177D01*
X364218Y122126D01*
X364378Y122067D01*
X364452Y122052D01*
X364525Y122029D01*
X364630Y122017D01*
X364862Y121972D01*
X365098Y121965D01*
X365203Y121953D01*
X375000Y121953D01*
X375076Y121959D01*
G37*
G36*
X127302Y213993D02*
X127302Y213993D01*
X127360Y213991D01*
X127442Y214013D01*
X127526Y214025D01*
X127579Y214049D01*
X127635Y214063D01*
X127708Y214106D01*
X127785Y214141D01*
X127830Y214179D01*
X127880Y214209D01*
X127938Y214270D01*
X128002Y214325D01*
X128034Y214373D01*
X128074Y214416D01*
X128113Y214491D01*
X128160Y214561D01*
X128177Y214617D01*
X128204Y214669D01*
X128215Y214737D01*
X128245Y214832D01*
X128248Y214932D01*
X128259Y215000D01*
X128259Y220669D01*
X138784Y220669D01*
X138842Y220677D01*
X138900Y220675D01*
X138982Y220697D01*
X139065Y220709D01*
X139119Y220733D01*
X139175Y220747D01*
X139248Y220790D01*
X139325Y220825D01*
X139369Y220863D01*
X139420Y220893D01*
X139477Y220954D01*
X139542Y221009D01*
X139574Y221057D01*
X139614Y221100D01*
X139653Y221175D01*
X139699Y221245D01*
X139717Y221301D01*
X139744Y221353D01*
X139755Y221421D01*
X139785Y221516D01*
X139788Y221616D01*
X139799Y221684D01*
X139799Y222701D01*
X140816Y222701D01*
X140874Y222709D01*
X140932Y222708D01*
X141014Y222729D01*
X141097Y222741D01*
X141151Y222765D01*
X141207Y222779D01*
X141280Y222822D01*
X141357Y222857D01*
X141401Y222895D01*
X141452Y222925D01*
X141509Y222986D01*
X141574Y223041D01*
X141606Y223089D01*
X141646Y223132D01*
X141685Y223207D01*
X141731Y223277D01*
X141749Y223333D01*
X141776Y223385D01*
X141787Y223453D01*
X141817Y223548D01*
X141820Y223648D01*
X141831Y223716D01*
X141831Y233241D01*
X147500Y233241D01*
X147558Y233249D01*
X147616Y233247D01*
X147698Y233269D01*
X147782Y233281D01*
X147835Y233304D01*
X147891Y233319D01*
X147964Y233362D01*
X148041Y233397D01*
X148086Y233435D01*
X148136Y233464D01*
X148194Y233526D01*
X148258Y233580D01*
X148290Y233629D01*
X148330Y233672D01*
X148369Y233747D01*
X148416Y233817D01*
X148433Y233873D01*
X148460Y233925D01*
X148471Y233993D01*
X148501Y234088D01*
X148504Y234188D01*
X148515Y234256D01*
X148515Y247080D01*
X155421Y253985D01*
X172955Y253985D01*
X173004Y253992D01*
X173052Y253989D01*
X173144Y254011D01*
X173237Y254025D01*
X173281Y254045D01*
X173329Y254056D01*
X173410Y254102D01*
X173496Y254141D01*
X173534Y254172D01*
X173576Y254197D01*
X173642Y254264D01*
X173713Y254325D01*
X173740Y254365D01*
X173774Y254400D01*
X173819Y254483D01*
X173871Y254561D01*
X173886Y254608D01*
X173909Y254651D01*
X173928Y254743D01*
X173957Y254832D01*
X173958Y254881D01*
X173968Y254929D01*
X173961Y255003D01*
X173964Y255116D01*
X173942Y255200D01*
X173939Y255228D01*
X173939Y262505D01*
X173934Y262543D01*
X173936Y262582D01*
X173914Y262684D01*
X173899Y262786D01*
X173883Y262822D01*
X173875Y262860D01*
X173825Y262951D01*
X173783Y263046D01*
X173758Y263075D01*
X173739Y263110D01*
X173666Y263184D01*
X173599Y263263D01*
X173567Y263284D01*
X173540Y263312D01*
X173449Y263363D01*
X173363Y263420D01*
X173326Y263432D01*
X173292Y263451D01*
X173191Y263475D01*
X173092Y263506D01*
X173053Y263507D01*
X173015Y263516D01*
X172911Y263511D01*
X172808Y263513D01*
X172770Y263503D01*
X172731Y263501D01*
X172658Y263474D01*
X172533Y263441D01*
X172469Y263403D01*
X172416Y263384D01*
X171981Y263132D01*
X171334Y262959D01*
X164031Y262959D01*
X164031Y272484D01*
X164023Y272542D01*
X164024Y272600D01*
X164003Y272682D01*
X163991Y272765D01*
X163967Y272819D01*
X163953Y272875D01*
X163910Y272948D01*
X163875Y273025D01*
X163837Y273069D01*
X163807Y273120D01*
X163746Y273177D01*
X163691Y273242D01*
X163643Y273274D01*
X163600Y273314D01*
X163525Y273353D01*
X163455Y273399D01*
X163399Y273417D01*
X163347Y273444D01*
X163279Y273455D01*
X163184Y273485D01*
X163084Y273488D01*
X163016Y273499D01*
X161999Y273499D01*
X161999Y274516D01*
X161991Y274574D01*
X161992Y274632D01*
X161971Y274714D01*
X161959Y274797D01*
X161935Y274851D01*
X161921Y274907D01*
X161878Y274980D01*
X161843Y275057D01*
X161805Y275101D01*
X161775Y275152D01*
X161714Y275209D01*
X161659Y275274D01*
X161611Y275306D01*
X161568Y275346D01*
X161493Y275385D01*
X161423Y275431D01*
X161367Y275449D01*
X161315Y275476D01*
X161247Y275487D01*
X161152Y275517D01*
X161052Y275520D01*
X160984Y275531D01*
X150308Y275531D01*
X150303Y275541D01*
X150265Y275586D01*
X150236Y275636D01*
X150174Y275694D01*
X150120Y275758D01*
X150071Y275790D01*
X150028Y275830D01*
X149953Y275869D01*
X149883Y275916D01*
X149827Y275933D01*
X149775Y275960D01*
X149707Y275971D01*
X149612Y276001D01*
X149512Y276004D01*
X149444Y276015D01*
X124033Y276015D01*
X123985Y276008D01*
X123936Y276011D01*
X123845Y275989D01*
X123752Y275975D01*
X123707Y275955D01*
X123660Y275944D01*
X123578Y275898D01*
X123492Y275859D01*
X123455Y275828D01*
X123413Y275804D01*
X123347Y275736D01*
X123275Y275676D01*
X123248Y275635D01*
X123214Y275600D01*
X123170Y275517D01*
X123118Y275439D01*
X123103Y275392D01*
X123080Y275349D01*
X123060Y275257D01*
X123032Y275168D01*
X123031Y275119D01*
X123020Y275071D01*
X123027Y274997D01*
X123025Y274884D01*
X123046Y274800D01*
X123052Y274737D01*
X123241Y274034D01*
X123241Y266731D01*
X113716Y266731D01*
X113658Y266723D01*
X113600Y266724D01*
X113518Y266703D01*
X113435Y266691D01*
X113381Y266667D01*
X113325Y266653D01*
X113252Y266610D01*
X113175Y266575D01*
X113131Y266537D01*
X113080Y266507D01*
X113023Y266446D01*
X112958Y266391D01*
X112926Y266343D01*
X112886Y266300D01*
X112847Y266225D01*
X112801Y266155D01*
X112783Y266099D01*
X112756Y266047D01*
X112745Y265979D01*
X112715Y265884D01*
X112712Y265784D01*
X112701Y265716D01*
X112701Y264699D01*
X111684Y264699D01*
X111626Y264691D01*
X111568Y264692D01*
X111486Y264671D01*
X111403Y264659D01*
X111349Y264635D01*
X111293Y264621D01*
X111220Y264578D01*
X111143Y264543D01*
X111098Y264505D01*
X111048Y264475D01*
X110990Y264414D01*
X110926Y264359D01*
X110894Y264311D01*
X110854Y264268D01*
X110815Y264193D01*
X110769Y264123D01*
X110751Y264067D01*
X110724Y264015D01*
X110713Y263947D01*
X110683Y263852D01*
X110680Y263752D01*
X110669Y263684D01*
X110669Y253159D01*
X105000Y253159D01*
X104942Y253151D01*
X104884Y253153D01*
X104802Y253131D01*
X104719Y253119D01*
X104665Y253096D01*
X104609Y253081D01*
X104536Y253038D01*
X104459Y253003D01*
X104414Y252965D01*
X104364Y252936D01*
X104306Y252874D01*
X104242Y252820D01*
X104210Y252771D01*
X104170Y252728D01*
X104131Y252653D01*
X104085Y252583D01*
X104067Y252527D01*
X104040Y252475D01*
X104029Y252407D01*
X103999Y252312D01*
X103996Y252212D01*
X103985Y252144D01*
X103985Y217500D01*
X103997Y217413D01*
X104000Y217326D01*
X104017Y217273D01*
X104025Y217219D01*
X104060Y217139D01*
X104087Y217055D01*
X104115Y217016D01*
X104141Y216959D01*
X104237Y216846D01*
X104282Y216782D01*
X106782Y214282D01*
X106852Y214230D01*
X106916Y214170D01*
X106965Y214144D01*
X107009Y214111D01*
X107091Y214080D01*
X107169Y214040D01*
X107217Y214032D01*
X107275Y214010D01*
X107423Y213998D01*
X107500Y213985D01*
X127244Y213985D01*
X127302Y213993D01*
G37*
G36*
X515087Y166497D02*
X515087Y166497D01*
X515174Y166500D01*
X515227Y166517D01*
X515282Y166525D01*
X515361Y166560D01*
X515445Y166587D01*
X515484Y166615D01*
X515541Y166641D01*
X515654Y166737D01*
X515718Y166782D01*
X528218Y179282D01*
X528270Y179352D01*
X528330Y179416D01*
X528356Y179465D01*
X528389Y179509D01*
X528420Y179591D01*
X528460Y179669D01*
X528468Y179717D01*
X528490Y179775D01*
X528502Y179923D01*
X528515Y180000D01*
X528515Y182500D01*
X528503Y182587D01*
X528500Y182674D01*
X528483Y182727D01*
X528475Y182782D01*
X528440Y182861D01*
X528413Y182945D01*
X528385Y182984D01*
X528359Y183041D01*
X528263Y183154D01*
X528218Y183218D01*
X498218Y213218D01*
X498148Y213270D01*
X498084Y213330D01*
X498035Y213356D01*
X497991Y213389D01*
X497909Y213420D01*
X497831Y213460D01*
X497784Y213468D01*
X497725Y213490D01*
X497577Y213502D01*
X497500Y213515D01*
X480421Y213515D01*
X478218Y215718D01*
X478148Y215770D01*
X478084Y215830D01*
X478035Y215856D01*
X477991Y215889D01*
X477909Y215920D01*
X477831Y215960D01*
X477784Y215968D01*
X477725Y215990D01*
X477577Y216002D01*
X477500Y216015D01*
X472500Y216015D01*
X472413Y216003D01*
X472326Y216000D01*
X472273Y215983D01*
X472219Y215975D01*
X472139Y215940D01*
X472055Y215913D01*
X472016Y215885D01*
X471959Y215859D01*
X471846Y215763D01*
X471782Y215718D01*
X459282Y203218D01*
X459230Y203148D01*
X459170Y203084D01*
X459144Y203035D01*
X459111Y202991D01*
X459080Y202909D01*
X459040Y202831D01*
X459032Y202784D01*
X459010Y202725D01*
X458998Y202577D01*
X458985Y202500D01*
X458985Y185000D01*
X458997Y184913D01*
X459000Y184826D01*
X459017Y184773D01*
X459025Y184719D01*
X459060Y184639D01*
X459087Y184555D01*
X459115Y184516D01*
X459141Y184459D01*
X459237Y184346D01*
X459282Y184282D01*
X476782Y166782D01*
X476852Y166730D01*
X476916Y166670D01*
X476965Y166644D01*
X477009Y166611D01*
X477091Y166580D01*
X477169Y166540D01*
X477217Y166532D01*
X477275Y166510D01*
X477423Y166498D01*
X477500Y166485D01*
X515000Y166485D01*
X515087Y166497D01*
G37*
G36*
X392076Y205759D02*
X392076Y205759D01*
X392152Y205757D01*
X392321Y205779D01*
X392492Y205793D01*
X392566Y205811D01*
X392641Y205821D01*
X392805Y205870D01*
X392971Y205911D01*
X393040Y205941D01*
X393114Y205963D01*
X393267Y206039D01*
X393424Y206106D01*
X393488Y206147D01*
X393557Y206180D01*
X393696Y206279D01*
X393840Y206371D01*
X393897Y206422D01*
X393959Y206466D01*
X394080Y206586D01*
X394208Y206700D01*
X394256Y206759D01*
X394310Y206813D01*
X394411Y206951D01*
X394518Y207084D01*
X394555Y207150D01*
X394600Y207211D01*
X394677Y207364D01*
X394762Y207512D01*
X394788Y207584D01*
X394823Y207652D01*
X394874Y207815D01*
X394933Y207975D01*
X394948Y208050D01*
X394971Y208122D01*
X394983Y208227D01*
X395028Y208459D01*
X395035Y208695D01*
X395047Y208800D01*
X395047Y240000D01*
X395041Y240076D01*
X395043Y240152D01*
X395021Y240321D01*
X395007Y240492D01*
X394989Y240566D01*
X394979Y240641D01*
X394930Y240805D01*
X394889Y240971D01*
X394859Y241040D01*
X394837Y241114D01*
X394761Y241267D01*
X394694Y241424D01*
X394653Y241488D01*
X394620Y241557D01*
X394521Y241696D01*
X394429Y241840D01*
X394378Y241897D01*
X394334Y241959D01*
X394214Y242080D01*
X394100Y242208D01*
X394041Y242256D01*
X393987Y242310D01*
X393849Y242411D01*
X393716Y242518D01*
X393650Y242555D01*
X393589Y242600D01*
X393436Y242677D01*
X393288Y242762D01*
X393216Y242788D01*
X393148Y242823D01*
X392985Y242874D01*
X392825Y242933D01*
X392750Y242948D01*
X392678Y242971D01*
X392573Y242983D01*
X392341Y243028D01*
X392105Y243035D01*
X392000Y243047D01*
X355988Y243047D01*
X355912Y243041D01*
X355836Y243043D01*
X355667Y243021D01*
X355496Y243007D01*
X355422Y242989D01*
X355347Y242979D01*
X355183Y242930D01*
X355017Y242889D01*
X354948Y242859D01*
X354874Y242837D01*
X354721Y242761D01*
X354564Y242694D01*
X354500Y242653D01*
X354431Y242620D01*
X354292Y242521D01*
X354148Y242429D01*
X354091Y242378D01*
X354029Y242334D01*
X353908Y242214D01*
X353780Y242100D01*
X353732Y242041D01*
X353678Y241987D01*
X353577Y241849D01*
X353470Y241716D01*
X353433Y241650D01*
X353388Y241589D01*
X353311Y241436D01*
X353226Y241288D01*
X353200Y241216D01*
X353165Y241148D01*
X353114Y240985D01*
X353055Y240825D01*
X353040Y240750D01*
X353017Y240678D01*
X353005Y240573D01*
X352960Y240341D01*
X352953Y240105D01*
X352941Y240000D01*
X352941Y229656D01*
X352952Y229523D01*
X352952Y229390D01*
X352971Y229278D01*
X352981Y229164D01*
X353013Y229035D01*
X353035Y228904D01*
X353072Y228796D01*
X353099Y228685D01*
X353152Y228563D01*
X353195Y228437D01*
X353249Y228336D01*
X353294Y228232D01*
X353365Y228120D01*
X353428Y228002D01*
X353498Y227912D01*
X353559Y227816D01*
X353648Y227717D01*
X353729Y227611D01*
X353812Y227533D01*
X353888Y227448D01*
X353991Y227364D01*
X354088Y227273D01*
X354183Y227209D01*
X354272Y227138D01*
X354387Y227072D01*
X354498Y226998D01*
X354601Y226950D01*
X354700Y226894D01*
X354825Y226848D01*
X354946Y226792D01*
X355056Y226762D01*
X355163Y226722D01*
X355294Y226697D01*
X355422Y226662D01*
X355535Y226649D01*
X355647Y226628D01*
X355780Y226623D01*
X355912Y226609D01*
X356026Y226616D01*
X356140Y226612D01*
X356272Y226630D01*
X356405Y226637D01*
X356516Y226662D01*
X356629Y226677D01*
X356757Y226715D01*
X356887Y226744D01*
X356964Y226778D01*
X357101Y226819D01*
X357451Y226990D01*
X357512Y227017D01*
X358119Y227368D01*
X358765Y227541D01*
X364101Y227541D01*
X364101Y217952D01*
X364107Y217876D01*
X364105Y217800D01*
X364127Y217631D01*
X364141Y217460D01*
X364159Y217387D01*
X364169Y217311D01*
X364218Y217147D01*
X364259Y216982D01*
X364289Y216912D01*
X364311Y216839D01*
X364387Y216685D01*
X364454Y216528D01*
X364495Y216464D01*
X364528Y216396D01*
X364627Y216256D01*
X364719Y216112D01*
X364770Y216055D01*
X364814Y215993D01*
X364934Y215872D01*
X365048Y215744D01*
X365107Y215696D01*
X365160Y215642D01*
X365299Y215542D01*
X365431Y215434D01*
X365498Y215397D01*
X365559Y215352D01*
X365712Y215275D01*
X365860Y215190D01*
X365932Y215164D01*
X366000Y215130D01*
X366163Y215078D01*
X366164Y215078D01*
X366164Y215077D01*
X366194Y215007D01*
X366216Y214934D01*
X366291Y214781D01*
X366358Y214624D01*
X366399Y214560D01*
X366433Y214491D01*
X366531Y214352D01*
X366623Y214208D01*
X366674Y214151D01*
X366718Y214089D01*
X366838Y213967D01*
X366952Y213840D01*
X367011Y213792D01*
X367065Y213738D01*
X367203Y213637D01*
X367336Y213530D01*
X367402Y213493D01*
X367464Y213448D01*
X367616Y213371D01*
X367765Y213286D01*
X367836Y213260D01*
X367904Y213225D01*
X368067Y213174D01*
X368227Y213115D01*
X368302Y213100D01*
X368374Y213077D01*
X368479Y213065D01*
X368711Y213020D01*
X368947Y213013D01*
X369052Y213001D01*
X379641Y213001D01*
X379641Y208800D01*
X379647Y208724D01*
X379645Y208648D01*
X379667Y208479D01*
X379681Y208308D01*
X379699Y208234D01*
X379709Y208159D01*
X379758Y207995D01*
X379799Y207829D01*
X379829Y207760D01*
X379851Y207687D01*
X379927Y207533D01*
X379994Y207376D01*
X380035Y207312D01*
X380068Y207243D01*
X380167Y207104D01*
X380259Y206960D01*
X380310Y206903D01*
X380354Y206841D01*
X380474Y206720D01*
X380588Y206592D01*
X380647Y206544D01*
X380701Y206490D01*
X380839Y206389D01*
X380972Y206282D01*
X381038Y206245D01*
X381099Y206200D01*
X381252Y206123D01*
X381400Y206038D01*
X381472Y206012D01*
X381540Y205977D01*
X381703Y205926D01*
X381863Y205867D01*
X381938Y205852D01*
X382010Y205829D01*
X382115Y205817D01*
X382347Y205772D01*
X382583Y205765D01*
X382688Y205753D01*
X392000Y205753D01*
X392076Y205759D01*
G37*
G36*
X187587Y121497D02*
X187587Y121497D01*
X187674Y121500D01*
X187727Y121517D01*
X187782Y121525D01*
X187861Y121560D01*
X187945Y121587D01*
X187984Y121615D01*
X188041Y121641D01*
X188154Y121737D01*
X188218Y121782D01*
X190718Y124282D01*
X190770Y124352D01*
X190830Y124416D01*
X190856Y124465D01*
X190889Y124509D01*
X190920Y124591D01*
X190960Y124669D01*
X190968Y124717D01*
X190990Y124775D01*
X191002Y124923D01*
X191015Y125000D01*
X191015Y135000D01*
X191003Y135087D01*
X191000Y135174D01*
X190983Y135227D01*
X190975Y135282D01*
X190940Y135361D01*
X190913Y135445D01*
X190885Y135484D01*
X190859Y135541D01*
X190763Y135654D01*
X190718Y135718D01*
X188218Y138218D01*
X188148Y138270D01*
X188084Y138330D01*
X188035Y138356D01*
X187991Y138389D01*
X187909Y138420D01*
X187831Y138460D01*
X187784Y138468D01*
X187725Y138490D01*
X187577Y138502D01*
X187500Y138515D01*
X162500Y138515D01*
X162413Y138503D01*
X162326Y138500D01*
X162273Y138483D01*
X162219Y138475D01*
X162139Y138440D01*
X162055Y138413D01*
X162016Y138385D01*
X161959Y138359D01*
X161846Y138263D01*
X161782Y138218D01*
X159282Y135718D01*
X159230Y135648D01*
X159170Y135584D01*
X159144Y135535D01*
X159111Y135491D01*
X159080Y135409D01*
X159040Y135331D01*
X159032Y135284D01*
X159010Y135225D01*
X158998Y135077D01*
X158985Y135000D01*
X158985Y125000D01*
X158997Y124913D01*
X159000Y124826D01*
X159017Y124773D01*
X159025Y124719D01*
X159060Y124639D01*
X159087Y124555D01*
X159115Y124516D01*
X159141Y124459D01*
X159237Y124346D01*
X159282Y124282D01*
X161782Y121782D01*
X161852Y121730D01*
X161916Y121670D01*
X161965Y121644D01*
X162009Y121611D01*
X162091Y121580D01*
X162169Y121540D01*
X162217Y121532D01*
X162275Y121510D01*
X162423Y121498D01*
X162500Y121485D01*
X187500Y121485D01*
X187587Y121497D01*
G37*
%LPC*%
G36*
X650831Y42831D02*
X650831Y42831D01*
X650831Y55406D01*
X661199Y55406D01*
X661846Y55233D01*
X662425Y54898D01*
X662898Y54425D01*
X663233Y53846D01*
X663406Y53199D01*
X663406Y42831D01*
X650831Y42831D01*
G37*
%LPD*%
%LPC*%
G36*
X634194Y42831D02*
X634194Y42831D01*
X634194Y53199D01*
X634367Y53846D01*
X634702Y54425D01*
X635175Y54898D01*
X635754Y55233D01*
X636401Y55406D01*
X646769Y55406D01*
X646769Y42831D01*
X634194Y42831D01*
G37*
%LPD*%
%LPC*%
G36*
X650831Y26194D02*
X650831Y26194D01*
X650831Y38769D01*
X663406Y38769D01*
X663406Y28401D01*
X663233Y27754D01*
X662898Y27175D01*
X662425Y26702D01*
X661846Y26367D01*
X661199Y26194D01*
X650831Y26194D01*
G37*
%LPD*%
%LPC*%
G36*
X636401Y26194D02*
X636401Y26194D01*
X635754Y26367D01*
X635175Y26702D01*
X634702Y27175D01*
X634367Y27754D01*
X634194Y28401D01*
X634194Y38769D01*
X646769Y38769D01*
X646769Y26194D01*
X636401Y26194D01*
G37*
%LPD*%
%LPC*%
G36*
X685831Y42831D02*
X685831Y42831D01*
X685831Y55266D01*
X687220Y55046D01*
X689407Y54336D01*
X691455Y53292D01*
X693315Y51941D01*
X694941Y50315D01*
X696292Y48455D01*
X697336Y46407D01*
X698046Y44220D01*
X698266Y42831D01*
X685831Y42831D01*
G37*
%LPD*%
%LPC*%
G36*
X720831Y42831D02*
X720831Y42831D01*
X720831Y55266D01*
X722220Y55046D01*
X724407Y54336D01*
X726455Y53292D01*
X728315Y51941D01*
X729941Y50315D01*
X731292Y48455D01*
X732336Y46407D01*
X733046Y44220D01*
X733266Y42831D01*
X720831Y42831D01*
G37*
%LPD*%
%LPC*%
G36*
X685831Y38769D02*
X685831Y38769D01*
X698266Y38769D01*
X698046Y37380D01*
X697336Y35193D01*
X696292Y33145D01*
X694941Y31285D01*
X693315Y29659D01*
X691455Y28308D01*
X689407Y27264D01*
X687220Y26554D01*
X685831Y26334D01*
X685831Y38769D01*
G37*
%LPD*%
%LPC*%
G36*
X720831Y38769D02*
X720831Y38769D01*
X733266Y38769D01*
X733046Y37380D01*
X732336Y35193D01*
X731292Y33145D01*
X729941Y31285D01*
X728315Y29659D01*
X726455Y28308D01*
X724407Y27264D01*
X722220Y26554D01*
X720831Y26334D01*
X720831Y38769D01*
G37*
%LPD*%
%LPC*%
G36*
X704334Y42831D02*
X704334Y42831D01*
X704554Y44220D01*
X705264Y46407D01*
X706308Y48455D01*
X707659Y50315D01*
X709285Y51941D01*
X711145Y53292D01*
X713193Y54336D01*
X715380Y55046D01*
X716769Y55266D01*
X716769Y42831D01*
X704334Y42831D01*
G37*
%LPD*%
%LPC*%
G36*
X669334Y42831D02*
X669334Y42831D01*
X669554Y44220D01*
X670264Y46407D01*
X671308Y48455D01*
X672659Y50315D01*
X674285Y51941D01*
X676145Y53292D01*
X678193Y54336D01*
X680380Y55046D01*
X681769Y55266D01*
X681769Y42831D01*
X669334Y42831D01*
G37*
%LPD*%
%LPC*%
G36*
X680380Y26554D02*
X680380Y26554D01*
X678193Y27264D01*
X676145Y28308D01*
X674285Y29659D01*
X672659Y31285D01*
X671308Y33145D01*
X670264Y35193D01*
X669554Y37380D01*
X669334Y38769D01*
X681769Y38769D01*
X681769Y26334D01*
X680380Y26554D01*
G37*
%LPD*%
%LPC*%
G36*
X715380Y26554D02*
X715380Y26554D01*
X713193Y27264D01*
X711145Y28308D01*
X709285Y29659D01*
X707659Y31285D01*
X706308Y33145D01*
X705264Y35193D01*
X704554Y37380D01*
X704334Y38769D01*
X716769Y38769D01*
X716769Y26334D01*
X715380Y26554D01*
G37*
%LPD*%
%LPC*%
G36*
X130431Y44531D02*
X130431Y44531D01*
X130431Y55201D01*
X138894Y55201D01*
X139541Y55028D01*
X140120Y54693D01*
X140593Y54220D01*
X140928Y53641D01*
X141101Y52994D01*
X141101Y44531D01*
X130431Y44531D01*
G37*
%LPD*%
%LPC*%
G36*
X115699Y44531D02*
X115699Y44531D01*
X115699Y52994D01*
X115872Y53641D01*
X116207Y54220D01*
X116680Y54693D01*
X117259Y55028D01*
X117906Y55201D01*
X126369Y55201D01*
X126369Y44531D01*
X115699Y44531D01*
G37*
%LPD*%
%LPC*%
G36*
X117906Y29799D02*
X117906Y29799D01*
X117259Y29972D01*
X116680Y30307D01*
X116207Y30780D01*
X115872Y31359D01*
X115699Y32006D01*
X115699Y40469D01*
X126369Y40469D01*
X126369Y29799D01*
X117906Y29799D01*
G37*
%LPD*%
%LPC*%
G36*
X130431Y29799D02*
X130431Y29799D01*
X130431Y40469D01*
X141101Y40469D01*
X141101Y32006D01*
X140928Y31359D01*
X140593Y30780D01*
X140120Y30307D01*
X139541Y29972D01*
X138894Y29799D01*
X130431Y29799D01*
G37*
%LPD*%
%LPC*%
G36*
X180431Y44531D02*
X180431Y44531D01*
X180431Y55037D01*
X181374Y54888D01*
X183275Y54270D01*
X185057Y53363D01*
X186674Y52188D01*
X188088Y50774D01*
X189263Y49157D01*
X190170Y47375D01*
X190788Y45474D01*
X190937Y44531D01*
X180431Y44531D01*
G37*
%LPD*%
%LPC*%
G36*
X165863Y44531D02*
X165863Y44531D01*
X166012Y45474D01*
X166630Y47375D01*
X167537Y49157D01*
X168712Y50774D01*
X170126Y52188D01*
X171743Y53363D01*
X173525Y54270D01*
X175426Y54888D01*
X176369Y55037D01*
X176369Y44531D01*
X165863Y44531D01*
G37*
%LPD*%
%LPC*%
G36*
X180431Y40469D02*
X180431Y40469D01*
X190937Y40469D01*
X190788Y39526D01*
X190170Y37625D01*
X189263Y35843D01*
X188088Y34226D01*
X186674Y32812D01*
X185057Y31637D01*
X183275Y30730D01*
X181374Y30112D01*
X180431Y29963D01*
X180431Y40469D01*
G37*
%LPD*%
%LPC*%
G36*
X175426Y30112D02*
X175426Y30112D01*
X173525Y30730D01*
X171743Y31637D01*
X170126Y32812D01*
X168712Y34226D01*
X167537Y35843D01*
X166630Y37625D01*
X166012Y39526D01*
X165863Y40469D01*
X176369Y40469D01*
X176369Y29963D01*
X175426Y30112D01*
G37*
%LPD*%
%LPC*%
G36*
X128259Y224731D02*
X128259Y224731D01*
X128259Y231034D01*
X128432Y231681D01*
X128767Y232260D01*
X129240Y232733D01*
X129819Y233068D01*
X130466Y233241D01*
X137769Y233241D01*
X137769Y224731D01*
X128259Y224731D01*
G37*
%LPD*%
%LPC*%
G36*
X114731Y253159D02*
X114731Y253159D01*
X114731Y262669D01*
X123241Y262669D01*
X123241Y255366D01*
X123068Y254719D01*
X122733Y254140D01*
X122260Y253667D01*
X121681Y253332D01*
X121034Y253159D01*
X114731Y253159D01*
G37*
%LPD*%
%LPC*%
G36*
X152666Y262959D02*
X152666Y262959D01*
X152019Y263132D01*
X151440Y263467D01*
X150967Y263940D01*
X150632Y264519D01*
X150459Y265166D01*
X150459Y271469D01*
X159969Y271469D01*
X159969Y262959D01*
X152666Y262959D01*
G37*
%LPD*%
%LPC*%
G36*
X354599Y130419D02*
X354599Y130419D01*
X354599Y136961D01*
X359950Y136961D01*
X360596Y136788D01*
X361175Y136453D01*
X361648Y135980D01*
X361983Y135401D01*
X362156Y134755D01*
X362156Y130419D01*
X354599Y130419D01*
G37*
%LPD*%
%LPC*%
G36*
X321699Y177099D02*
X321699Y177099D01*
X321699Y184641D01*
X326035Y184641D01*
X326681Y184468D01*
X327260Y184133D01*
X327733Y183660D01*
X328068Y183081D01*
X328241Y182435D01*
X328241Y177099D01*
X321699Y177099D01*
G37*
%LPD*%
%LPC*%
G36*
X372099Y220999D02*
X372099Y220999D01*
X372099Y227541D01*
X377435Y227541D01*
X378081Y227368D01*
X378660Y227033D01*
X379133Y226560D01*
X379468Y225981D01*
X379641Y225335D01*
X379641Y220999D01*
X372099Y220999D01*
G37*
%LPD*%
%LPC*%
G36*
X74159Y268699D02*
X74159Y268699D01*
X74159Y274035D01*
X74332Y274681D01*
X74667Y275260D01*
X75140Y275733D01*
X75719Y276068D01*
X76365Y276241D01*
X80701Y276241D01*
X80701Y268699D01*
X74159Y268699D01*
G37*
%LPD*%
%LPC*%
G36*
X358765Y178459D02*
X358765Y178459D01*
X358119Y178632D01*
X357540Y178967D01*
X357067Y179440D01*
X356732Y180019D01*
X356559Y180665D01*
X356559Y185001D01*
X364101Y185001D01*
X364101Y178459D01*
X358765Y178459D01*
G37*
%LPD*%
%LPC*%
G36*
X84031Y58959D02*
X84031Y58959D01*
X84031Y65469D01*
X91541Y65469D01*
X91541Y61166D01*
X91368Y60519D01*
X91033Y59940D01*
X90560Y59467D01*
X89981Y59132D01*
X89334Y58959D01*
X84031Y58959D01*
G37*
%LPD*%
%LPC*%
G36*
X33431Y59159D02*
X33431Y59159D01*
X33431Y65669D01*
X40941Y65669D01*
X40941Y61366D01*
X40768Y60719D01*
X40433Y60140D01*
X39960Y59667D01*
X39381Y59332D01*
X38734Y59159D01*
X33431Y59159D01*
G37*
%LPD*%
%LPC*%
G36*
X59031Y59159D02*
X59031Y59159D01*
X59031Y65669D01*
X66541Y65669D01*
X66541Y61366D01*
X66368Y60719D01*
X66033Y60140D01*
X65560Y59667D01*
X64981Y59332D01*
X64334Y59159D01*
X59031Y59159D01*
G37*
%LPD*%
%LPC*%
G36*
X74666Y58959D02*
X74666Y58959D01*
X74019Y59132D01*
X73440Y59467D01*
X72967Y59940D01*
X72632Y60519D01*
X72459Y61166D01*
X72459Y65469D01*
X79969Y65469D01*
X79969Y58959D01*
X74666Y58959D01*
G37*
%LPD*%
%LPC*%
G36*
X24066Y59159D02*
X24066Y59159D01*
X23419Y59332D01*
X22840Y59667D01*
X22367Y60140D01*
X22032Y60719D01*
X21859Y61366D01*
X21859Y65669D01*
X29369Y65669D01*
X29369Y59159D01*
X24066Y59159D01*
G37*
%LPD*%
%LPC*%
G36*
X49666Y59159D02*
X49666Y59159D01*
X49019Y59332D01*
X48440Y59667D01*
X47967Y60140D01*
X47632Y60719D01*
X47459Y61366D01*
X47459Y65669D01*
X54969Y65669D01*
X54969Y59159D01*
X49666Y59159D01*
G37*
%LPD*%
%LPC*%
G36*
X178399Y42499D02*
X178399Y42499D01*
X178399Y42501D01*
X178401Y42501D01*
X178401Y42499D01*
X178399Y42499D01*
G37*
%LPD*%
%LPC*%
G36*
X128399Y42499D02*
X128399Y42499D01*
X128399Y42501D01*
X128401Y42501D01*
X128401Y42499D01*
X128399Y42499D01*
G37*
%LPD*%
%LPC*%
G36*
X683799Y40799D02*
X683799Y40799D01*
X683799Y40801D01*
X683801Y40801D01*
X683801Y40799D01*
X683799Y40799D01*
G37*
%LPD*%
%LPC*%
G36*
X648799Y40799D02*
X648799Y40799D01*
X648799Y40801D01*
X648801Y40801D01*
X648801Y40799D01*
X648799Y40799D01*
G37*
%LPD*%
%LPC*%
G36*
X718799Y40799D02*
X718799Y40799D01*
X718799Y40801D01*
X718801Y40801D01*
X718801Y40799D01*
X718799Y40799D01*
G37*
%LPD*%
D10*
X440500Y402000D03*
X440500Y397000D03*
X440500Y392000D03*
X440500Y387000D03*
X440500Y382000D03*
X440500Y377000D03*
X440500Y372000D03*
X440500Y367000D03*
X440500Y362000D03*
X440500Y357000D03*
X440500Y352000D03*
X440500Y347000D03*
D11*
X458000Y329500D03*
X463000Y329500D03*
X468000Y329500D03*
X473000Y329500D03*
X478000Y329500D03*
X483000Y329500D03*
X488000Y329500D03*
X493000Y329500D03*
X498000Y329500D03*
X503000Y329500D03*
X508000Y329500D03*
X513000Y329500D03*
D10*
X530500Y347000D03*
X530500Y352000D03*
X530500Y357000D03*
X530500Y362000D03*
X530500Y367000D03*
X530500Y372000D03*
X530500Y377000D03*
X530500Y382000D03*
X530500Y387000D03*
X530500Y392000D03*
X530500Y397000D03*
X530500Y402000D03*
D11*
X513000Y419500D03*
X508000Y419500D03*
X503000Y419500D03*
X498000Y419500D03*
X493000Y419500D03*
X488000Y419500D03*
X483000Y419500D03*
X478000Y419500D03*
X473000Y419500D03*
X468000Y419500D03*
X463000Y419500D03*
X458000Y419500D03*
D12*
X541400Y40800D03*
D13*
X576400Y40800D03*
X611400Y40800D03*
D12*
X433400Y40800D03*
D13*
X468400Y40800D03*
X503400Y40800D03*
D12*
X648800Y40800D03*
D13*
X683800Y40800D03*
X718800Y40800D03*
D14*
X67100Y342900D03*
X67100Y412900D03*
D15*
X38600Y355400D03*
X38600Y400400D03*
D14*
X732600Y372400D03*
X732600Y302400D03*
D15*
X761100Y359900D03*
X761100Y314900D03*
D14*
X732800Y269600D03*
X732800Y199600D03*
D15*
X761300Y257100D03*
X761300Y212100D03*
D14*
X733100Y167200D03*
X733100Y97200D03*
D15*
X761600Y154700D03*
X761600Y109700D03*
D16*
X128400Y42500D03*
D17*
X178400Y42500D03*
D18*
X82000Y97500D03*
X82000Y67500D03*
X57000Y97700D03*
X57000Y67700D03*
X31400Y97700D03*
X31400Y67700D03*
D19*
X418500Y267300D03*
X448500Y267300D03*
X418500Y294000D03*
X448500Y294000D03*
X191500Y471800D03*
X161500Y471800D03*
X191500Y432600D03*
X161500Y432600D03*
X191500Y395900D03*
X161500Y395900D03*
D20*
X733300Y461700D03*
D21*
X733300Y436300D03*
X733300Y410900D03*
D22*
X661650Y331075D03*
X585450Y331075D03*
D23*
X636250Y331075D03*
X610850Y331075D03*
X610850Y356475D03*
X636250Y356475D03*
X661650Y356475D03*
X585450Y356475D03*
D24*
X620600Y135400D03*
X630100Y135400D03*
X611100Y135400D03*
X611100Y108400D03*
X630100Y108400D03*
X585700Y135500D03*
X595200Y135500D03*
X576200Y135500D03*
X576200Y108500D03*
X595200Y108500D03*
X551500Y135500D03*
X561000Y135500D03*
X542000Y135500D03*
X542000Y108500D03*
X561000Y108500D03*
D25*
X110020Y117700D03*
X81580Y117700D03*
D26*
X58400Y147920D03*
X58400Y119480D03*
X31700Y147920D03*
X31700Y119480D03*
X636300Y415020D03*
X636300Y386580D03*
D27*
X693996Y363200D03*
X693996Y335200D03*
D25*
X219980Y472900D03*
X248420Y472900D03*
X219980Y433700D03*
X248420Y433700D03*
X219980Y397000D03*
X248420Y397000D03*
D27*
X162000Y301500D03*
X162000Y273500D03*
D28*
X525700Y296100D03*
X497700Y296100D03*
X525700Y274400D03*
X497700Y274400D03*
X435100Y442900D03*
X463100Y442900D03*
D27*
X554000Y431700D03*
X554000Y403700D03*
D29*
X405188Y353100D02*
X394012Y353100D01*
X394012Y403900D02*
X405188Y403900D01*
D25*
X491420Y464700D03*
X462980Y464700D03*
D26*
X613800Y428920D03*
X613800Y400480D03*
D30*
X191450Y213350D03*
X191450Y206850D03*
X191450Y200350D03*
X191450Y193850D03*
X215950Y193850D03*
X215950Y200350D03*
X215950Y206850D03*
X215950Y213350D03*
D27*
X139800Y194700D03*
X139800Y222700D03*
X174200Y177800D03*
X174200Y149800D03*
X164300Y209700D03*
X164300Y237700D03*
D28*
X84700Y264700D03*
X112700Y264700D03*
D26*
X273800Y287920D03*
X273800Y259480D03*
X252100Y287920D03*
X252100Y259480D03*
D25*
X212920Y264600D03*
X184480Y264600D03*
D31*
X308350Y119650D03*
X301850Y119650D03*
X295350Y119650D03*
X288850Y119650D03*
X288850Y95150D03*
X295350Y95150D03*
X301850Y95150D03*
X308350Y95150D03*
D28*
X289700Y173100D03*
X317700Y173100D03*
X273300Y130900D03*
X245300Y130900D03*
X304700Y149100D03*
X332700Y149100D03*
D27*
X368100Y217000D03*
X368100Y189000D03*
D25*
X375300Y30460D03*
X346860Y30460D03*
X375460Y52430D03*
X347020Y52430D03*
D26*
X350600Y97980D03*
X350600Y126420D03*
D32*
X312400Y224200D03*
X342900Y224200D03*
D33*
X61500Y193300D03*
X61500Y239300D03*
D26*
X236650Y211320D03*
X236650Y182880D03*
D25*
X306720Y75000D03*
X278280Y75000D03*
D34*
X611100Y108400D02*
X611100Y41100D01*
X611400Y40800D01*
X576200Y41000D02*
X576200Y108500D01*
X576200Y41000D02*
X576400Y40800D01*
X542000Y41400D02*
X542000Y108500D01*
X542000Y41400D02*
X541400Y40800D01*
D35*
X497700Y296100D02*
X500800Y299200D01*
D36*
X317700Y173100D02*
X317700Y129000D01*
X308350Y119650D01*
D35*
X317700Y173100D02*
X320000Y173100D01*
D36*
X350600Y161900D02*
X350600Y126420D01*
X368100Y144400D02*
X350600Y161900D01*
X339400Y173100D02*
X320000Y173100D01*
X368100Y189000D02*
X368100Y144400D01*
X188950Y213350D02*
X179600Y222700D01*
X139800Y222700D01*
X188950Y213350D02*
X191450Y213350D01*
X140000Y252500D02*
X139800Y252300D01*
X140000Y252500D02*
X152100Y264600D01*
D37*
X127800Y264700D02*
X112700Y264700D01*
X127800Y264700D02*
X140000Y252500D01*
X139800Y252300D02*
X139800Y222700D01*
X152100Y264600D02*
X184480Y264600D01*
X152100Y264600D02*
X139800Y252300D01*
D38*
X114200Y222600D03*
X114200Y245100D03*
X139200Y245100D03*
X162600Y259600D03*
X136700Y265100D03*
X166700Y130100D03*
D36*
X339400Y173100D02*
X350600Y161900D01*
D38*
X134800Y66500D03*
X117700Y66100D03*
X101100Y65800D03*
X99200Y52600D03*
X81700Y25000D03*
X118700Y23200D03*
X100600Y25300D03*
X88900Y40800D03*
D37*
X172500Y130900D02*
X245300Y130900D01*
X174200Y132600D02*
X174200Y149800D01*
X174200Y132600D02*
X172500Y130900D01*
D38*
X184200Y130100D03*
X318000Y192700D03*
X343000Y185200D03*
X358000Y165200D03*
X369000Y146100D03*
X541900Y147600D03*
X576200Y147300D03*
X611000Y147500D03*
D34*
X542000Y147500D02*
X541900Y147600D01*
X542000Y147500D02*
X542000Y135500D01*
X576200Y135500D02*
X576200Y147300D01*
X611000Y147500D02*
X611000Y135500D01*
X611100Y135400D01*
X81600Y67900D02*
X57200Y67900D01*
X57000Y67700D01*
X31400Y67700D01*
D38*
X137900Y22600D03*
D34*
X82000Y67500D02*
X81600Y67900D01*
D38*
X15900Y63600D03*
X70400Y40900D03*
X419000Y362200D03*
D39*
X430300Y367000D02*
X440500Y367000D01*
X430300Y367000D02*
X425600Y362300D01*
X419100Y362300D01*
X419000Y362200D01*
X508000Y329500D02*
X508000Y306400D01*
X500800Y299200D01*
X497700Y296100D02*
X497700Y274400D01*
X463000Y442800D02*
X463100Y442900D01*
X463000Y442500D02*
X463000Y419500D01*
X463000Y442500D02*
X463000Y442800D01*
X463100Y442900D01*
X463000Y419500D02*
X463000Y387500D01*
X463000Y380400D01*
D38*
X463000Y380400D03*
D40*
X161500Y471800D02*
X151800Y471800D01*
X127600Y432600D02*
X127500Y432500D01*
X127600Y432600D02*
X132500Y437500D01*
X132500Y452500D02*
X151800Y471800D01*
X132500Y452500D02*
X132500Y437500D01*
X127600Y432600D02*
X161500Y432600D01*
X127600Y432600D02*
X127500Y432500D01*
X151600Y395900D02*
X161500Y395900D01*
X151600Y395900D02*
X132500Y415000D01*
X132500Y427700D02*
X127600Y432600D01*
X132500Y427700D02*
X132500Y415000D01*
D38*
X127600Y432600D03*
D39*
X530500Y397000D02*
X547300Y397000D01*
X554000Y403700D01*
X530500Y397000D02*
X472500Y397000D01*
X463000Y387500D01*
D38*
X652700Y101100D03*
X670200Y101100D03*
X690200Y101100D03*
X680200Y88600D03*
X662700Y88600D03*
X652700Y76100D03*
X670200Y76100D03*
X690200Y76100D03*
X700200Y63600D03*
X665200Y18600D03*
X702700Y18600D03*
X665200Y63600D03*
X727700Y63600D03*
X730200Y18600D03*
D41*
X670200Y101100D02*
X670200Y169800D01*
D38*
X485000Y192500D03*
D41*
X647500Y192500D02*
X670200Y169800D01*
X647500Y192500D02*
X485000Y192500D01*
D38*
X475000Y207500D03*
X467500Y195000D03*
X475000Y180000D03*
X492500Y177500D03*
X512500Y180000D03*
X495000Y207500D03*
X502500Y195000D03*
X117700Y81100D03*
D39*
X462980Y442520D02*
X462980Y464700D01*
X462980Y442520D02*
X463000Y442500D01*
X497700Y274400D02*
X497700Y210200D01*
X495000Y207500D01*
X463000Y374500D02*
X463000Y380400D01*
X477500Y360000D02*
X492500Y360000D01*
X508000Y344500D01*
X508000Y329500D01*
X477500Y360000D02*
X463000Y374500D01*
X727700Y63600D02*
X732500Y63600D01*
X761700Y211700D02*
X761300Y212100D01*
X777500Y228300D01*
D34*
X689871Y331075D02*
X693996Y335200D01*
X689871Y331075D02*
X661650Y331075D01*
X761600Y109700D02*
X761600Y92700D01*
X732500Y63600D01*
X761600Y109700D02*
X777500Y125600D01*
X777500Y195900D02*
X761700Y211700D01*
X777500Y195900D02*
X777500Y125600D01*
X777500Y298500D02*
X761100Y314900D01*
X777500Y298500D02*
X777500Y228300D01*
X777500Y227500D01*
X761700Y211700D01*
X761100Y314900D02*
X777500Y331300D01*
X777500Y447500D01*
X763300Y461700D01*
X733300Y461700D01*
D42*
X693996Y335200D02*
X687500Y328704D01*
D38*
X687500Y317500D03*
X647500Y192500D03*
D42*
X687500Y317500D02*
X687500Y328704D01*
D39*
X478000Y329500D02*
X478000Y323000D01*
D38*
X470800Y313300D03*
X551400Y158800D03*
D39*
X551400Y135600D01*
X470800Y315800D02*
X478000Y323000D01*
X551400Y135600D02*
X551500Y135500D01*
X470800Y313300D02*
X470800Y315800D01*
D38*
X483100Y313500D03*
X585800Y158700D03*
D39*
X585700Y158600D01*
X585700Y135500D01*
X483100Y313500D02*
X483100Y329400D01*
X483000Y329500D01*
X488000Y329500D02*
X488000Y320600D01*
X494800Y313800D01*
D38*
X494800Y313800D03*
X620700Y158600D03*
D39*
X620700Y135500D01*
X620600Y135400D01*
X548000Y357000D02*
X530500Y357000D01*
X548000Y357000D02*
X555000Y350000D01*
X555000Y338400D01*
X588400Y305000D01*
X746200Y345000D02*
X761100Y359900D01*
X692500Y305000D02*
X588400Y305000D01*
X692500Y305000D02*
X732500Y345000D01*
X746200Y345000D01*
X543000Y352000D02*
X530500Y352000D01*
X543000Y352000D02*
X550000Y345000D01*
X550000Y335000D01*
X751700Y247500D02*
X761300Y257100D01*
X637500Y247500D02*
X550000Y335000D01*
X637500Y247500D02*
X751700Y247500D01*
X538300Y347000D02*
X530500Y347000D01*
X538300Y347000D02*
X543900Y341400D01*
X543900Y331100D01*
X635000Y240000D02*
X665000Y240000D01*
X635000Y240000D02*
X543900Y331100D01*
X665000Y240000D02*
X707500Y197500D01*
X707500Y157500D02*
X725000Y140000D01*
X746900Y140000D02*
X761600Y154700D01*
X707500Y157500D02*
X707500Y197500D01*
X725000Y140000D02*
X746900Y140000D01*
D43*
X82000Y117280D02*
X81580Y117700D01*
X82000Y117280D02*
X82000Y97500D01*
D34*
X58400Y99100D02*
X58400Y119480D01*
X58400Y99100D02*
X57000Y97700D01*
X31700Y98000D02*
X31700Y119480D01*
X31700Y98000D02*
X31400Y97700D01*
D38*
X390000Y287500D03*
D39*
X410200Y267300D01*
X418500Y267300D01*
X448500Y267300D02*
X457300Y267300D01*
X462500Y306600D02*
X461700Y307400D01*
D38*
X461700Y307400D03*
D39*
X462500Y272500D02*
X457300Y267300D01*
X462500Y272500D02*
X462500Y306600D01*
X530500Y377000D02*
X545500Y377000D01*
X577500Y345000D01*
X650175Y345000D01*
X661650Y356475D01*
D38*
X366400Y302600D03*
D39*
X375000Y294000D02*
X418500Y294000D01*
X375000Y294000D02*
X366400Y302600D01*
X448500Y306000D02*
X448500Y294000D01*
X448500Y306000D02*
X450000Y307500D01*
D38*
X450000Y307500D03*
D39*
X530500Y372000D02*
X543000Y372000D01*
X562500Y352500D01*
X562500Y342500D01*
X573925Y331075D02*
X585450Y331075D01*
X573925Y331075D02*
X562500Y342500D01*
X636300Y356525D02*
X636300Y386580D01*
X636300Y356525D02*
X636250Y356475D01*
D40*
X218880Y471800D02*
X191500Y471800D01*
X218880Y471800D02*
X219980Y472900D01*
X218880Y432600D02*
X191500Y432600D01*
X218880Y432600D02*
X219980Y433700D01*
X192600Y397000D02*
X191500Y395900D01*
X192600Y397000D02*
X219980Y397000D01*
D39*
X430683Y392000D02*
X440500Y392000D01*
X430683Y392000D02*
X410183Y412500D01*
X290000Y412500D01*
X268800Y433700D01*
X248420Y433700D01*
X398100Y432500D02*
X433600Y397000D01*
X398100Y432500D02*
X300000Y432500D01*
X260000Y472500D01*
X248820Y472500D01*
X248420Y472900D01*
X433600Y397000D02*
X440500Y397000D01*
X250420Y395000D02*
X248420Y397000D01*
X425500Y387000D02*
X440500Y387000D01*
X425500Y387000D02*
X417500Y395000D01*
X250420Y395000D01*
D38*
X424600Y370600D03*
D39*
X426000Y372000D02*
X440500Y372000D01*
X426000Y372000D02*
X424600Y370600D01*
D40*
X59000Y380000D02*
X38600Y400400D01*
X59000Y380000D02*
X110000Y380000D01*
X137500Y352500D01*
X137500Y315000D01*
X151000Y301500D01*
X162000Y301500D01*
X231500Y301500D01*
X302500Y372500D01*
X380000Y372500D01*
X387500Y380000D01*
D38*
X387500Y380000D03*
X412100Y387500D03*
D39*
X417600Y382000D02*
X440500Y382000D01*
X417600Y382000D02*
X412100Y387500D01*
D38*
X412200Y371200D03*
D39*
X417900Y377000D02*
X440500Y377000D01*
X417900Y377000D02*
X412200Y371300D01*
X412200Y371200D01*
X478000Y419500D02*
X478000Y430500D01*
X491420Y443920D01*
X491420Y464700D01*
X513000Y428000D02*
X513000Y419500D01*
X513000Y428000D02*
X530000Y445000D01*
X696200Y436300D02*
X733300Y436300D01*
X624500Y445000D02*
X530000Y445000D01*
X637264Y432236D02*
X692136Y432236D01*
X637264Y432236D02*
X624500Y445000D01*
X692136Y432236D02*
X696200Y436300D01*
X540500Y392000D02*
X530500Y392000D01*
X540500Y392000D02*
X542500Y390000D01*
X585000Y390000D01*
X595480Y400480D02*
X613800Y400480D01*
X595480Y400480D02*
X585000Y390000D01*
X613800Y400480D02*
X722880Y400480D01*
X733300Y410900D01*
D36*
X191450Y193850D02*
X186350Y193850D01*
X174200Y181700D02*
X174200Y177800D01*
X174200Y181700D02*
X186350Y193850D01*
X204800Y237700D02*
X164300Y237700D01*
X204800Y237700D02*
X217500Y225000D01*
X217500Y214900D02*
X215950Y213350D01*
X217500Y214900D02*
X217500Y225000D01*
X191450Y206850D02*
X167150Y206850D01*
X164300Y209700D01*
D37*
X163790Y209190D02*
X106690Y209190D01*
X90000Y192500D01*
X62300Y192500D01*
X61500Y193300D01*
X163790Y209190D02*
X164300Y209700D01*
D43*
X215950Y193850D02*
X256350Y193850D01*
X273800Y211300D02*
X273800Y259480D01*
X273800Y211300D02*
X256350Y193850D01*
X247850Y200350D02*
X215950Y200350D01*
X252100Y204600D02*
X252100Y259480D01*
X252100Y204600D02*
X247850Y200350D01*
D37*
X252100Y259480D02*
X238020Y259480D01*
X232500Y265000D01*
X213320Y265000D01*
X212920Y264600D01*
D36*
X288850Y123650D02*
X288850Y119650D01*
X281600Y130900D02*
X273300Y130900D01*
X281600Y130900D02*
X288850Y123650D01*
D35*
X332500Y148900D02*
X332700Y149100D01*
X332500Y148900D02*
X332500Y145000D01*
D36*
X317500Y92650D02*
X310850Y92650D01*
X317500Y92650D02*
X320150Y92650D01*
X332500Y105000D01*
X332500Y145000D01*
X308350Y95150D02*
X310850Y92650D01*
D37*
X303800Y215600D02*
X312400Y224200D01*
D36*
X301854Y119654D02*
X301850Y119650D01*
X301854Y119654D02*
X301854Y126892D01*
X304700Y129738D02*
X304700Y149100D01*
X304700Y129738D02*
X301854Y126892D01*
D37*
X303800Y150000D02*
X303800Y215600D01*
X303800Y150000D02*
X304700Y149100D01*
D35*
X345000Y30460D02*
X346860Y30460D01*
D43*
X289074Y58426D02*
X289074Y94926D01*
X289074Y58426D02*
X317040Y30460D01*
X345000Y30460D01*
X289074Y94926D02*
X288850Y95150D01*
D35*
X340000Y52430D02*
X347020Y52430D01*
D43*
X295350Y95150D02*
X295000Y94800D01*
X295000Y62500D01*
X305070Y52430D02*
X340000Y52430D01*
X305070Y52430D02*
X295000Y62500D01*
D36*
X347020Y94400D02*
X350600Y97980D01*
X347020Y94400D02*
X347020Y52430D01*
X232180Y206850D02*
X215950Y206850D01*
X232180Y206850D02*
X236650Y211320D01*
D35*
X301850Y80000D02*
X301850Y79870D01*
X306720Y75000D01*
D36*
X301850Y80000D02*
X301850Y95150D01*
D37*
X380000Y231700D02*
X384000Y231700D01*
X380000Y231700D02*
X350400Y231700D01*
X384000Y217500D02*
X384000Y60970D01*
X384000Y217500D02*
X384000Y227500D01*
X384000Y231700D01*
X350400Y231700D02*
X342900Y224200D01*
X350100Y217000D02*
X368100Y217000D01*
X350100Y217000D02*
X342900Y224200D01*
D38*
X561000Y93900D03*
X595500Y94100D03*
X630000Y94200D03*
D34*
X630100Y94300D02*
X630100Y108400D01*
X630100Y94300D02*
X630000Y94200D01*
X595200Y94400D02*
X595200Y108500D01*
X595200Y94400D02*
X595500Y94100D01*
X561000Y93900D02*
X561000Y108500D01*
D38*
X387700Y217100D03*
X387100Y235600D03*
X368100Y235800D03*
X69900Y167200D03*
D34*
X58400Y155700D01*
X58400Y147920D01*
D38*
X528600Y93800D03*
D37*
X507700Y93800D01*
X384000Y217500D01*
X384000Y60970D02*
X375460Y52430D01*
X375300Y30460D01*
D35*
X523900Y296100D02*
X525700Y296100D01*
D37*
X273800Y287920D02*
X252100Y287920D01*
X84700Y249700D02*
X74300Y239300D01*
X84700Y249700D02*
X84700Y264700D01*
X74300Y239300D02*
X61500Y239300D01*
X44700Y264700D02*
X84700Y264700D01*
X44700Y264700D02*
X40000Y260000D01*
X42500Y257500D01*
X42500Y242500D01*
D38*
X87500Y285000D03*
X70000Y285000D03*
X37500Y285000D03*
X37500Y262500D03*
X52500Y262500D03*
D37*
X251680Y287500D02*
X252100Y287920D01*
X84700Y279700D02*
X84700Y264700D01*
X92500Y287500D02*
X251680Y287500D01*
X92500Y287500D02*
X84700Y279700D01*
D38*
X42200Y167100D03*
D34*
X31700Y156600D01*
X31700Y147920D01*
D38*
X414100Y334900D03*
D39*
X434500Y362000D02*
X440500Y362000D01*
X434500Y362000D02*
X425000Y352500D01*
X425000Y345000D01*
X414900Y334900D01*
X414100Y334900D01*
D38*
X539800Y414700D03*
X70000Y300000D03*
X87500Y300000D03*
D39*
X513000Y307000D02*
X513000Y329500D01*
X513000Y307000D02*
X523900Y296100D01*
X525700Y296100D02*
X525700Y274400D01*
X440500Y402000D02*
X435500Y402000D01*
X432500Y405000D02*
X432500Y412500D01*
X432500Y405000D02*
X435500Y402000D01*
X458000Y419500D02*
X458000Y425500D01*
X456000Y427500D01*
X435100Y415100D02*
X432500Y412500D01*
X435100Y415100D02*
X435100Y422500D01*
D38*
X435000Y427500D03*
D39*
X456000Y427500D01*
X435100Y422500D02*
X435000Y422600D01*
X435000Y427500D01*
X435000Y442800D02*
X435100Y442900D01*
X530500Y402000D02*
X537000Y402000D01*
X540000Y405000D01*
X540000Y414500D01*
X539800Y414700D01*
X540000Y414900D01*
X540000Y427500D01*
X544200Y431700D01*
X554000Y431700D01*
X611020Y431700D01*
X613800Y428920D01*
X622400Y428920D01*
X636300Y415020D01*
D38*
X667500Y385000D03*
D44*
X672500Y385000D01*
X693996Y363504D01*
X693996Y363200D01*
D39*
X513000Y364500D02*
X513000Y329500D01*
X513000Y364500D02*
X502500Y375000D01*
D38*
X502500Y375000D03*
D39*
X435000Y427500D02*
X435000Y442800D01*
D35*
X289700Y173100D02*
X289700Y172500D01*
D36*
X295350Y132150D02*
X295350Y119650D01*
X295350Y132150D02*
X289700Y137800D01*
X289700Y172500D01*
X122300Y117700D02*
X112500Y117700D01*
X110020Y117700D01*
X182850Y200350D02*
X191450Y200350D01*
X182850Y200350D02*
X177500Y195000D01*
X140100Y195000D01*
X139800Y194700D01*
D37*
X217570Y163800D02*
X236650Y182880D01*
X217570Y163800D02*
X148800Y163800D01*
X145000Y160000D01*
X140000Y155000D01*
X140000Y110000D01*
X140000Y155000D02*
X139800Y155200D01*
X139800Y162500D01*
X139800Y170000D01*
X139800Y194700D01*
X139800Y170000D02*
X146000Y163800D01*
X148800Y163800D01*
X145000Y160000D02*
X142500Y162500D01*
X139800Y162500D01*
D34*
X278100Y173100D02*
X289700Y173100D01*
X259580Y154580D02*
X259580Y93700D01*
X259580Y154580D02*
X278100Y173100D01*
X259580Y93700D02*
X240880Y75000D01*
X235880Y75000D02*
X205880Y45000D01*
X240880Y75000D02*
X278280Y75000D01*
D38*
X162500Y55000D03*
X178200Y68600D03*
X195700Y56100D03*
X208200Y43600D03*
X208200Y63600D03*
X408200Y41100D03*
X413200Y58600D03*
X433200Y66100D03*
X468200Y66100D03*
X500700Y66100D03*
X500700Y17600D03*
X468200Y18600D03*
X433200Y18600D03*
D34*
X240880Y75000D02*
X235880Y75000D01*
D37*
X140000Y97500D02*
X140000Y110000D01*
D36*
X140000Y100000D02*
X140000Y97500D01*
D38*
X195700Y26100D03*
X178200Y18600D03*
X163200Y26100D03*
X195700Y76100D03*
D36*
X140000Y100000D02*
X122300Y117700D01*
D37*
X140000Y97500D02*
X140244Y97500D01*
X169144Y68600D02*
X178200Y68600D01*
X169144Y68600D02*
X140244Y97500D01*
D45*
X769400Y28800D03*
D46*
X32000Y28300D03*
X32000Y460800D03*
X650100Y460800D03*
M02*
