G04 EAGLE Gerber X2 export*
%TF.Part,Single*%
%TF.FileFunction,Legend,Bot,1*%
%TF.FilePolarity,Positive*%
%TF.GenerationSoftware,Autodesk,EAGLE,9.1.1*%
%TF.CreationDate,2018-07-30T19:22:14Z*%
G75*
%MOMM*%
%FSLAX34Y34*%
%LPD*%
%AMOC8*
5,1,8,0,0,1.08239X$1,22.5*%
G01*
%ADD10C,0.152400*%
%ADD11C,0.101600*%


D10*
X283718Y445770D02*
X283718Y462026D01*
X278299Y452995D01*
X272881Y462026D01*
X272881Y445770D01*
X262672Y452092D02*
X258608Y452092D01*
X262672Y452092D02*
X262784Y452090D01*
X262895Y452084D01*
X263006Y452074D01*
X263117Y452061D01*
X263227Y452043D01*
X263336Y452021D01*
X263445Y451996D01*
X263553Y451967D01*
X263659Y451934D01*
X263765Y451897D01*
X263869Y451857D01*
X263971Y451813D01*
X264072Y451765D01*
X264171Y451714D01*
X264269Y451659D01*
X264364Y451601D01*
X264457Y451540D01*
X264548Y451475D01*
X264637Y451407D01*
X264723Y451336D01*
X264806Y451263D01*
X264887Y451186D01*
X264966Y451106D01*
X265041Y451024D01*
X265113Y450939D01*
X265183Y450852D01*
X265249Y450762D01*
X265312Y450670D01*
X265372Y450575D01*
X265428Y450479D01*
X265481Y450381D01*
X265530Y450281D01*
X265576Y450179D01*
X265618Y450076D01*
X265657Y449971D01*
X265692Y449865D01*
X265723Y449758D01*
X265750Y449650D01*
X265774Y449541D01*
X265793Y449431D01*
X265809Y449321D01*
X265821Y449210D01*
X265829Y449098D01*
X265833Y448987D01*
X265833Y448875D01*
X265829Y448764D01*
X265821Y448652D01*
X265809Y448541D01*
X265793Y448431D01*
X265774Y448321D01*
X265750Y448212D01*
X265723Y448104D01*
X265692Y447997D01*
X265657Y447891D01*
X265618Y447786D01*
X265576Y447683D01*
X265530Y447581D01*
X265481Y447481D01*
X265428Y447383D01*
X265372Y447287D01*
X265312Y447192D01*
X265249Y447100D01*
X265183Y447010D01*
X265113Y446923D01*
X265041Y446838D01*
X264966Y446756D01*
X264887Y446676D01*
X264806Y446599D01*
X264723Y446526D01*
X264637Y446455D01*
X264548Y446387D01*
X264457Y446322D01*
X264364Y446261D01*
X264269Y446203D01*
X264171Y446148D01*
X264072Y446097D01*
X263971Y446049D01*
X263869Y446005D01*
X263765Y445965D01*
X263659Y445928D01*
X263553Y445895D01*
X263445Y445866D01*
X263336Y445841D01*
X263227Y445819D01*
X263117Y445801D01*
X263006Y445788D01*
X262895Y445778D01*
X262784Y445772D01*
X262672Y445770D01*
X258608Y445770D01*
X258608Y453898D01*
X258610Y453999D01*
X258616Y454100D01*
X258625Y454201D01*
X258638Y454302D01*
X258655Y454402D01*
X258676Y454501D01*
X258700Y454599D01*
X258728Y454696D01*
X258760Y454793D01*
X258795Y454888D01*
X258834Y454981D01*
X258876Y455073D01*
X258922Y455164D01*
X258971Y455253D01*
X259023Y455339D01*
X259079Y455424D01*
X259137Y455507D01*
X259199Y455587D01*
X259264Y455665D01*
X259331Y455741D01*
X259401Y455814D01*
X259474Y455884D01*
X259550Y455951D01*
X259628Y456016D01*
X259708Y456078D01*
X259791Y456136D01*
X259876Y456192D01*
X259963Y456244D01*
X260051Y456293D01*
X260142Y456339D01*
X260234Y456381D01*
X260327Y456420D01*
X260422Y456455D01*
X260519Y456487D01*
X260616Y456515D01*
X260714Y456539D01*
X260813Y456560D01*
X260913Y456577D01*
X261014Y456590D01*
X261115Y456599D01*
X261216Y456605D01*
X261317Y456607D01*
X264930Y456607D01*
X244540Y462026D02*
X244540Y445770D01*
X249055Y445770D01*
X249156Y445772D01*
X249257Y445778D01*
X249358Y445787D01*
X249459Y445800D01*
X249559Y445817D01*
X249658Y445838D01*
X249756Y445862D01*
X249853Y445890D01*
X249950Y445922D01*
X250045Y445957D01*
X250138Y445996D01*
X250230Y446038D01*
X250321Y446084D01*
X250410Y446133D01*
X250496Y446185D01*
X250581Y446241D01*
X250664Y446299D01*
X250744Y446361D01*
X250822Y446426D01*
X250898Y446493D01*
X250971Y446563D01*
X251041Y446636D01*
X251108Y446712D01*
X251173Y446790D01*
X251235Y446870D01*
X251293Y446953D01*
X251349Y447038D01*
X251401Y447125D01*
X251450Y447213D01*
X251496Y447304D01*
X251538Y447396D01*
X251577Y447489D01*
X251612Y447584D01*
X251644Y447681D01*
X251672Y447778D01*
X251696Y447876D01*
X251717Y447975D01*
X251734Y448075D01*
X251747Y448176D01*
X251756Y448277D01*
X251762Y448378D01*
X251764Y448479D01*
X251765Y448479D02*
X251765Y453898D01*
X251764Y453898D02*
X251762Y453999D01*
X251756Y454100D01*
X251747Y454201D01*
X251734Y454302D01*
X251717Y454402D01*
X251696Y454501D01*
X251672Y454599D01*
X251644Y454696D01*
X251612Y454793D01*
X251577Y454888D01*
X251538Y454981D01*
X251496Y455073D01*
X251450Y455164D01*
X251401Y455253D01*
X251349Y455339D01*
X251293Y455424D01*
X251235Y455507D01*
X251173Y455587D01*
X251108Y455665D01*
X251041Y455741D01*
X250971Y455814D01*
X250898Y455884D01*
X250822Y455951D01*
X250744Y456016D01*
X250664Y456078D01*
X250581Y456136D01*
X250496Y456192D01*
X250410Y456244D01*
X250321Y456293D01*
X250230Y456339D01*
X250138Y456381D01*
X250045Y456420D01*
X249950Y456455D01*
X249853Y456487D01*
X249756Y456515D01*
X249658Y456539D01*
X249559Y456560D01*
X249459Y456577D01*
X249358Y456590D01*
X249257Y456599D01*
X249156Y456605D01*
X249055Y456607D01*
X244540Y456607D01*
X234914Y445770D02*
X230398Y445770D01*
X234914Y445770D02*
X235015Y445772D01*
X235116Y445778D01*
X235217Y445787D01*
X235318Y445800D01*
X235418Y445817D01*
X235517Y445838D01*
X235615Y445862D01*
X235712Y445890D01*
X235809Y445922D01*
X235904Y445957D01*
X235997Y445996D01*
X236089Y446038D01*
X236180Y446084D01*
X236269Y446133D01*
X236355Y446185D01*
X236440Y446241D01*
X236523Y446299D01*
X236603Y446361D01*
X236681Y446426D01*
X236757Y446493D01*
X236830Y446563D01*
X236900Y446636D01*
X236967Y446712D01*
X237032Y446790D01*
X237094Y446870D01*
X237152Y446953D01*
X237208Y447038D01*
X237260Y447125D01*
X237309Y447213D01*
X237355Y447304D01*
X237397Y447396D01*
X237436Y447489D01*
X237471Y447584D01*
X237503Y447681D01*
X237531Y447778D01*
X237555Y447876D01*
X237576Y447975D01*
X237593Y448075D01*
X237606Y448176D01*
X237615Y448277D01*
X237621Y448378D01*
X237623Y448479D01*
X237623Y452995D01*
X237621Y453114D01*
X237615Y453234D01*
X237605Y453353D01*
X237591Y453471D01*
X237574Y453590D01*
X237552Y453707D01*
X237527Y453824D01*
X237497Y453939D01*
X237464Y454054D01*
X237427Y454168D01*
X237387Y454280D01*
X237342Y454391D01*
X237294Y454500D01*
X237243Y454608D01*
X237188Y454714D01*
X237129Y454818D01*
X237067Y454920D01*
X237002Y455020D01*
X236933Y455118D01*
X236861Y455214D01*
X236786Y455307D01*
X236709Y455397D01*
X236628Y455485D01*
X236544Y455570D01*
X236457Y455652D01*
X236368Y455732D01*
X236276Y455808D01*
X236182Y455882D01*
X236085Y455952D01*
X235987Y456019D01*
X235886Y456083D01*
X235782Y456143D01*
X235677Y456200D01*
X235570Y456253D01*
X235462Y456303D01*
X235352Y456349D01*
X235240Y456391D01*
X235127Y456430D01*
X235013Y456465D01*
X234898Y456496D01*
X234781Y456524D01*
X234664Y456547D01*
X234547Y456567D01*
X234428Y456583D01*
X234309Y456595D01*
X234190Y456603D01*
X234071Y456607D01*
X233951Y456607D01*
X233832Y456603D01*
X233713Y456595D01*
X233594Y456583D01*
X233475Y456567D01*
X233358Y456547D01*
X233241Y456524D01*
X233124Y456496D01*
X233009Y456465D01*
X232895Y456430D01*
X232782Y456391D01*
X232670Y456349D01*
X232560Y456303D01*
X232452Y456253D01*
X232345Y456200D01*
X232240Y456143D01*
X232136Y456083D01*
X232035Y456019D01*
X231937Y455952D01*
X231840Y455882D01*
X231746Y455808D01*
X231654Y455732D01*
X231565Y455652D01*
X231478Y455570D01*
X231394Y455485D01*
X231313Y455397D01*
X231236Y455307D01*
X231161Y455214D01*
X231089Y455118D01*
X231020Y455020D01*
X230955Y454920D01*
X230893Y454818D01*
X230834Y454714D01*
X230779Y454608D01*
X230728Y454500D01*
X230680Y454391D01*
X230635Y454280D01*
X230595Y454168D01*
X230558Y454054D01*
X230525Y453939D01*
X230495Y453824D01*
X230470Y453707D01*
X230448Y453590D01*
X230431Y453471D01*
X230417Y453353D01*
X230407Y453234D01*
X230401Y453114D01*
X230399Y452995D01*
X230398Y452995D02*
X230398Y451189D01*
X237623Y451189D01*
X215145Y445770D02*
X215145Y462026D01*
X215145Y445770D02*
X210630Y445770D01*
X210526Y445772D01*
X210423Y445778D01*
X210319Y445788D01*
X210216Y445802D01*
X210114Y445820D01*
X210013Y445841D01*
X209912Y445867D01*
X209813Y445896D01*
X209714Y445929D01*
X209617Y445966D01*
X209522Y446007D01*
X209428Y446051D01*
X209336Y446099D01*
X209246Y446150D01*
X209157Y446205D01*
X209071Y446263D01*
X208988Y446325D01*
X208906Y446389D01*
X208828Y446457D01*
X208752Y446527D01*
X208678Y446600D01*
X208608Y446677D01*
X208540Y446755D01*
X208476Y446837D01*
X208414Y446920D01*
X208356Y447006D01*
X208301Y447095D01*
X208250Y447185D01*
X208202Y447277D01*
X208158Y447371D01*
X208117Y447466D01*
X208080Y447563D01*
X208047Y447662D01*
X208018Y447761D01*
X207992Y447862D01*
X207971Y447963D01*
X207953Y448065D01*
X207939Y448168D01*
X207929Y448272D01*
X207923Y448375D01*
X207921Y448479D01*
X207920Y448479D02*
X207920Y453898D01*
X207921Y453898D02*
X207923Y453999D01*
X207929Y454100D01*
X207938Y454201D01*
X207951Y454302D01*
X207968Y454402D01*
X207989Y454501D01*
X208013Y454599D01*
X208041Y454696D01*
X208073Y454793D01*
X208108Y454888D01*
X208147Y454981D01*
X208189Y455073D01*
X208235Y455164D01*
X208284Y455253D01*
X208336Y455339D01*
X208392Y455424D01*
X208450Y455507D01*
X208512Y455587D01*
X208577Y455665D01*
X208644Y455741D01*
X208714Y455814D01*
X208787Y455884D01*
X208863Y455951D01*
X208941Y456016D01*
X209021Y456078D01*
X209104Y456136D01*
X209189Y456192D01*
X209276Y456244D01*
X209364Y456293D01*
X209455Y456339D01*
X209547Y456381D01*
X209640Y456420D01*
X209735Y456455D01*
X209832Y456487D01*
X209929Y456515D01*
X210027Y456539D01*
X210126Y456560D01*
X210226Y456577D01*
X210327Y456590D01*
X210428Y456599D01*
X210529Y456605D01*
X210630Y456607D01*
X215145Y456607D01*
X202193Y440351D02*
X200386Y440351D01*
X194968Y456607D01*
X202193Y456607D02*
X198580Y445770D01*
X283718Y429514D02*
X283718Y413258D01*
X283718Y429514D02*
X279202Y429514D01*
X279071Y429512D01*
X278939Y429506D01*
X278808Y429497D01*
X278678Y429483D01*
X278547Y429466D01*
X278418Y429445D01*
X278289Y429421D01*
X278161Y429392D01*
X278033Y429360D01*
X277907Y429324D01*
X277782Y429285D01*
X277657Y429242D01*
X277535Y429195D01*
X277413Y429145D01*
X277293Y429091D01*
X277175Y429034D01*
X277059Y428973D01*
X276944Y428909D01*
X276831Y428842D01*
X276720Y428771D01*
X276612Y428697D01*
X276505Y428620D01*
X276401Y428540D01*
X276299Y428457D01*
X276200Y428372D01*
X276103Y428283D01*
X276009Y428191D01*
X275917Y428097D01*
X275828Y428000D01*
X275743Y427901D01*
X275660Y427799D01*
X275580Y427695D01*
X275503Y427588D01*
X275429Y427480D01*
X275358Y427369D01*
X275291Y427256D01*
X275227Y427141D01*
X275166Y427025D01*
X275109Y426907D01*
X275055Y426787D01*
X275005Y426665D01*
X274958Y426543D01*
X274915Y426418D01*
X274876Y426293D01*
X274840Y426167D01*
X274808Y426039D01*
X274779Y425911D01*
X274755Y425782D01*
X274734Y425653D01*
X274717Y425522D01*
X274703Y425392D01*
X274694Y425261D01*
X274688Y425129D01*
X274686Y424998D01*
X274687Y424998D02*
X274687Y417774D01*
X274686Y417774D02*
X274688Y417643D01*
X274694Y417511D01*
X274703Y417380D01*
X274717Y417250D01*
X274734Y417119D01*
X274755Y416990D01*
X274779Y416861D01*
X274808Y416733D01*
X274840Y416605D01*
X274876Y416479D01*
X274915Y416354D01*
X274958Y416229D01*
X275005Y416107D01*
X275055Y415985D01*
X275109Y415865D01*
X275166Y415747D01*
X275227Y415631D01*
X275291Y415516D01*
X275358Y415403D01*
X275429Y415292D01*
X275503Y415184D01*
X275580Y415077D01*
X275660Y414973D01*
X275743Y414871D01*
X275828Y414772D01*
X275917Y414675D01*
X276009Y414581D01*
X276103Y414489D01*
X276200Y414400D01*
X276299Y414315D01*
X276401Y414232D01*
X276505Y414152D01*
X276612Y414075D01*
X276720Y414001D01*
X276831Y413930D01*
X276944Y413863D01*
X277059Y413799D01*
X277175Y413738D01*
X277293Y413681D01*
X277413Y413627D01*
X277535Y413577D01*
X277657Y413530D01*
X277782Y413487D01*
X277907Y413448D01*
X278033Y413412D01*
X278161Y413380D01*
X278289Y413351D01*
X278418Y413327D01*
X278547Y413306D01*
X278678Y413289D01*
X278808Y413275D01*
X278939Y413266D01*
X279071Y413260D01*
X279202Y413258D01*
X283718Y413258D01*
X264617Y419580D02*
X260553Y419580D01*
X264617Y419580D02*
X264729Y419578D01*
X264840Y419572D01*
X264951Y419562D01*
X265062Y419549D01*
X265172Y419531D01*
X265281Y419509D01*
X265390Y419484D01*
X265498Y419455D01*
X265604Y419422D01*
X265710Y419385D01*
X265814Y419345D01*
X265916Y419301D01*
X266017Y419253D01*
X266116Y419202D01*
X266214Y419147D01*
X266309Y419089D01*
X266402Y419028D01*
X266493Y418963D01*
X266582Y418895D01*
X266668Y418824D01*
X266751Y418751D01*
X266832Y418674D01*
X266911Y418594D01*
X266986Y418512D01*
X267058Y418427D01*
X267128Y418340D01*
X267194Y418250D01*
X267257Y418158D01*
X267317Y418063D01*
X267373Y417967D01*
X267426Y417869D01*
X267475Y417769D01*
X267521Y417667D01*
X267563Y417564D01*
X267602Y417459D01*
X267637Y417353D01*
X267668Y417246D01*
X267695Y417138D01*
X267719Y417029D01*
X267738Y416919D01*
X267754Y416809D01*
X267766Y416698D01*
X267774Y416586D01*
X267778Y416475D01*
X267778Y416363D01*
X267774Y416252D01*
X267766Y416140D01*
X267754Y416029D01*
X267738Y415919D01*
X267719Y415809D01*
X267695Y415700D01*
X267668Y415592D01*
X267637Y415485D01*
X267602Y415379D01*
X267563Y415274D01*
X267521Y415171D01*
X267475Y415069D01*
X267426Y414969D01*
X267373Y414871D01*
X267317Y414775D01*
X267257Y414680D01*
X267194Y414588D01*
X267128Y414498D01*
X267058Y414411D01*
X266986Y414326D01*
X266911Y414244D01*
X266832Y414164D01*
X266751Y414087D01*
X266668Y414014D01*
X266582Y413943D01*
X266493Y413875D01*
X266402Y413810D01*
X266309Y413749D01*
X266214Y413691D01*
X266116Y413636D01*
X266017Y413585D01*
X265916Y413537D01*
X265814Y413493D01*
X265710Y413453D01*
X265604Y413416D01*
X265498Y413383D01*
X265390Y413354D01*
X265281Y413329D01*
X265172Y413307D01*
X265062Y413289D01*
X264951Y413276D01*
X264840Y413266D01*
X264729Y413260D01*
X264617Y413258D01*
X260553Y413258D01*
X260553Y421386D01*
X260555Y421487D01*
X260561Y421588D01*
X260570Y421689D01*
X260583Y421790D01*
X260600Y421890D01*
X260621Y421989D01*
X260645Y422087D01*
X260673Y422184D01*
X260705Y422281D01*
X260740Y422376D01*
X260779Y422469D01*
X260821Y422561D01*
X260867Y422652D01*
X260916Y422741D01*
X260968Y422827D01*
X261024Y422912D01*
X261082Y422995D01*
X261144Y423075D01*
X261209Y423153D01*
X261276Y423229D01*
X261346Y423302D01*
X261419Y423372D01*
X261495Y423439D01*
X261573Y423504D01*
X261653Y423566D01*
X261736Y423624D01*
X261821Y423680D01*
X261908Y423732D01*
X261996Y423781D01*
X262087Y423827D01*
X262179Y423869D01*
X262272Y423908D01*
X262367Y423943D01*
X262464Y423975D01*
X262561Y424003D01*
X262659Y424027D01*
X262758Y424048D01*
X262858Y424065D01*
X262959Y424078D01*
X263060Y424087D01*
X263161Y424093D01*
X263262Y424095D01*
X266875Y424095D01*
X253116Y424095D02*
X253116Y413258D01*
X253116Y424095D02*
X248600Y424095D01*
X248496Y424093D01*
X248393Y424087D01*
X248289Y424077D01*
X248186Y424063D01*
X248084Y424045D01*
X247983Y424024D01*
X247882Y423998D01*
X247783Y423969D01*
X247684Y423936D01*
X247587Y423899D01*
X247492Y423858D01*
X247398Y423814D01*
X247306Y423766D01*
X247216Y423715D01*
X247127Y423660D01*
X247041Y423602D01*
X246958Y423540D01*
X246876Y423476D01*
X246798Y423408D01*
X246722Y423338D01*
X246648Y423265D01*
X246578Y423188D01*
X246510Y423110D01*
X246446Y423028D01*
X246384Y422945D01*
X246326Y422859D01*
X246271Y422770D01*
X246220Y422680D01*
X246172Y422588D01*
X246128Y422494D01*
X246087Y422399D01*
X246050Y422302D01*
X246017Y422203D01*
X245988Y422104D01*
X245962Y422003D01*
X245941Y421902D01*
X245923Y421800D01*
X245909Y421697D01*
X245899Y421593D01*
X245893Y421490D01*
X245891Y421386D01*
X245891Y413258D01*
X239082Y413258D02*
X239082Y424095D01*
X239534Y428611D02*
X239534Y429514D01*
X238631Y429514D01*
X238631Y428611D01*
X239534Y428611D01*
X230086Y413258D02*
X225570Y413258D01*
X230086Y413258D02*
X230187Y413260D01*
X230288Y413266D01*
X230389Y413275D01*
X230490Y413288D01*
X230590Y413305D01*
X230689Y413326D01*
X230787Y413350D01*
X230884Y413378D01*
X230981Y413410D01*
X231076Y413445D01*
X231169Y413484D01*
X231261Y413526D01*
X231352Y413572D01*
X231441Y413621D01*
X231527Y413673D01*
X231612Y413729D01*
X231695Y413787D01*
X231775Y413849D01*
X231853Y413914D01*
X231929Y413981D01*
X232002Y414051D01*
X232072Y414124D01*
X232139Y414200D01*
X232204Y414278D01*
X232266Y414358D01*
X232324Y414441D01*
X232380Y414526D01*
X232432Y414613D01*
X232481Y414701D01*
X232527Y414792D01*
X232569Y414884D01*
X232608Y414977D01*
X232643Y415072D01*
X232675Y415169D01*
X232703Y415266D01*
X232727Y415364D01*
X232748Y415463D01*
X232765Y415563D01*
X232778Y415664D01*
X232787Y415765D01*
X232793Y415866D01*
X232795Y415967D01*
X232795Y420483D01*
X232793Y420602D01*
X232787Y420722D01*
X232777Y420841D01*
X232763Y420959D01*
X232746Y421078D01*
X232724Y421195D01*
X232699Y421312D01*
X232669Y421427D01*
X232636Y421542D01*
X232599Y421656D01*
X232559Y421768D01*
X232514Y421879D01*
X232466Y421988D01*
X232415Y422096D01*
X232360Y422202D01*
X232301Y422306D01*
X232239Y422408D01*
X232174Y422508D01*
X232105Y422606D01*
X232033Y422702D01*
X231958Y422795D01*
X231881Y422885D01*
X231800Y422973D01*
X231716Y423058D01*
X231629Y423140D01*
X231540Y423220D01*
X231448Y423296D01*
X231354Y423370D01*
X231257Y423440D01*
X231159Y423507D01*
X231058Y423571D01*
X230954Y423631D01*
X230849Y423688D01*
X230742Y423741D01*
X230634Y423791D01*
X230524Y423837D01*
X230412Y423879D01*
X230299Y423918D01*
X230185Y423953D01*
X230070Y423984D01*
X229953Y424012D01*
X229836Y424035D01*
X229719Y424055D01*
X229600Y424071D01*
X229481Y424083D01*
X229362Y424091D01*
X229243Y424095D01*
X229123Y424095D01*
X229004Y424091D01*
X228885Y424083D01*
X228766Y424071D01*
X228647Y424055D01*
X228530Y424035D01*
X228413Y424012D01*
X228296Y423984D01*
X228181Y423953D01*
X228067Y423918D01*
X227954Y423879D01*
X227842Y423837D01*
X227732Y423791D01*
X227624Y423741D01*
X227517Y423688D01*
X227412Y423631D01*
X227308Y423571D01*
X227207Y423507D01*
X227109Y423440D01*
X227012Y423370D01*
X226918Y423296D01*
X226826Y423220D01*
X226737Y423140D01*
X226650Y423058D01*
X226566Y422973D01*
X226485Y422885D01*
X226408Y422795D01*
X226333Y422702D01*
X226261Y422606D01*
X226192Y422508D01*
X226127Y422408D01*
X226065Y422306D01*
X226006Y422202D01*
X225951Y422096D01*
X225900Y421988D01*
X225852Y421879D01*
X225807Y421768D01*
X225767Y421656D01*
X225730Y421542D01*
X225697Y421427D01*
X225667Y421312D01*
X225642Y421195D01*
X225620Y421078D01*
X225603Y420959D01*
X225589Y420841D01*
X225579Y420722D01*
X225573Y420602D01*
X225571Y420483D01*
X225570Y420483D02*
X225570Y418677D01*
X232795Y418677D01*
X219011Y415967D02*
X219011Y429514D01*
X219011Y415967D02*
X219009Y415866D01*
X219003Y415765D01*
X218994Y415664D01*
X218981Y415563D01*
X218964Y415463D01*
X218943Y415364D01*
X218919Y415266D01*
X218891Y415169D01*
X218859Y415072D01*
X218824Y414977D01*
X218785Y414884D01*
X218743Y414792D01*
X218697Y414701D01*
X218648Y414613D01*
X218596Y414526D01*
X218540Y414441D01*
X218482Y414358D01*
X218420Y414278D01*
X218355Y414200D01*
X218288Y414124D01*
X218218Y414051D01*
X218145Y413981D01*
X218069Y413914D01*
X217991Y413849D01*
X217911Y413787D01*
X217828Y413729D01*
X217743Y413673D01*
X217657Y413621D01*
X217568Y413572D01*
X217477Y413526D01*
X217385Y413484D01*
X217292Y413445D01*
X217197Y413410D01*
X217100Y413378D01*
X217003Y413350D01*
X216905Y413326D01*
X216806Y413305D01*
X216706Y413288D01*
X216605Y413275D01*
X216504Y413266D01*
X216403Y413260D01*
X216302Y413258D01*
X198962Y413258D02*
X198962Y429514D01*
X194447Y429514D02*
X203478Y429514D01*
X185940Y419580D02*
X181876Y419580D01*
X185940Y419580D02*
X186052Y419578D01*
X186163Y419572D01*
X186274Y419562D01*
X186385Y419549D01*
X186495Y419531D01*
X186604Y419509D01*
X186713Y419484D01*
X186821Y419455D01*
X186927Y419422D01*
X187033Y419385D01*
X187137Y419345D01*
X187239Y419301D01*
X187340Y419253D01*
X187439Y419202D01*
X187537Y419147D01*
X187632Y419089D01*
X187725Y419028D01*
X187816Y418963D01*
X187905Y418895D01*
X187991Y418824D01*
X188074Y418751D01*
X188155Y418674D01*
X188234Y418594D01*
X188309Y418512D01*
X188381Y418427D01*
X188451Y418340D01*
X188517Y418250D01*
X188580Y418158D01*
X188640Y418063D01*
X188696Y417967D01*
X188749Y417869D01*
X188798Y417769D01*
X188844Y417667D01*
X188886Y417564D01*
X188925Y417459D01*
X188960Y417353D01*
X188991Y417246D01*
X189018Y417138D01*
X189042Y417029D01*
X189061Y416919D01*
X189077Y416809D01*
X189089Y416698D01*
X189097Y416586D01*
X189101Y416475D01*
X189101Y416363D01*
X189097Y416252D01*
X189089Y416140D01*
X189077Y416029D01*
X189061Y415919D01*
X189042Y415809D01*
X189018Y415700D01*
X188991Y415592D01*
X188960Y415485D01*
X188925Y415379D01*
X188886Y415274D01*
X188844Y415171D01*
X188798Y415069D01*
X188749Y414969D01*
X188696Y414871D01*
X188640Y414775D01*
X188580Y414680D01*
X188517Y414588D01*
X188451Y414498D01*
X188381Y414411D01*
X188309Y414326D01*
X188234Y414244D01*
X188155Y414164D01*
X188074Y414087D01*
X187991Y414014D01*
X187905Y413943D01*
X187816Y413875D01*
X187725Y413810D01*
X187632Y413749D01*
X187537Y413691D01*
X187439Y413636D01*
X187340Y413585D01*
X187239Y413537D01*
X187137Y413493D01*
X187033Y413453D01*
X186927Y413416D01*
X186821Y413383D01*
X186713Y413354D01*
X186604Y413329D01*
X186495Y413307D01*
X186385Y413289D01*
X186274Y413276D01*
X186163Y413266D01*
X186052Y413260D01*
X185940Y413258D01*
X181876Y413258D01*
X181876Y421386D01*
X181878Y421487D01*
X181884Y421588D01*
X181893Y421689D01*
X181906Y421790D01*
X181923Y421890D01*
X181944Y421989D01*
X181968Y422087D01*
X181996Y422184D01*
X182028Y422281D01*
X182063Y422376D01*
X182102Y422469D01*
X182144Y422561D01*
X182190Y422652D01*
X182239Y422741D01*
X182291Y422827D01*
X182347Y422912D01*
X182405Y422995D01*
X182467Y423075D01*
X182532Y423153D01*
X182599Y423229D01*
X182669Y423302D01*
X182742Y423372D01*
X182818Y423439D01*
X182896Y423504D01*
X182976Y423566D01*
X183059Y423624D01*
X183144Y423680D01*
X183231Y423732D01*
X183319Y423781D01*
X183410Y423827D01*
X183502Y423869D01*
X183595Y423908D01*
X183690Y423943D01*
X183787Y423975D01*
X183884Y424003D01*
X183982Y424027D01*
X184081Y424048D01*
X184181Y424065D01*
X184282Y424078D01*
X184383Y424087D01*
X184484Y424093D01*
X184585Y424095D01*
X188198Y424095D01*
X174354Y424095D02*
X174354Y413258D01*
X174354Y424095D02*
X168935Y424095D01*
X168935Y422289D01*
X279202Y380746D02*
X283718Y380746D01*
X279202Y380746D02*
X279069Y380748D01*
X278937Y380754D01*
X278805Y380764D01*
X278673Y380777D01*
X278541Y380795D01*
X278411Y380816D01*
X278280Y380841D01*
X278151Y380870D01*
X278023Y380903D01*
X277895Y380939D01*
X277769Y380979D01*
X277644Y381023D01*
X277520Y381071D01*
X277398Y381122D01*
X277277Y381177D01*
X277158Y381235D01*
X277040Y381297D01*
X276925Y381362D01*
X276811Y381431D01*
X276700Y381502D01*
X276591Y381578D01*
X276484Y381656D01*
X276379Y381737D01*
X276277Y381822D01*
X276177Y381909D01*
X276080Y381999D01*
X275985Y382092D01*
X275894Y382188D01*
X275805Y382286D01*
X275719Y382387D01*
X275636Y382491D01*
X275556Y382597D01*
X275480Y382705D01*
X275406Y382815D01*
X275336Y382928D01*
X275269Y383042D01*
X275206Y383159D01*
X275146Y383277D01*
X275089Y383397D01*
X275036Y383519D01*
X274987Y383642D01*
X274941Y383766D01*
X274899Y383892D01*
X274861Y384019D01*
X274826Y384147D01*
X274795Y384276D01*
X274768Y384405D01*
X274745Y384536D01*
X274725Y384667D01*
X274710Y384799D01*
X274698Y384931D01*
X274690Y385063D01*
X274686Y385196D01*
X274686Y385328D01*
X274690Y385461D01*
X274698Y385593D01*
X274710Y385725D01*
X274725Y385857D01*
X274745Y385988D01*
X274768Y386119D01*
X274795Y386248D01*
X274826Y386377D01*
X274861Y386505D01*
X274899Y386632D01*
X274941Y386758D01*
X274987Y386882D01*
X275036Y387005D01*
X275089Y387127D01*
X275146Y387247D01*
X275206Y387365D01*
X275269Y387482D01*
X275336Y387596D01*
X275406Y387709D01*
X275480Y387819D01*
X275556Y387927D01*
X275636Y388033D01*
X275719Y388137D01*
X275805Y388238D01*
X275894Y388336D01*
X275985Y388432D01*
X276080Y388525D01*
X276177Y388615D01*
X276277Y388702D01*
X276379Y388787D01*
X276484Y388868D01*
X276591Y388946D01*
X276700Y389022D01*
X276811Y389093D01*
X276925Y389162D01*
X277040Y389227D01*
X277158Y389289D01*
X277277Y389347D01*
X277398Y389402D01*
X277520Y389453D01*
X277644Y389501D01*
X277769Y389545D01*
X277895Y389585D01*
X278023Y389621D01*
X278151Y389654D01*
X278280Y389683D01*
X278411Y389708D01*
X278541Y389729D01*
X278673Y389747D01*
X278805Y389760D01*
X278937Y389770D01*
X279069Y389776D01*
X279202Y389778D01*
X278299Y397002D02*
X283718Y397002D01*
X278299Y397002D02*
X278180Y397000D01*
X278060Y396994D01*
X277941Y396984D01*
X277823Y396970D01*
X277704Y396953D01*
X277587Y396931D01*
X277470Y396906D01*
X277355Y396876D01*
X277240Y396843D01*
X277126Y396806D01*
X277014Y396766D01*
X276903Y396721D01*
X276794Y396673D01*
X276686Y396622D01*
X276580Y396567D01*
X276476Y396508D01*
X276374Y396446D01*
X276274Y396381D01*
X276176Y396312D01*
X276080Y396240D01*
X275987Y396165D01*
X275897Y396088D01*
X275809Y396007D01*
X275724Y395923D01*
X275642Y395836D01*
X275562Y395747D01*
X275486Y395655D01*
X275412Y395561D01*
X275342Y395464D01*
X275275Y395366D01*
X275211Y395265D01*
X275151Y395161D01*
X275094Y395056D01*
X275041Y394949D01*
X274991Y394841D01*
X274945Y394731D01*
X274903Y394619D01*
X274864Y394506D01*
X274829Y394392D01*
X274798Y394277D01*
X274770Y394160D01*
X274747Y394043D01*
X274727Y393926D01*
X274711Y393807D01*
X274699Y393688D01*
X274691Y393569D01*
X274687Y393450D01*
X274687Y393330D01*
X274691Y393211D01*
X274699Y393092D01*
X274711Y392973D01*
X274727Y392854D01*
X274747Y392737D01*
X274770Y392620D01*
X274798Y392503D01*
X274829Y392388D01*
X274864Y392274D01*
X274903Y392161D01*
X274945Y392049D01*
X274991Y391939D01*
X275041Y391831D01*
X275094Y391724D01*
X275151Y391619D01*
X275211Y391515D01*
X275275Y391414D01*
X275342Y391316D01*
X275412Y391219D01*
X275486Y391125D01*
X275562Y391033D01*
X275642Y390944D01*
X275724Y390857D01*
X275809Y390773D01*
X275897Y390692D01*
X275987Y390615D01*
X276080Y390540D01*
X276176Y390468D01*
X276274Y390399D01*
X276374Y390334D01*
X276476Y390272D01*
X276580Y390213D01*
X276686Y390158D01*
X276794Y390107D01*
X276903Y390059D01*
X277014Y390014D01*
X277126Y389974D01*
X277240Y389937D01*
X277355Y389904D01*
X277470Y389874D01*
X277587Y389849D01*
X277704Y389827D01*
X277823Y389810D01*
X277941Y389796D01*
X278060Y389786D01*
X278180Y389780D01*
X278299Y389778D01*
X278299Y389777D02*
X281912Y389777D01*
X268087Y388874D02*
X268083Y389194D01*
X268072Y389513D01*
X268053Y389833D01*
X268026Y390151D01*
X267992Y390469D01*
X267950Y390786D01*
X267900Y391102D01*
X267843Y391417D01*
X267779Y391730D01*
X267707Y392042D01*
X267628Y392352D01*
X267541Y392659D01*
X267447Y392965D01*
X267346Y393268D01*
X267237Y393569D01*
X267122Y393867D01*
X266999Y394163D01*
X266869Y394455D01*
X266732Y394744D01*
X266732Y394745D02*
X266693Y394853D01*
X266650Y394960D01*
X266604Y395065D01*
X266553Y395169D01*
X266500Y395271D01*
X266443Y395371D01*
X266382Y395469D01*
X266318Y395564D01*
X266251Y395658D01*
X266180Y395749D01*
X266107Y395838D01*
X266030Y395924D01*
X265951Y396007D01*
X265869Y396088D01*
X265784Y396166D01*
X265696Y396240D01*
X265606Y396312D01*
X265514Y396380D01*
X265419Y396446D01*
X265322Y396508D01*
X265223Y396566D01*
X265121Y396622D01*
X265019Y396673D01*
X264914Y396721D01*
X264808Y396766D01*
X264700Y396807D01*
X264591Y396844D01*
X264481Y396877D01*
X264369Y396906D01*
X264257Y396932D01*
X264144Y396954D01*
X264030Y396971D01*
X263916Y396985D01*
X263801Y396995D01*
X263686Y397001D01*
X263571Y397003D01*
X263571Y397002D02*
X263456Y397000D01*
X263341Y396994D01*
X263226Y396984D01*
X263112Y396970D01*
X262998Y396953D01*
X262885Y396931D01*
X262773Y396905D01*
X262661Y396876D01*
X262551Y396843D01*
X262442Y396806D01*
X262334Y396765D01*
X262228Y396720D01*
X262124Y396672D01*
X262021Y396621D01*
X261920Y396565D01*
X261820Y396507D01*
X261723Y396445D01*
X261629Y396380D01*
X261536Y396311D01*
X261446Y396239D01*
X261358Y396165D01*
X261273Y396087D01*
X261191Y396006D01*
X261112Y395923D01*
X261035Y395837D01*
X260962Y395748D01*
X260891Y395657D01*
X260824Y395563D01*
X260760Y395468D01*
X260699Y395370D01*
X260642Y395270D01*
X260589Y395168D01*
X260538Y395064D01*
X260492Y394959D01*
X260449Y394852D01*
X260410Y394744D01*
X260411Y394744D02*
X260274Y394455D01*
X260144Y394163D01*
X260021Y393867D01*
X259906Y393569D01*
X259797Y393268D01*
X259696Y392965D01*
X259602Y392659D01*
X259515Y392352D01*
X259436Y392042D01*
X259364Y391730D01*
X259300Y391417D01*
X259243Y391102D01*
X259193Y390786D01*
X259151Y390469D01*
X259117Y390151D01*
X259090Y389833D01*
X259071Y389513D01*
X259060Y389194D01*
X259056Y388874D01*
X268086Y388874D02*
X268082Y388554D01*
X268071Y388235D01*
X268052Y387915D01*
X268025Y387597D01*
X267991Y387279D01*
X267949Y386962D01*
X267899Y386646D01*
X267842Y386331D01*
X267778Y386018D01*
X267706Y385706D01*
X267627Y385396D01*
X267540Y385089D01*
X267446Y384783D01*
X267345Y384480D01*
X267236Y384179D01*
X267121Y383881D01*
X266998Y383585D01*
X266868Y383293D01*
X266731Y383004D01*
X266732Y383004D02*
X266693Y382896D01*
X266650Y382789D01*
X266604Y382684D01*
X266553Y382580D01*
X266500Y382478D01*
X266443Y382378D01*
X266382Y382280D01*
X266318Y382185D01*
X266251Y382091D01*
X266180Y382000D01*
X266107Y381911D01*
X266030Y381825D01*
X265951Y381742D01*
X265869Y381661D01*
X265784Y381583D01*
X265696Y381509D01*
X265606Y381437D01*
X265513Y381368D01*
X265419Y381303D01*
X265322Y381241D01*
X265222Y381183D01*
X265121Y381127D01*
X265019Y381076D01*
X264914Y381028D01*
X264808Y380983D01*
X264700Y380942D01*
X264591Y380905D01*
X264481Y380872D01*
X264369Y380843D01*
X264257Y380817D01*
X264144Y380795D01*
X264030Y380778D01*
X263916Y380764D01*
X263801Y380754D01*
X263686Y380748D01*
X263571Y380746D01*
X260411Y383004D02*
X260274Y383293D01*
X260144Y383585D01*
X260021Y383881D01*
X259906Y384179D01*
X259797Y384480D01*
X259696Y384783D01*
X259602Y385089D01*
X259515Y385396D01*
X259436Y385706D01*
X259364Y386018D01*
X259300Y386331D01*
X259243Y386646D01*
X259193Y386962D01*
X259151Y387279D01*
X259117Y387597D01*
X259090Y387915D01*
X259071Y388235D01*
X259060Y388554D01*
X259056Y388874D01*
X260410Y383004D02*
X260449Y382896D01*
X260492Y382789D01*
X260538Y382684D01*
X260589Y382580D01*
X260642Y382478D01*
X260700Y382378D01*
X260760Y382280D01*
X260824Y382185D01*
X260891Y382091D01*
X260962Y382000D01*
X261035Y381911D01*
X261112Y381825D01*
X261191Y381742D01*
X261273Y381661D01*
X261358Y381583D01*
X261446Y381509D01*
X261536Y381437D01*
X261629Y381368D01*
X261723Y381303D01*
X261820Y381241D01*
X261920Y381183D01*
X262021Y381127D01*
X262124Y381076D01*
X262228Y381028D01*
X262334Y380983D01*
X262442Y380942D01*
X262551Y380905D01*
X262661Y380872D01*
X262773Y380843D01*
X262885Y380817D01*
X262998Y380795D01*
X263112Y380778D01*
X263226Y380764D01*
X263341Y380754D01*
X263456Y380748D01*
X263571Y380746D01*
X267184Y384358D02*
X259959Y393390D01*
X253081Y381649D02*
X253081Y380746D01*
X253081Y381649D02*
X252178Y381649D01*
X252178Y380746D01*
X253081Y380746D01*
X246203Y388874D02*
X246199Y389194D01*
X246188Y389513D01*
X246169Y389833D01*
X246142Y390151D01*
X246108Y390469D01*
X246066Y390786D01*
X246016Y391102D01*
X245959Y391417D01*
X245895Y391730D01*
X245823Y392042D01*
X245744Y392352D01*
X245657Y392659D01*
X245563Y392965D01*
X245462Y393268D01*
X245353Y393569D01*
X245238Y393867D01*
X245115Y394163D01*
X244985Y394455D01*
X244848Y394744D01*
X244849Y394745D02*
X244810Y394853D01*
X244767Y394960D01*
X244721Y395065D01*
X244670Y395169D01*
X244617Y395271D01*
X244560Y395371D01*
X244499Y395469D01*
X244435Y395564D01*
X244368Y395658D01*
X244297Y395749D01*
X244224Y395838D01*
X244147Y395924D01*
X244068Y396007D01*
X243986Y396088D01*
X243901Y396166D01*
X243813Y396240D01*
X243723Y396312D01*
X243631Y396380D01*
X243536Y396446D01*
X243439Y396508D01*
X243340Y396566D01*
X243238Y396622D01*
X243136Y396673D01*
X243031Y396721D01*
X242925Y396766D01*
X242817Y396807D01*
X242708Y396844D01*
X242598Y396877D01*
X242486Y396906D01*
X242374Y396932D01*
X242261Y396954D01*
X242147Y396971D01*
X242033Y396985D01*
X241918Y396995D01*
X241803Y397001D01*
X241688Y397003D01*
X241688Y397002D02*
X241573Y397000D01*
X241458Y396994D01*
X241343Y396984D01*
X241229Y396970D01*
X241115Y396953D01*
X241002Y396931D01*
X240890Y396905D01*
X240778Y396876D01*
X240668Y396843D01*
X240559Y396806D01*
X240451Y396765D01*
X240345Y396720D01*
X240241Y396672D01*
X240138Y396621D01*
X240037Y396565D01*
X239937Y396507D01*
X239840Y396445D01*
X239746Y396380D01*
X239653Y396311D01*
X239563Y396239D01*
X239475Y396165D01*
X239390Y396087D01*
X239308Y396006D01*
X239229Y395923D01*
X239152Y395837D01*
X239079Y395748D01*
X239008Y395657D01*
X238941Y395563D01*
X238877Y395468D01*
X238816Y395370D01*
X238759Y395270D01*
X238706Y395168D01*
X238655Y395064D01*
X238609Y394959D01*
X238566Y394852D01*
X238527Y394744D01*
X238390Y394455D01*
X238260Y394163D01*
X238137Y393867D01*
X238022Y393569D01*
X237913Y393268D01*
X237812Y392965D01*
X237718Y392659D01*
X237631Y392352D01*
X237552Y392042D01*
X237480Y391730D01*
X237416Y391417D01*
X237359Y391102D01*
X237309Y390786D01*
X237267Y390469D01*
X237233Y390151D01*
X237206Y389833D01*
X237187Y389513D01*
X237176Y389194D01*
X237172Y388874D01*
X246203Y388874D02*
X246199Y388554D01*
X246188Y388235D01*
X246169Y387915D01*
X246142Y387597D01*
X246108Y387279D01*
X246066Y386962D01*
X246016Y386646D01*
X245959Y386331D01*
X245895Y386018D01*
X245823Y385706D01*
X245744Y385396D01*
X245657Y385089D01*
X245563Y384783D01*
X245462Y384480D01*
X245353Y384179D01*
X245238Y383881D01*
X245115Y383585D01*
X244985Y383293D01*
X244848Y383004D01*
X244849Y383004D02*
X244810Y382896D01*
X244767Y382789D01*
X244721Y382684D01*
X244670Y382580D01*
X244617Y382478D01*
X244560Y382378D01*
X244499Y382280D01*
X244435Y382185D01*
X244368Y382091D01*
X244297Y382000D01*
X244224Y381911D01*
X244147Y381825D01*
X244068Y381742D01*
X243986Y381661D01*
X243901Y381583D01*
X243813Y381509D01*
X243723Y381437D01*
X243630Y381368D01*
X243536Y381303D01*
X243439Y381241D01*
X243339Y381183D01*
X243238Y381127D01*
X243136Y381076D01*
X243031Y381028D01*
X242925Y380983D01*
X242817Y380942D01*
X242708Y380905D01*
X242598Y380872D01*
X242486Y380843D01*
X242374Y380817D01*
X242261Y380795D01*
X242147Y380778D01*
X242033Y380764D01*
X241918Y380754D01*
X241803Y380748D01*
X241688Y380746D01*
X238527Y383004D02*
X238390Y383293D01*
X238260Y383585D01*
X238137Y383881D01*
X238022Y384179D01*
X237913Y384480D01*
X237812Y384783D01*
X237718Y385089D01*
X237631Y385396D01*
X237552Y385706D01*
X237480Y386018D01*
X237416Y386331D01*
X237359Y386646D01*
X237309Y386962D01*
X237267Y387279D01*
X237233Y387597D01*
X237206Y387915D01*
X237187Y388235D01*
X237176Y388554D01*
X237172Y388874D01*
X238527Y383004D02*
X238566Y382896D01*
X238609Y382789D01*
X238655Y382684D01*
X238706Y382580D01*
X238759Y382478D01*
X238817Y382378D01*
X238877Y382280D01*
X238941Y382185D01*
X239008Y382091D01*
X239079Y382000D01*
X239152Y381911D01*
X239229Y381825D01*
X239308Y381742D01*
X239390Y381661D01*
X239475Y381583D01*
X239563Y381509D01*
X239653Y381437D01*
X239746Y381368D01*
X239840Y381303D01*
X239937Y381241D01*
X240037Y381183D01*
X240138Y381127D01*
X240241Y381076D01*
X240345Y381028D01*
X240451Y380983D01*
X240559Y380942D01*
X240668Y380905D01*
X240778Y380872D01*
X240890Y380843D01*
X241002Y380817D01*
X241115Y380795D01*
X241229Y380778D01*
X241343Y380764D01*
X241458Y380754D01*
X241573Y380748D01*
X241688Y380746D01*
X245300Y384358D02*
X238075Y393390D01*
X230572Y395196D02*
X230572Y397002D01*
X221541Y397002D01*
X226056Y380746D01*
X215566Y380746D02*
X215566Y381649D01*
X214663Y381649D01*
X214663Y380746D01*
X215566Y380746D01*
X199657Y392938D02*
X199659Y393063D01*
X199665Y393188D01*
X199674Y393313D01*
X199688Y393437D01*
X199705Y393561D01*
X199726Y393685D01*
X199751Y393807D01*
X199780Y393929D01*
X199812Y394050D01*
X199848Y394170D01*
X199888Y394289D01*
X199931Y394406D01*
X199978Y394522D01*
X200029Y394637D01*
X200083Y394749D01*
X200141Y394861D01*
X200201Y394970D01*
X200266Y395077D01*
X200333Y395183D01*
X200404Y395286D01*
X200478Y395387D01*
X200555Y395486D01*
X200635Y395582D01*
X200718Y395676D01*
X200803Y395767D01*
X200892Y395856D01*
X200983Y395941D01*
X201077Y396024D01*
X201173Y396104D01*
X201272Y396181D01*
X201373Y396255D01*
X201476Y396326D01*
X201582Y396393D01*
X201689Y396458D01*
X201798Y396518D01*
X201910Y396576D01*
X202022Y396630D01*
X202137Y396681D01*
X202253Y396728D01*
X202370Y396771D01*
X202489Y396811D01*
X202609Y396847D01*
X202730Y396879D01*
X202852Y396908D01*
X202974Y396933D01*
X203098Y396954D01*
X203222Y396971D01*
X203346Y396985D01*
X203471Y396994D01*
X203596Y397000D01*
X203721Y397002D01*
X203864Y397000D01*
X204006Y396994D01*
X204149Y396984D01*
X204291Y396971D01*
X204432Y396953D01*
X204574Y396932D01*
X204714Y396907D01*
X204854Y396878D01*
X204993Y396845D01*
X205131Y396808D01*
X205268Y396768D01*
X205403Y396724D01*
X205538Y396676D01*
X205671Y396624D01*
X205803Y396569D01*
X205933Y396510D01*
X206061Y396448D01*
X206188Y396382D01*
X206313Y396313D01*
X206436Y396241D01*
X206557Y396165D01*
X206675Y396086D01*
X206792Y396003D01*
X206906Y395918D01*
X207018Y395829D01*
X207127Y395738D01*
X207234Y395643D01*
X207339Y395546D01*
X207440Y395445D01*
X207539Y395342D01*
X207635Y395237D01*
X207728Y395128D01*
X207818Y395017D01*
X207905Y394904D01*
X207989Y394789D01*
X208069Y394671D01*
X208147Y394551D01*
X208221Y394429D01*
X208291Y394305D01*
X208359Y394179D01*
X208422Y394051D01*
X208483Y393922D01*
X208540Y393791D01*
X208593Y393659D01*
X208642Y393525D01*
X208688Y393390D01*
X201012Y389777D02*
X200918Y389869D01*
X200828Y389963D01*
X200740Y390060D01*
X200655Y390160D01*
X200573Y390262D01*
X200494Y390367D01*
X200419Y390474D01*
X200347Y390583D01*
X200278Y390694D01*
X200212Y390808D01*
X200150Y390923D01*
X200091Y391040D01*
X200036Y391159D01*
X199985Y391279D01*
X199937Y391401D01*
X199892Y391524D01*
X199852Y391648D01*
X199815Y391774D01*
X199782Y391901D01*
X199753Y392028D01*
X199727Y392157D01*
X199706Y392286D01*
X199688Y392416D01*
X199675Y392546D01*
X199665Y392676D01*
X199659Y392807D01*
X199657Y392938D01*
X201012Y389777D02*
X208688Y380746D01*
X199657Y380746D01*
X193057Y388874D02*
X193053Y389194D01*
X193042Y389513D01*
X193023Y389833D01*
X192996Y390151D01*
X192962Y390469D01*
X192920Y390786D01*
X192870Y391102D01*
X192813Y391417D01*
X192749Y391730D01*
X192677Y392042D01*
X192598Y392352D01*
X192511Y392659D01*
X192417Y392965D01*
X192316Y393268D01*
X192207Y393569D01*
X192092Y393867D01*
X191969Y394163D01*
X191839Y394455D01*
X191702Y394744D01*
X191702Y394745D02*
X191663Y394853D01*
X191620Y394960D01*
X191574Y395065D01*
X191523Y395169D01*
X191470Y395271D01*
X191413Y395371D01*
X191352Y395469D01*
X191288Y395564D01*
X191221Y395658D01*
X191150Y395749D01*
X191077Y395838D01*
X191000Y395924D01*
X190921Y396007D01*
X190839Y396088D01*
X190754Y396166D01*
X190666Y396240D01*
X190576Y396312D01*
X190484Y396380D01*
X190389Y396446D01*
X190292Y396508D01*
X190193Y396566D01*
X190091Y396622D01*
X189989Y396673D01*
X189884Y396721D01*
X189778Y396766D01*
X189670Y396807D01*
X189561Y396844D01*
X189451Y396877D01*
X189339Y396906D01*
X189227Y396932D01*
X189114Y396954D01*
X189000Y396971D01*
X188886Y396985D01*
X188771Y396995D01*
X188656Y397001D01*
X188541Y397003D01*
X188541Y397002D02*
X188426Y397000D01*
X188311Y396994D01*
X188196Y396984D01*
X188082Y396970D01*
X187968Y396953D01*
X187855Y396931D01*
X187743Y396905D01*
X187631Y396876D01*
X187521Y396843D01*
X187412Y396806D01*
X187304Y396765D01*
X187198Y396720D01*
X187094Y396672D01*
X186991Y396621D01*
X186890Y396565D01*
X186790Y396507D01*
X186693Y396445D01*
X186599Y396380D01*
X186506Y396311D01*
X186416Y396239D01*
X186328Y396165D01*
X186243Y396087D01*
X186161Y396006D01*
X186082Y395923D01*
X186005Y395837D01*
X185932Y395748D01*
X185861Y395657D01*
X185794Y395563D01*
X185730Y395468D01*
X185669Y395370D01*
X185612Y395270D01*
X185559Y395168D01*
X185508Y395064D01*
X185462Y394959D01*
X185419Y394852D01*
X185380Y394744D01*
X185381Y394744D02*
X185244Y394455D01*
X185114Y394163D01*
X184991Y393867D01*
X184876Y393569D01*
X184767Y393268D01*
X184666Y392965D01*
X184572Y392659D01*
X184485Y392352D01*
X184406Y392042D01*
X184334Y391730D01*
X184270Y391417D01*
X184213Y391102D01*
X184163Y390786D01*
X184121Y390469D01*
X184087Y390151D01*
X184060Y389833D01*
X184041Y389513D01*
X184030Y389194D01*
X184026Y388874D01*
X193057Y388874D02*
X193053Y388554D01*
X193042Y388235D01*
X193023Y387915D01*
X192996Y387597D01*
X192962Y387279D01*
X192920Y386962D01*
X192870Y386646D01*
X192813Y386331D01*
X192749Y386018D01*
X192677Y385706D01*
X192598Y385396D01*
X192511Y385089D01*
X192417Y384783D01*
X192316Y384480D01*
X192207Y384179D01*
X192092Y383881D01*
X191969Y383585D01*
X191839Y383293D01*
X191702Y383004D01*
X191663Y382896D01*
X191620Y382789D01*
X191574Y382684D01*
X191523Y382580D01*
X191470Y382478D01*
X191413Y382378D01*
X191352Y382280D01*
X191288Y382185D01*
X191221Y382091D01*
X191150Y382000D01*
X191077Y381911D01*
X191000Y381825D01*
X190921Y381742D01*
X190839Y381661D01*
X190754Y381583D01*
X190666Y381509D01*
X190576Y381437D01*
X190483Y381368D01*
X190389Y381303D01*
X190292Y381241D01*
X190192Y381183D01*
X190091Y381127D01*
X189989Y381076D01*
X189884Y381028D01*
X189778Y380983D01*
X189670Y380942D01*
X189561Y380905D01*
X189451Y380872D01*
X189339Y380843D01*
X189227Y380817D01*
X189114Y380795D01*
X189000Y380778D01*
X188886Y380764D01*
X188771Y380754D01*
X188656Y380748D01*
X188541Y380746D01*
X185381Y383004D02*
X185244Y383293D01*
X185114Y383585D01*
X184991Y383881D01*
X184876Y384179D01*
X184767Y384480D01*
X184666Y384783D01*
X184572Y385089D01*
X184485Y385396D01*
X184406Y385706D01*
X184334Y386018D01*
X184270Y386331D01*
X184213Y386646D01*
X184163Y386962D01*
X184121Y387279D01*
X184087Y387597D01*
X184060Y387915D01*
X184041Y388235D01*
X184030Y388554D01*
X184026Y388874D01*
X185380Y383004D02*
X185419Y382896D01*
X185462Y382789D01*
X185508Y382684D01*
X185559Y382580D01*
X185612Y382478D01*
X185670Y382378D01*
X185730Y382280D01*
X185794Y382185D01*
X185861Y382091D01*
X185932Y382000D01*
X186005Y381911D01*
X186082Y381825D01*
X186161Y381742D01*
X186243Y381661D01*
X186328Y381583D01*
X186416Y381509D01*
X186506Y381437D01*
X186599Y381368D01*
X186693Y381303D01*
X186790Y381241D01*
X186890Y381183D01*
X186991Y381127D01*
X187094Y381076D01*
X187198Y381028D01*
X187304Y380983D01*
X187412Y380942D01*
X187521Y380905D01*
X187631Y380872D01*
X187743Y380843D01*
X187855Y380817D01*
X187968Y380795D01*
X188082Y380778D01*
X188196Y380764D01*
X188311Y380754D01*
X188426Y380748D01*
X188541Y380746D01*
X192154Y384358D02*
X184929Y393390D01*
X177426Y393390D02*
X172910Y397002D01*
X172910Y380746D01*
X168395Y380746D02*
X177426Y380746D01*
X161795Y385262D02*
X161793Y385395D01*
X161787Y385527D01*
X161777Y385659D01*
X161764Y385791D01*
X161746Y385923D01*
X161725Y386053D01*
X161700Y386184D01*
X161671Y386313D01*
X161638Y386441D01*
X161602Y386569D01*
X161562Y386695D01*
X161518Y386820D01*
X161470Y386944D01*
X161419Y387066D01*
X161364Y387187D01*
X161306Y387306D01*
X161244Y387424D01*
X161179Y387539D01*
X161110Y387653D01*
X161039Y387764D01*
X160963Y387873D01*
X160885Y387980D01*
X160804Y388085D01*
X160719Y388187D01*
X160632Y388287D01*
X160542Y388384D01*
X160449Y388479D01*
X160353Y388570D01*
X160255Y388659D01*
X160154Y388745D01*
X160050Y388828D01*
X159944Y388908D01*
X159836Y388984D01*
X159726Y389058D01*
X159613Y389128D01*
X159499Y389195D01*
X159382Y389258D01*
X159264Y389318D01*
X159144Y389375D01*
X159022Y389428D01*
X158899Y389477D01*
X158775Y389523D01*
X158649Y389565D01*
X158522Y389603D01*
X158394Y389638D01*
X158265Y389669D01*
X158136Y389696D01*
X158005Y389719D01*
X157874Y389739D01*
X157742Y389754D01*
X157610Y389766D01*
X157478Y389774D01*
X157345Y389778D01*
X157213Y389778D01*
X157080Y389774D01*
X156948Y389766D01*
X156816Y389754D01*
X156684Y389739D01*
X156553Y389719D01*
X156422Y389696D01*
X156293Y389669D01*
X156164Y389638D01*
X156036Y389603D01*
X155909Y389565D01*
X155783Y389523D01*
X155659Y389477D01*
X155536Y389428D01*
X155414Y389375D01*
X155294Y389318D01*
X155176Y389258D01*
X155059Y389195D01*
X154945Y389128D01*
X154832Y389058D01*
X154722Y388984D01*
X154614Y388908D01*
X154508Y388828D01*
X154404Y388745D01*
X154303Y388659D01*
X154205Y388570D01*
X154109Y388479D01*
X154016Y388384D01*
X153926Y388287D01*
X153839Y388187D01*
X153754Y388085D01*
X153673Y387980D01*
X153595Y387873D01*
X153519Y387764D01*
X153448Y387653D01*
X153379Y387539D01*
X153314Y387424D01*
X153252Y387306D01*
X153194Y387187D01*
X153139Y387066D01*
X153088Y386944D01*
X153040Y386820D01*
X152996Y386695D01*
X152956Y386569D01*
X152920Y386441D01*
X152887Y386313D01*
X152858Y386184D01*
X152833Y386053D01*
X152812Y385923D01*
X152794Y385791D01*
X152781Y385659D01*
X152771Y385527D01*
X152765Y385395D01*
X152763Y385262D01*
X152765Y385129D01*
X152771Y384997D01*
X152781Y384865D01*
X152794Y384733D01*
X152812Y384601D01*
X152833Y384471D01*
X152858Y384340D01*
X152887Y384211D01*
X152920Y384083D01*
X152956Y383955D01*
X152996Y383829D01*
X153040Y383704D01*
X153088Y383580D01*
X153139Y383458D01*
X153194Y383337D01*
X153252Y383218D01*
X153314Y383100D01*
X153379Y382985D01*
X153448Y382871D01*
X153519Y382760D01*
X153595Y382651D01*
X153673Y382544D01*
X153754Y382439D01*
X153839Y382337D01*
X153926Y382237D01*
X154016Y382140D01*
X154109Y382045D01*
X154205Y381954D01*
X154303Y381865D01*
X154404Y381779D01*
X154508Y381696D01*
X154614Y381616D01*
X154722Y381540D01*
X154832Y381466D01*
X154945Y381396D01*
X155059Y381329D01*
X155176Y381266D01*
X155294Y381206D01*
X155414Y381149D01*
X155536Y381096D01*
X155659Y381047D01*
X155783Y381001D01*
X155909Y380959D01*
X156036Y380921D01*
X156164Y380886D01*
X156293Y380855D01*
X156422Y380828D01*
X156553Y380805D01*
X156684Y380785D01*
X156816Y380770D01*
X156948Y380758D01*
X157080Y380750D01*
X157213Y380746D01*
X157345Y380746D01*
X157478Y380750D01*
X157610Y380758D01*
X157742Y380770D01*
X157874Y380785D01*
X158005Y380805D01*
X158136Y380828D01*
X158265Y380855D01*
X158394Y380886D01*
X158522Y380921D01*
X158649Y380959D01*
X158775Y381001D01*
X158899Y381047D01*
X159022Y381096D01*
X159144Y381149D01*
X159264Y381206D01*
X159382Y381266D01*
X159499Y381329D01*
X159613Y381396D01*
X159726Y381466D01*
X159836Y381540D01*
X159944Y381616D01*
X160050Y381696D01*
X160154Y381779D01*
X160255Y381865D01*
X160353Y381954D01*
X160449Y382045D01*
X160542Y382140D01*
X160632Y382237D01*
X160719Y382337D01*
X160804Y382439D01*
X160885Y382544D01*
X160963Y382651D01*
X161039Y382760D01*
X161110Y382871D01*
X161179Y382985D01*
X161244Y383100D01*
X161306Y383218D01*
X161364Y383337D01*
X161419Y383458D01*
X161470Y383580D01*
X161518Y383704D01*
X161562Y383829D01*
X161602Y383955D01*
X161638Y384083D01*
X161671Y384211D01*
X161700Y384340D01*
X161725Y384471D01*
X161746Y384601D01*
X161764Y384733D01*
X161777Y384865D01*
X161787Y384997D01*
X161793Y385129D01*
X161795Y385262D01*
X160891Y393390D02*
X160889Y393509D01*
X160883Y393629D01*
X160873Y393748D01*
X160859Y393866D01*
X160842Y393985D01*
X160820Y394102D01*
X160795Y394219D01*
X160765Y394334D01*
X160732Y394449D01*
X160695Y394563D01*
X160655Y394675D01*
X160610Y394786D01*
X160562Y394895D01*
X160511Y395003D01*
X160456Y395109D01*
X160397Y395213D01*
X160335Y395315D01*
X160270Y395415D01*
X160201Y395513D01*
X160129Y395609D01*
X160054Y395702D01*
X159977Y395792D01*
X159896Y395880D01*
X159812Y395965D01*
X159725Y396047D01*
X159636Y396127D01*
X159544Y396203D01*
X159450Y396277D01*
X159353Y396347D01*
X159255Y396414D01*
X159154Y396478D01*
X159050Y396538D01*
X158945Y396595D01*
X158838Y396648D01*
X158730Y396698D01*
X158620Y396744D01*
X158508Y396786D01*
X158395Y396825D01*
X158281Y396860D01*
X158166Y396891D01*
X158049Y396919D01*
X157932Y396942D01*
X157815Y396962D01*
X157696Y396978D01*
X157577Y396990D01*
X157458Y396998D01*
X157339Y397002D01*
X157219Y397002D01*
X157100Y396998D01*
X156981Y396990D01*
X156862Y396978D01*
X156743Y396962D01*
X156626Y396942D01*
X156509Y396919D01*
X156392Y396891D01*
X156277Y396860D01*
X156163Y396825D01*
X156050Y396786D01*
X155938Y396744D01*
X155828Y396698D01*
X155720Y396648D01*
X155613Y396595D01*
X155508Y396538D01*
X155404Y396478D01*
X155303Y396414D01*
X155205Y396347D01*
X155108Y396277D01*
X155014Y396203D01*
X154922Y396127D01*
X154833Y396047D01*
X154746Y395965D01*
X154662Y395880D01*
X154581Y395792D01*
X154504Y395702D01*
X154429Y395609D01*
X154357Y395513D01*
X154288Y395415D01*
X154223Y395315D01*
X154161Y395213D01*
X154102Y395109D01*
X154047Y395003D01*
X153996Y394895D01*
X153948Y394786D01*
X153903Y394675D01*
X153863Y394563D01*
X153826Y394449D01*
X153793Y394334D01*
X153763Y394219D01*
X153738Y394102D01*
X153716Y393985D01*
X153699Y393866D01*
X153685Y393748D01*
X153675Y393629D01*
X153669Y393509D01*
X153667Y393390D01*
X153669Y393271D01*
X153675Y393151D01*
X153685Y393032D01*
X153699Y392914D01*
X153716Y392795D01*
X153738Y392678D01*
X153763Y392561D01*
X153793Y392446D01*
X153826Y392331D01*
X153863Y392217D01*
X153903Y392105D01*
X153948Y391994D01*
X153996Y391885D01*
X154047Y391777D01*
X154102Y391671D01*
X154161Y391567D01*
X154223Y391465D01*
X154288Y391365D01*
X154357Y391267D01*
X154429Y391171D01*
X154504Y391078D01*
X154581Y390988D01*
X154662Y390900D01*
X154746Y390815D01*
X154833Y390733D01*
X154922Y390653D01*
X155014Y390577D01*
X155108Y390503D01*
X155205Y390433D01*
X155303Y390366D01*
X155404Y390302D01*
X155508Y390242D01*
X155613Y390185D01*
X155720Y390132D01*
X155828Y390082D01*
X155938Y390036D01*
X156050Y389994D01*
X156163Y389955D01*
X156277Y389920D01*
X156392Y389889D01*
X156509Y389861D01*
X156626Y389838D01*
X156743Y389818D01*
X156862Y389802D01*
X156981Y389790D01*
X157100Y389782D01*
X157219Y389778D01*
X157339Y389778D01*
X157458Y389782D01*
X157577Y389790D01*
X157696Y389802D01*
X157815Y389818D01*
X157932Y389838D01*
X158049Y389861D01*
X158166Y389889D01*
X158281Y389920D01*
X158395Y389955D01*
X158508Y389994D01*
X158620Y390036D01*
X158730Y390082D01*
X158838Y390132D01*
X158945Y390185D01*
X159050Y390242D01*
X159154Y390302D01*
X159255Y390366D01*
X159353Y390433D01*
X159450Y390503D01*
X159544Y390577D01*
X159636Y390653D01*
X159725Y390733D01*
X159812Y390815D01*
X159896Y390900D01*
X159977Y390988D01*
X160054Y391078D01*
X160129Y391171D01*
X160201Y391267D01*
X160270Y391365D01*
X160335Y391465D01*
X160397Y391567D01*
X160456Y391671D01*
X160511Y391777D01*
X160562Y391885D01*
X160610Y391994D01*
X160655Y392105D01*
X160695Y392217D01*
X160732Y392331D01*
X160765Y392446D01*
X160795Y392561D01*
X160820Y392678D01*
X160842Y392795D01*
X160859Y392914D01*
X160873Y393032D01*
X160883Y393151D01*
X160889Y393271D01*
X160891Y393390D01*
X280106Y354330D02*
X283718Y365167D01*
X276493Y365167D02*
X280106Y354330D01*
X270553Y366974D02*
X266038Y370586D01*
X266038Y354330D01*
X270553Y354330D02*
X261522Y354330D01*
X255547Y354330D02*
X255547Y355233D01*
X254644Y355233D01*
X254644Y354330D01*
X255547Y354330D01*
X248669Y362458D02*
X248665Y362778D01*
X248654Y363097D01*
X248635Y363417D01*
X248608Y363735D01*
X248574Y364053D01*
X248532Y364370D01*
X248482Y364686D01*
X248425Y365001D01*
X248361Y365314D01*
X248289Y365626D01*
X248210Y365936D01*
X248123Y366243D01*
X248029Y366549D01*
X247928Y366852D01*
X247819Y367153D01*
X247704Y367451D01*
X247581Y367747D01*
X247451Y368039D01*
X247314Y368328D01*
X247315Y368329D02*
X247276Y368437D01*
X247233Y368544D01*
X247187Y368649D01*
X247136Y368753D01*
X247083Y368855D01*
X247026Y368955D01*
X246965Y369053D01*
X246901Y369148D01*
X246834Y369242D01*
X246763Y369333D01*
X246690Y369422D01*
X246613Y369508D01*
X246534Y369591D01*
X246452Y369672D01*
X246367Y369750D01*
X246279Y369824D01*
X246189Y369896D01*
X246097Y369964D01*
X246002Y370030D01*
X245905Y370092D01*
X245806Y370150D01*
X245704Y370206D01*
X245602Y370257D01*
X245497Y370305D01*
X245391Y370350D01*
X245283Y370391D01*
X245174Y370428D01*
X245064Y370461D01*
X244952Y370490D01*
X244840Y370516D01*
X244727Y370538D01*
X244613Y370555D01*
X244499Y370569D01*
X244384Y370579D01*
X244269Y370585D01*
X244154Y370587D01*
X244154Y370586D02*
X244039Y370584D01*
X243924Y370578D01*
X243809Y370568D01*
X243695Y370554D01*
X243581Y370537D01*
X243468Y370515D01*
X243356Y370489D01*
X243244Y370460D01*
X243134Y370427D01*
X243025Y370390D01*
X242917Y370349D01*
X242811Y370304D01*
X242707Y370256D01*
X242604Y370205D01*
X242503Y370149D01*
X242403Y370091D01*
X242306Y370029D01*
X242212Y369964D01*
X242119Y369895D01*
X242029Y369823D01*
X241941Y369749D01*
X241856Y369671D01*
X241774Y369590D01*
X241695Y369507D01*
X241618Y369421D01*
X241545Y369332D01*
X241474Y369241D01*
X241407Y369147D01*
X241343Y369052D01*
X241282Y368954D01*
X241225Y368854D01*
X241172Y368752D01*
X241121Y368648D01*
X241075Y368543D01*
X241032Y368436D01*
X240993Y368328D01*
X240856Y368039D01*
X240726Y367747D01*
X240603Y367451D01*
X240488Y367153D01*
X240379Y366852D01*
X240278Y366549D01*
X240184Y366243D01*
X240097Y365936D01*
X240018Y365626D01*
X239946Y365314D01*
X239882Y365001D01*
X239825Y364686D01*
X239775Y364370D01*
X239733Y364053D01*
X239699Y363735D01*
X239672Y363417D01*
X239653Y363097D01*
X239642Y362778D01*
X239638Y362458D01*
X248669Y362458D02*
X248665Y362138D01*
X248654Y361819D01*
X248635Y361499D01*
X248608Y361181D01*
X248574Y360863D01*
X248532Y360546D01*
X248482Y360230D01*
X248425Y359915D01*
X248361Y359602D01*
X248289Y359290D01*
X248210Y358980D01*
X248123Y358673D01*
X248029Y358367D01*
X247928Y358064D01*
X247819Y357763D01*
X247704Y357465D01*
X247581Y357169D01*
X247451Y356877D01*
X247314Y356588D01*
X247315Y356588D02*
X247276Y356480D01*
X247233Y356373D01*
X247187Y356268D01*
X247136Y356164D01*
X247083Y356062D01*
X247026Y355962D01*
X246965Y355864D01*
X246901Y355769D01*
X246834Y355675D01*
X246763Y355584D01*
X246690Y355495D01*
X246613Y355409D01*
X246534Y355326D01*
X246452Y355245D01*
X246367Y355167D01*
X246279Y355093D01*
X246189Y355021D01*
X246096Y354952D01*
X246002Y354887D01*
X245905Y354825D01*
X245805Y354767D01*
X245704Y354711D01*
X245602Y354660D01*
X245497Y354612D01*
X245391Y354567D01*
X245283Y354526D01*
X245174Y354489D01*
X245064Y354456D01*
X244952Y354427D01*
X244840Y354401D01*
X244727Y354379D01*
X244613Y354362D01*
X244499Y354348D01*
X244384Y354338D01*
X244269Y354332D01*
X244154Y354330D01*
X240994Y356588D02*
X240857Y356877D01*
X240727Y357169D01*
X240604Y357465D01*
X240489Y357763D01*
X240380Y358064D01*
X240279Y358367D01*
X240185Y358673D01*
X240098Y358980D01*
X240019Y359290D01*
X239947Y359602D01*
X239883Y359915D01*
X239826Y360230D01*
X239776Y360546D01*
X239734Y360863D01*
X239700Y361181D01*
X239673Y361499D01*
X239654Y361819D01*
X239643Y362138D01*
X239639Y362458D01*
X240993Y356588D02*
X241032Y356480D01*
X241075Y356373D01*
X241121Y356268D01*
X241172Y356164D01*
X241225Y356062D01*
X241283Y355962D01*
X241343Y355864D01*
X241407Y355769D01*
X241474Y355675D01*
X241545Y355584D01*
X241618Y355495D01*
X241695Y355409D01*
X241774Y355326D01*
X241856Y355245D01*
X241941Y355167D01*
X242029Y355093D01*
X242119Y355021D01*
X242212Y354952D01*
X242306Y354887D01*
X242403Y354825D01*
X242503Y354767D01*
X242604Y354711D01*
X242707Y354660D01*
X242811Y354612D01*
X242917Y354567D01*
X243025Y354526D01*
X243134Y354489D01*
X243244Y354456D01*
X243356Y354427D01*
X243468Y354401D01*
X243581Y354379D01*
X243695Y354362D01*
X243809Y354348D01*
X243924Y354338D01*
X244039Y354332D01*
X244154Y354330D01*
X247766Y357942D02*
X240541Y366974D01*
D11*
X398508Y299544D02*
X410192Y299544D01*
X410192Y302790D01*
X410190Y302903D01*
X410184Y303016D01*
X410174Y303129D01*
X410160Y303242D01*
X410143Y303354D01*
X410121Y303465D01*
X410096Y303575D01*
X410066Y303685D01*
X410033Y303793D01*
X409996Y303900D01*
X409956Y304006D01*
X409911Y304110D01*
X409863Y304213D01*
X409812Y304314D01*
X409757Y304413D01*
X409699Y304510D01*
X409637Y304605D01*
X409572Y304698D01*
X409504Y304788D01*
X409433Y304876D01*
X409358Y304962D01*
X409281Y305045D01*
X409201Y305125D01*
X409118Y305202D01*
X409032Y305277D01*
X408944Y305348D01*
X408854Y305416D01*
X408761Y305481D01*
X408666Y305543D01*
X408569Y305601D01*
X408470Y305656D01*
X408369Y305707D01*
X408266Y305755D01*
X408162Y305800D01*
X408056Y305840D01*
X407949Y305877D01*
X407841Y305910D01*
X407731Y305940D01*
X407621Y305965D01*
X407510Y305987D01*
X407398Y306004D01*
X407285Y306018D01*
X407172Y306028D01*
X407059Y306034D01*
X406946Y306036D01*
X406833Y306034D01*
X406720Y306028D01*
X406607Y306018D01*
X406494Y306004D01*
X406382Y305987D01*
X406271Y305965D01*
X406161Y305940D01*
X406051Y305910D01*
X405943Y305877D01*
X405836Y305840D01*
X405730Y305800D01*
X405626Y305755D01*
X405523Y305707D01*
X405422Y305656D01*
X405323Y305601D01*
X405226Y305543D01*
X405131Y305481D01*
X405038Y305416D01*
X404948Y305348D01*
X404860Y305277D01*
X404774Y305202D01*
X404691Y305125D01*
X404611Y305045D01*
X404534Y304962D01*
X404459Y304876D01*
X404388Y304788D01*
X404320Y304698D01*
X404255Y304605D01*
X404193Y304510D01*
X404135Y304413D01*
X404080Y304314D01*
X404029Y304213D01*
X403981Y304110D01*
X403936Y304006D01*
X403896Y303900D01*
X403859Y303793D01*
X403826Y303685D01*
X403796Y303575D01*
X403771Y303465D01*
X403749Y303354D01*
X403732Y303242D01*
X403718Y303129D01*
X403708Y303016D01*
X403702Y302903D01*
X403700Y302790D01*
X403701Y302790D02*
X403701Y299544D01*
X403701Y303439D02*
X398508Y306035D01*
X401104Y310900D02*
X410192Y313497D01*
X401104Y310900D02*
X401104Y317391D01*
X403701Y315444D02*
X398508Y315444D01*
X371892Y309704D02*
X360208Y309704D01*
X371892Y309704D02*
X371892Y312950D01*
X371890Y313063D01*
X371884Y313176D01*
X371874Y313289D01*
X371860Y313402D01*
X371843Y313514D01*
X371821Y313625D01*
X371796Y313735D01*
X371766Y313845D01*
X371733Y313953D01*
X371696Y314060D01*
X371656Y314166D01*
X371611Y314270D01*
X371563Y314373D01*
X371512Y314474D01*
X371457Y314573D01*
X371399Y314670D01*
X371337Y314765D01*
X371272Y314858D01*
X371204Y314948D01*
X371133Y315036D01*
X371058Y315122D01*
X370981Y315205D01*
X370901Y315285D01*
X370818Y315362D01*
X370732Y315437D01*
X370644Y315508D01*
X370554Y315576D01*
X370461Y315641D01*
X370366Y315703D01*
X370269Y315761D01*
X370170Y315816D01*
X370069Y315867D01*
X369966Y315915D01*
X369862Y315960D01*
X369756Y316000D01*
X369649Y316037D01*
X369541Y316070D01*
X369431Y316100D01*
X369321Y316125D01*
X369210Y316147D01*
X369098Y316164D01*
X368985Y316178D01*
X368872Y316188D01*
X368759Y316194D01*
X368646Y316196D01*
X368533Y316194D01*
X368420Y316188D01*
X368307Y316178D01*
X368194Y316164D01*
X368082Y316147D01*
X367971Y316125D01*
X367861Y316100D01*
X367751Y316070D01*
X367643Y316037D01*
X367536Y316000D01*
X367430Y315960D01*
X367326Y315915D01*
X367223Y315867D01*
X367122Y315816D01*
X367023Y315761D01*
X366926Y315703D01*
X366831Y315641D01*
X366738Y315576D01*
X366648Y315508D01*
X366560Y315437D01*
X366474Y315362D01*
X366391Y315285D01*
X366311Y315205D01*
X366234Y315122D01*
X366159Y315036D01*
X366088Y314948D01*
X366020Y314858D01*
X365955Y314765D01*
X365893Y314670D01*
X365835Y314573D01*
X365780Y314474D01*
X365729Y314373D01*
X365681Y314270D01*
X365636Y314166D01*
X365596Y314060D01*
X365559Y313953D01*
X365526Y313845D01*
X365496Y313735D01*
X365471Y313625D01*
X365449Y313514D01*
X365432Y313402D01*
X365418Y313289D01*
X365408Y313176D01*
X365402Y313063D01*
X365400Y312950D01*
X365401Y312950D02*
X365401Y309704D01*
X365401Y313599D02*
X360208Y316195D01*
X360208Y321060D02*
X360208Y324955D01*
X360210Y325054D01*
X360216Y325154D01*
X360225Y325253D01*
X360238Y325351D01*
X360255Y325449D01*
X360276Y325547D01*
X360301Y325643D01*
X360329Y325738D01*
X360361Y325832D01*
X360396Y325925D01*
X360435Y326017D01*
X360478Y326107D01*
X360523Y326195D01*
X360573Y326282D01*
X360625Y326366D01*
X360681Y326449D01*
X360739Y326529D01*
X360801Y326607D01*
X360866Y326682D01*
X360934Y326755D01*
X361004Y326825D01*
X361077Y326893D01*
X361152Y326958D01*
X361230Y327020D01*
X361310Y327078D01*
X361393Y327134D01*
X361477Y327186D01*
X361564Y327236D01*
X361652Y327281D01*
X361742Y327324D01*
X361834Y327363D01*
X361927Y327398D01*
X362021Y327430D01*
X362116Y327458D01*
X362212Y327483D01*
X362310Y327504D01*
X362408Y327521D01*
X362506Y327534D01*
X362605Y327543D01*
X362705Y327549D01*
X362804Y327551D01*
X364103Y327551D01*
X364202Y327549D01*
X364302Y327543D01*
X364401Y327534D01*
X364499Y327521D01*
X364597Y327504D01*
X364695Y327483D01*
X364791Y327458D01*
X364886Y327430D01*
X364980Y327398D01*
X365073Y327363D01*
X365165Y327324D01*
X365255Y327281D01*
X365343Y327236D01*
X365430Y327186D01*
X365514Y327134D01*
X365597Y327078D01*
X365677Y327020D01*
X365755Y326958D01*
X365830Y326893D01*
X365903Y326825D01*
X365973Y326755D01*
X366041Y326682D01*
X366106Y326607D01*
X366168Y326529D01*
X366226Y326449D01*
X366282Y326366D01*
X366334Y326282D01*
X366384Y326195D01*
X366429Y326107D01*
X366472Y326017D01*
X366511Y325925D01*
X366546Y325832D01*
X366578Y325738D01*
X366606Y325643D01*
X366631Y325547D01*
X366652Y325449D01*
X366669Y325351D01*
X366682Y325253D01*
X366691Y325154D01*
X366697Y325054D01*
X366699Y324955D01*
X366699Y321060D01*
X371892Y321060D01*
X371892Y327551D01*
X454808Y339604D02*
X454808Y342201D01*
X454808Y339604D02*
X454810Y339505D01*
X454816Y339405D01*
X454825Y339306D01*
X454838Y339208D01*
X454855Y339110D01*
X454876Y339012D01*
X454901Y338916D01*
X454929Y338821D01*
X454961Y338727D01*
X454996Y338634D01*
X455035Y338542D01*
X455078Y338452D01*
X455123Y338364D01*
X455173Y338277D01*
X455225Y338193D01*
X455281Y338110D01*
X455339Y338030D01*
X455401Y337952D01*
X455466Y337877D01*
X455534Y337804D01*
X455604Y337734D01*
X455677Y337666D01*
X455752Y337601D01*
X455830Y337539D01*
X455910Y337481D01*
X455993Y337425D01*
X456077Y337373D01*
X456164Y337323D01*
X456252Y337278D01*
X456342Y337235D01*
X456434Y337196D01*
X456527Y337161D01*
X456621Y337129D01*
X456716Y337101D01*
X456812Y337076D01*
X456910Y337055D01*
X457008Y337038D01*
X457106Y337025D01*
X457205Y337016D01*
X457305Y337010D01*
X457404Y337008D01*
X463896Y337008D01*
X463995Y337010D01*
X464095Y337016D01*
X464194Y337025D01*
X464292Y337038D01*
X464390Y337055D01*
X464488Y337076D01*
X464584Y337101D01*
X464679Y337129D01*
X464773Y337161D01*
X464866Y337196D01*
X464958Y337235D01*
X465048Y337278D01*
X465136Y337323D01*
X465223Y337373D01*
X465307Y337425D01*
X465390Y337481D01*
X465470Y337539D01*
X465548Y337601D01*
X465623Y337666D01*
X465696Y337734D01*
X465766Y337804D01*
X465834Y337877D01*
X465899Y337952D01*
X465961Y338030D01*
X466019Y338110D01*
X466075Y338193D01*
X466127Y338277D01*
X466177Y338364D01*
X466222Y338452D01*
X466265Y338542D01*
X466304Y338634D01*
X466339Y338726D01*
X466371Y338821D01*
X466399Y338916D01*
X466424Y339012D01*
X466445Y339110D01*
X466462Y339208D01*
X466475Y339306D01*
X466484Y339405D01*
X466490Y339505D01*
X466492Y339604D01*
X466492Y342201D01*
X460001Y349163D02*
X460001Y353057D01*
X460001Y349163D02*
X460003Y349064D01*
X460009Y348964D01*
X460018Y348865D01*
X460031Y348767D01*
X460048Y348669D01*
X460069Y348571D01*
X460094Y348475D01*
X460122Y348380D01*
X460154Y348286D01*
X460189Y348193D01*
X460228Y348101D01*
X460271Y348011D01*
X460316Y347923D01*
X460366Y347836D01*
X460418Y347752D01*
X460474Y347669D01*
X460532Y347589D01*
X460594Y347511D01*
X460659Y347436D01*
X460727Y347363D01*
X460797Y347293D01*
X460870Y347225D01*
X460945Y347160D01*
X461023Y347098D01*
X461103Y347040D01*
X461186Y346984D01*
X461270Y346932D01*
X461357Y346882D01*
X461445Y346837D01*
X461535Y346794D01*
X461627Y346755D01*
X461720Y346720D01*
X461814Y346688D01*
X461909Y346660D01*
X462005Y346635D01*
X462103Y346614D01*
X462201Y346597D01*
X462299Y346584D01*
X462398Y346575D01*
X462498Y346569D01*
X462597Y346567D01*
X462597Y346566D02*
X463246Y346566D01*
X463359Y346568D01*
X463472Y346574D01*
X463585Y346584D01*
X463698Y346598D01*
X463810Y346615D01*
X463921Y346637D01*
X464031Y346662D01*
X464141Y346692D01*
X464249Y346725D01*
X464356Y346762D01*
X464462Y346802D01*
X464566Y346847D01*
X464669Y346895D01*
X464770Y346946D01*
X464869Y347001D01*
X464966Y347059D01*
X465061Y347121D01*
X465154Y347186D01*
X465244Y347254D01*
X465332Y347325D01*
X465418Y347400D01*
X465501Y347477D01*
X465581Y347557D01*
X465658Y347640D01*
X465733Y347726D01*
X465804Y347814D01*
X465872Y347904D01*
X465937Y347997D01*
X465999Y348092D01*
X466057Y348189D01*
X466112Y348288D01*
X466163Y348389D01*
X466211Y348492D01*
X466256Y348596D01*
X466296Y348702D01*
X466333Y348809D01*
X466366Y348917D01*
X466396Y349027D01*
X466421Y349137D01*
X466443Y349248D01*
X466460Y349360D01*
X466474Y349473D01*
X466484Y349586D01*
X466490Y349699D01*
X466492Y349812D01*
X466490Y349925D01*
X466484Y350038D01*
X466474Y350151D01*
X466460Y350264D01*
X466443Y350376D01*
X466421Y350487D01*
X466396Y350597D01*
X466366Y350707D01*
X466333Y350815D01*
X466296Y350922D01*
X466256Y351028D01*
X466211Y351132D01*
X466163Y351235D01*
X466112Y351336D01*
X466057Y351435D01*
X465999Y351532D01*
X465937Y351627D01*
X465872Y351720D01*
X465804Y351810D01*
X465733Y351898D01*
X465658Y351984D01*
X465581Y352067D01*
X465501Y352147D01*
X465418Y352224D01*
X465332Y352299D01*
X465244Y352370D01*
X465154Y352438D01*
X465061Y352503D01*
X464966Y352565D01*
X464869Y352623D01*
X464770Y352678D01*
X464669Y352729D01*
X464566Y352777D01*
X464462Y352822D01*
X464356Y352862D01*
X464249Y352899D01*
X464141Y352932D01*
X464031Y352962D01*
X463921Y352987D01*
X463810Y353009D01*
X463698Y353026D01*
X463585Y353040D01*
X463472Y353050D01*
X463359Y353056D01*
X463246Y353058D01*
X463246Y353057D02*
X460001Y353057D01*
X459858Y353055D01*
X459715Y353049D01*
X459572Y353039D01*
X459430Y353025D01*
X459288Y353008D01*
X459146Y352986D01*
X459005Y352961D01*
X458865Y352931D01*
X458726Y352898D01*
X458588Y352861D01*
X458451Y352820D01*
X458315Y352776D01*
X458180Y352727D01*
X458047Y352675D01*
X457915Y352620D01*
X457785Y352560D01*
X457656Y352497D01*
X457529Y352431D01*
X457405Y352361D01*
X457282Y352288D01*
X457161Y352211D01*
X457042Y352131D01*
X456926Y352048D01*
X456811Y351962D01*
X456700Y351873D01*
X456590Y351780D01*
X456484Y351685D01*
X456380Y351586D01*
X456279Y351485D01*
X456180Y351381D01*
X456085Y351275D01*
X455992Y351165D01*
X455903Y351054D01*
X455817Y350939D01*
X455734Y350823D01*
X455654Y350704D01*
X455577Y350583D01*
X455504Y350461D01*
X455434Y350336D01*
X455368Y350209D01*
X455305Y350080D01*
X455245Y349950D01*
X455190Y349818D01*
X455138Y349685D01*
X455089Y349550D01*
X455045Y349414D01*
X455004Y349277D01*
X454967Y349139D01*
X454934Y349000D01*
X454904Y348860D01*
X454879Y348719D01*
X454857Y348577D01*
X454840Y348435D01*
X454826Y348293D01*
X454816Y348150D01*
X454810Y348007D01*
X454808Y347864D01*
X414896Y440408D02*
X412299Y440408D01*
X414896Y440408D02*
X414995Y440410D01*
X415095Y440416D01*
X415194Y440425D01*
X415292Y440438D01*
X415390Y440455D01*
X415488Y440476D01*
X415584Y440501D01*
X415679Y440529D01*
X415773Y440561D01*
X415866Y440596D01*
X415958Y440635D01*
X416048Y440678D01*
X416136Y440723D01*
X416223Y440773D01*
X416307Y440825D01*
X416390Y440881D01*
X416470Y440939D01*
X416548Y441001D01*
X416623Y441066D01*
X416696Y441134D01*
X416766Y441204D01*
X416834Y441277D01*
X416899Y441352D01*
X416961Y441430D01*
X417019Y441510D01*
X417075Y441593D01*
X417127Y441677D01*
X417177Y441764D01*
X417222Y441852D01*
X417265Y441942D01*
X417304Y442034D01*
X417339Y442127D01*
X417371Y442221D01*
X417399Y442316D01*
X417424Y442412D01*
X417445Y442510D01*
X417462Y442608D01*
X417475Y442706D01*
X417484Y442805D01*
X417490Y442905D01*
X417492Y443004D01*
X417492Y449496D01*
X417490Y449595D01*
X417484Y449695D01*
X417475Y449794D01*
X417462Y449892D01*
X417445Y449990D01*
X417424Y450088D01*
X417399Y450184D01*
X417371Y450279D01*
X417339Y450373D01*
X417304Y450466D01*
X417265Y450558D01*
X417222Y450648D01*
X417177Y450736D01*
X417127Y450823D01*
X417075Y450907D01*
X417019Y450990D01*
X416961Y451070D01*
X416899Y451148D01*
X416834Y451223D01*
X416766Y451296D01*
X416696Y451366D01*
X416623Y451434D01*
X416548Y451499D01*
X416470Y451561D01*
X416390Y451619D01*
X416307Y451675D01*
X416223Y451727D01*
X416136Y451777D01*
X416048Y451822D01*
X415958Y451865D01*
X415866Y451904D01*
X415773Y451939D01*
X415679Y451971D01*
X415584Y451999D01*
X415488Y452024D01*
X415390Y452045D01*
X415292Y452062D01*
X415194Y452075D01*
X415095Y452084D01*
X414995Y452090D01*
X414896Y452092D01*
X412299Y452092D01*
X407934Y449496D02*
X404688Y452092D01*
X404688Y440408D01*
X401443Y440408D02*
X407934Y440408D01*
X396504Y446250D02*
X396501Y446480D01*
X396493Y446710D01*
X396479Y446939D01*
X396460Y447168D01*
X396435Y447397D01*
X396405Y447625D01*
X396370Y447852D01*
X396329Y448078D01*
X396283Y448303D01*
X396231Y448527D01*
X396174Y448750D01*
X396112Y448971D01*
X396044Y449191D01*
X395971Y449409D01*
X395893Y449625D01*
X395810Y449839D01*
X395722Y450052D01*
X395629Y450262D01*
X395530Y450469D01*
X395497Y450559D01*
X395461Y450648D01*
X395421Y450736D01*
X395377Y450821D01*
X395330Y450905D01*
X395280Y450987D01*
X395226Y451067D01*
X395170Y451144D01*
X395110Y451220D01*
X395047Y451293D01*
X394982Y451363D01*
X394913Y451431D01*
X394842Y451495D01*
X394769Y451557D01*
X394693Y451616D01*
X394615Y451672D01*
X394534Y451725D01*
X394452Y451774D01*
X394368Y451820D01*
X394281Y451863D01*
X394194Y451902D01*
X394104Y451938D01*
X394014Y451970D01*
X393922Y451998D01*
X393829Y452023D01*
X393735Y452044D01*
X393641Y452061D01*
X393546Y452075D01*
X393450Y452084D01*
X393354Y452090D01*
X393258Y452092D01*
X393162Y452090D01*
X393066Y452084D01*
X392970Y452075D01*
X392875Y452061D01*
X392781Y452044D01*
X392687Y452023D01*
X392594Y451998D01*
X392502Y451970D01*
X392412Y451938D01*
X392322Y451902D01*
X392235Y451863D01*
X392148Y451820D01*
X392064Y451774D01*
X391982Y451725D01*
X391901Y451672D01*
X391823Y451616D01*
X391747Y451557D01*
X391674Y451495D01*
X391603Y451431D01*
X391534Y451363D01*
X391469Y451293D01*
X391406Y451220D01*
X391346Y451145D01*
X391290Y451067D01*
X391236Y450987D01*
X391186Y450905D01*
X391139Y450821D01*
X391096Y450736D01*
X391055Y450648D01*
X391019Y450559D01*
X390986Y450469D01*
X390987Y450469D02*
X390888Y450261D01*
X390795Y450051D01*
X390707Y449839D01*
X390624Y449625D01*
X390546Y449408D01*
X390473Y449190D01*
X390405Y448971D01*
X390343Y448749D01*
X390286Y448527D01*
X390234Y448303D01*
X390188Y448078D01*
X390147Y447852D01*
X390112Y447624D01*
X390082Y447397D01*
X390057Y447168D01*
X390038Y446939D01*
X390024Y446710D01*
X390016Y446480D01*
X390013Y446250D01*
X396504Y446250D02*
X396501Y446020D01*
X396493Y445790D01*
X396479Y445561D01*
X396460Y445332D01*
X396435Y445103D01*
X396405Y444875D01*
X396370Y444648D01*
X396329Y444422D01*
X396283Y444197D01*
X396231Y443973D01*
X396174Y443750D01*
X396112Y443529D01*
X396044Y443309D01*
X395971Y443091D01*
X395893Y442875D01*
X395810Y442661D01*
X395722Y442449D01*
X395629Y442238D01*
X395530Y442031D01*
X395497Y441941D01*
X395461Y441852D01*
X395420Y441764D01*
X395377Y441679D01*
X395330Y441595D01*
X395280Y441513D01*
X395226Y441433D01*
X395170Y441356D01*
X395110Y441280D01*
X395047Y441207D01*
X394982Y441137D01*
X394913Y441069D01*
X394842Y441005D01*
X394769Y440943D01*
X394693Y440884D01*
X394615Y440828D01*
X394534Y440775D01*
X394452Y440726D01*
X394368Y440680D01*
X394281Y440637D01*
X394194Y440598D01*
X394104Y440562D01*
X394014Y440530D01*
X393922Y440502D01*
X393829Y440477D01*
X393735Y440456D01*
X393641Y440439D01*
X393546Y440425D01*
X393450Y440416D01*
X393354Y440410D01*
X393258Y440408D01*
X390986Y442031D02*
X390887Y442238D01*
X390794Y442449D01*
X390706Y442661D01*
X390623Y442875D01*
X390545Y443091D01*
X390472Y443309D01*
X390404Y443529D01*
X390342Y443750D01*
X390285Y443973D01*
X390233Y444197D01*
X390187Y444422D01*
X390146Y444648D01*
X390111Y444875D01*
X390081Y445103D01*
X390056Y445332D01*
X390037Y445561D01*
X390023Y445790D01*
X390015Y446020D01*
X390012Y446250D01*
X390986Y442031D02*
X391019Y441941D01*
X391055Y441852D01*
X391096Y441764D01*
X391139Y441679D01*
X391186Y441595D01*
X391236Y441513D01*
X391290Y441433D01*
X391346Y441355D01*
X391406Y441280D01*
X391469Y441207D01*
X391534Y441137D01*
X391603Y441069D01*
X391674Y441005D01*
X391747Y440943D01*
X391823Y440884D01*
X391901Y440828D01*
X391982Y440775D01*
X392064Y440726D01*
X392148Y440680D01*
X392235Y440637D01*
X392322Y440598D01*
X392412Y440562D01*
X392502Y440530D01*
X392594Y440502D01*
X392687Y440477D01*
X392781Y440456D01*
X392875Y440439D01*
X392970Y440425D01*
X393066Y440416D01*
X393162Y440410D01*
X393258Y440408D01*
X395855Y443004D02*
X390662Y449496D01*
X369596Y417508D02*
X366999Y417508D01*
X369596Y417508D02*
X369695Y417510D01*
X369795Y417516D01*
X369894Y417525D01*
X369992Y417538D01*
X370090Y417555D01*
X370188Y417576D01*
X370284Y417601D01*
X370379Y417629D01*
X370473Y417661D01*
X370566Y417696D01*
X370658Y417735D01*
X370748Y417778D01*
X370836Y417823D01*
X370923Y417873D01*
X371007Y417925D01*
X371090Y417981D01*
X371170Y418039D01*
X371248Y418101D01*
X371323Y418166D01*
X371396Y418234D01*
X371466Y418304D01*
X371534Y418377D01*
X371599Y418452D01*
X371661Y418530D01*
X371719Y418610D01*
X371775Y418693D01*
X371827Y418777D01*
X371877Y418864D01*
X371922Y418952D01*
X371965Y419042D01*
X372004Y419134D01*
X372039Y419227D01*
X372071Y419321D01*
X372099Y419416D01*
X372124Y419512D01*
X372145Y419610D01*
X372162Y419708D01*
X372175Y419806D01*
X372184Y419905D01*
X372190Y420005D01*
X372192Y420104D01*
X372192Y426596D01*
X372190Y426695D01*
X372184Y426795D01*
X372175Y426894D01*
X372162Y426992D01*
X372145Y427090D01*
X372124Y427188D01*
X372099Y427284D01*
X372071Y427379D01*
X372039Y427473D01*
X372004Y427566D01*
X371965Y427658D01*
X371922Y427748D01*
X371877Y427836D01*
X371827Y427923D01*
X371775Y428007D01*
X371719Y428090D01*
X371661Y428170D01*
X371599Y428248D01*
X371534Y428323D01*
X371466Y428396D01*
X371396Y428466D01*
X371323Y428534D01*
X371248Y428599D01*
X371170Y428661D01*
X371090Y428719D01*
X371007Y428775D01*
X370923Y428827D01*
X370836Y428877D01*
X370748Y428922D01*
X370658Y428965D01*
X370566Y429004D01*
X370473Y429039D01*
X370379Y429071D01*
X370284Y429099D01*
X370188Y429124D01*
X370090Y429145D01*
X369992Y429162D01*
X369894Y429175D01*
X369795Y429184D01*
X369695Y429190D01*
X369596Y429192D01*
X366999Y429192D01*
X362634Y417508D02*
X359388Y417508D01*
X359275Y417510D01*
X359162Y417516D01*
X359049Y417526D01*
X358936Y417540D01*
X358824Y417557D01*
X358713Y417579D01*
X358603Y417604D01*
X358493Y417634D01*
X358385Y417667D01*
X358278Y417704D01*
X358172Y417744D01*
X358068Y417789D01*
X357965Y417837D01*
X357864Y417888D01*
X357765Y417943D01*
X357668Y418001D01*
X357573Y418063D01*
X357480Y418128D01*
X357390Y418196D01*
X357302Y418267D01*
X357216Y418342D01*
X357133Y418419D01*
X357053Y418499D01*
X356976Y418582D01*
X356901Y418668D01*
X356830Y418756D01*
X356762Y418846D01*
X356697Y418939D01*
X356635Y419034D01*
X356577Y419131D01*
X356522Y419230D01*
X356471Y419331D01*
X356423Y419434D01*
X356378Y419538D01*
X356338Y419644D01*
X356301Y419751D01*
X356268Y419859D01*
X356238Y419969D01*
X356213Y420079D01*
X356191Y420190D01*
X356174Y420302D01*
X356160Y420415D01*
X356150Y420528D01*
X356144Y420641D01*
X356142Y420754D01*
X356144Y420867D01*
X356150Y420980D01*
X356160Y421093D01*
X356174Y421206D01*
X356191Y421318D01*
X356213Y421429D01*
X356238Y421539D01*
X356268Y421649D01*
X356301Y421757D01*
X356338Y421864D01*
X356378Y421970D01*
X356423Y422074D01*
X356471Y422177D01*
X356522Y422278D01*
X356577Y422377D01*
X356635Y422474D01*
X356697Y422569D01*
X356762Y422662D01*
X356830Y422752D01*
X356901Y422840D01*
X356976Y422926D01*
X357053Y423009D01*
X357133Y423089D01*
X357216Y423166D01*
X357302Y423241D01*
X357390Y423312D01*
X357480Y423380D01*
X357573Y423445D01*
X357668Y423507D01*
X357765Y423565D01*
X357864Y423620D01*
X357965Y423671D01*
X358068Y423719D01*
X358172Y423764D01*
X358278Y423804D01*
X358385Y423841D01*
X358493Y423874D01*
X358603Y423904D01*
X358713Y423929D01*
X358824Y423951D01*
X358936Y423968D01*
X359049Y423982D01*
X359162Y423992D01*
X359275Y423998D01*
X359388Y424000D01*
X358739Y429192D02*
X362634Y429192D01*
X358739Y429192D02*
X358638Y429190D01*
X358538Y429184D01*
X358438Y429174D01*
X358338Y429161D01*
X358239Y429143D01*
X358140Y429122D01*
X358043Y429097D01*
X357946Y429068D01*
X357851Y429035D01*
X357757Y428999D01*
X357665Y428959D01*
X357574Y428916D01*
X357485Y428869D01*
X357398Y428819D01*
X357312Y428765D01*
X357229Y428708D01*
X357149Y428648D01*
X357070Y428585D01*
X356994Y428518D01*
X356921Y428449D01*
X356851Y428377D01*
X356783Y428303D01*
X356718Y428226D01*
X356657Y428146D01*
X356598Y428064D01*
X356543Y427980D01*
X356491Y427894D01*
X356442Y427806D01*
X356397Y427716D01*
X356355Y427624D01*
X356317Y427531D01*
X356283Y427436D01*
X356252Y427341D01*
X356225Y427244D01*
X356202Y427146D01*
X356182Y427047D01*
X356167Y426947D01*
X356155Y426847D01*
X356147Y426747D01*
X356143Y426646D01*
X356143Y426546D01*
X356147Y426445D01*
X356155Y426345D01*
X356167Y426245D01*
X356182Y426145D01*
X356202Y426046D01*
X356225Y425948D01*
X356252Y425851D01*
X356283Y425756D01*
X356317Y425661D01*
X356355Y425568D01*
X356397Y425476D01*
X356442Y425386D01*
X356491Y425298D01*
X356543Y425212D01*
X356598Y425128D01*
X356657Y425046D01*
X356718Y424966D01*
X356783Y424889D01*
X356851Y424815D01*
X356921Y424743D01*
X356994Y424674D01*
X357070Y424607D01*
X357149Y424544D01*
X357229Y424484D01*
X357312Y424427D01*
X357398Y424373D01*
X357485Y424323D01*
X357574Y424276D01*
X357665Y424233D01*
X357757Y424193D01*
X357851Y424157D01*
X357946Y424124D01*
X358043Y424095D01*
X358140Y424070D01*
X358239Y424049D01*
X358338Y424031D01*
X358438Y424018D01*
X358538Y424008D01*
X358638Y424002D01*
X358739Y424000D01*
X358739Y423999D02*
X361336Y423999D01*
X366099Y365308D02*
X368696Y365308D01*
X368795Y365310D01*
X368895Y365316D01*
X368994Y365325D01*
X369092Y365338D01*
X369190Y365355D01*
X369288Y365376D01*
X369384Y365401D01*
X369479Y365429D01*
X369573Y365461D01*
X369666Y365496D01*
X369758Y365535D01*
X369848Y365578D01*
X369936Y365623D01*
X370023Y365673D01*
X370107Y365725D01*
X370190Y365781D01*
X370270Y365839D01*
X370348Y365901D01*
X370423Y365966D01*
X370496Y366034D01*
X370566Y366104D01*
X370634Y366177D01*
X370699Y366252D01*
X370761Y366330D01*
X370819Y366410D01*
X370875Y366493D01*
X370927Y366577D01*
X370977Y366664D01*
X371022Y366752D01*
X371065Y366842D01*
X371104Y366934D01*
X371139Y367027D01*
X371171Y367121D01*
X371199Y367216D01*
X371224Y367312D01*
X371245Y367410D01*
X371262Y367508D01*
X371275Y367606D01*
X371284Y367705D01*
X371290Y367805D01*
X371292Y367904D01*
X371292Y374396D01*
X371290Y374495D01*
X371284Y374595D01*
X371275Y374694D01*
X371262Y374792D01*
X371245Y374890D01*
X371224Y374988D01*
X371199Y375084D01*
X371171Y375179D01*
X371139Y375273D01*
X371104Y375366D01*
X371065Y375458D01*
X371022Y375548D01*
X370977Y375636D01*
X370927Y375723D01*
X370875Y375807D01*
X370819Y375890D01*
X370761Y375970D01*
X370699Y376048D01*
X370634Y376123D01*
X370566Y376196D01*
X370496Y376266D01*
X370423Y376334D01*
X370348Y376399D01*
X370270Y376461D01*
X370190Y376519D01*
X370107Y376575D01*
X370023Y376627D01*
X369936Y376677D01*
X369848Y376722D01*
X369758Y376765D01*
X369666Y376804D01*
X369573Y376839D01*
X369479Y376871D01*
X369384Y376899D01*
X369288Y376924D01*
X369190Y376945D01*
X369092Y376962D01*
X368994Y376975D01*
X368895Y376984D01*
X368795Y376990D01*
X368696Y376992D01*
X366099Y376992D01*
X361734Y376992D02*
X361734Y375694D01*
X361734Y376992D02*
X355243Y376992D01*
X358488Y365308D01*
M02*
