G04 EAGLE Gerber X2 export*
%TF.Part,Single*%
%TF.FileFunction,Soldermask,Bot,1*%
%TF.FilePolarity,Negative*%
%TF.GenerationSoftware,Autodesk,EAGLE,9.1.1*%
%TF.CreationDate,2018-07-30T19:22:14Z*%
G75*
%MOMM*%
%FSLAX34Y34*%
%LPD*%
%AMOC8*
5,1,8,0,0,1.08239X$1,22.5*%
G01*
%ADD10R,2.616200X2.616200*%
%ADD11C,2.616200*%
%ADD12R,2.453200X2.453200*%
%ADD13C,1.711200*%
%ADD14R,2.235200X2.235200*%
%ADD15C,2.235200*%
%ADD16R,2.082800X2.082800*%
%ADD17C,2.082800*%
%ADD18R,1.511200X1.511200*%
%ADD19C,1.511200*%
%ADD20R,2.006200X1.803200*%
%ADD21R,2.003200X1.803200*%
%ADD22R,1.803200X2.003200*%
%ADD23C,1.320800*%
%ADD24C,0.959600*%
%ADD25C,4.219200*%
%ADD26C,4.319200*%


D10*
X541400Y40800D03*
D11*
X576400Y40800D03*
X611400Y40800D03*
D10*
X433400Y40800D03*
D11*
X468400Y40800D03*
X503400Y40800D03*
D10*
X648800Y40800D03*
D11*
X683800Y40800D03*
X718800Y40800D03*
D12*
X67100Y342900D03*
X67100Y412900D03*
D13*
X38600Y355400D03*
X38600Y400400D03*
D12*
X732600Y372400D03*
X732600Y302400D03*
D13*
X761100Y359900D03*
X761100Y314900D03*
D12*
X732800Y269600D03*
X732800Y199600D03*
D13*
X761300Y257100D03*
X761300Y212100D03*
D12*
X733100Y167200D03*
X733100Y97200D03*
D13*
X761600Y154700D03*
X761600Y109700D03*
D14*
X128400Y42500D03*
D15*
X178400Y42500D03*
D16*
X733300Y461700D03*
D17*
X733300Y436300D03*
X733300Y410900D03*
D18*
X661650Y331075D03*
X585450Y331075D03*
D19*
X636250Y331075D03*
X610850Y331075D03*
X610850Y356475D03*
X636250Y356475D03*
X661650Y356475D03*
X585450Y356475D03*
D20*
X385300Y330020D03*
X385300Y301580D03*
X347000Y330020D03*
X347000Y301580D03*
D21*
X441600Y335200D03*
X441600Y363200D03*
D22*
X419300Y427200D03*
X391300Y427200D03*
D23*
X394012Y353100D02*
X405188Y353100D01*
X405188Y403900D02*
X394012Y403900D01*
D22*
X374000Y404300D03*
X346000Y404300D03*
X373700Y353200D03*
X345700Y353200D03*
D24*
X114200Y222600D03*
X114200Y245100D03*
X139200Y245100D03*
X162600Y259600D03*
X136700Y265100D03*
X166700Y130100D03*
X134800Y66500D03*
X117700Y66100D03*
X101100Y65800D03*
X99200Y52600D03*
X81700Y25000D03*
X118700Y23200D03*
X100600Y25300D03*
X88900Y40800D03*
X184200Y130100D03*
X318000Y192700D03*
X343000Y185200D03*
X358000Y165200D03*
X369000Y146100D03*
X541900Y147600D03*
X576200Y147300D03*
X611000Y147500D03*
X137900Y22600D03*
X15900Y63600D03*
X70400Y40900D03*
X419000Y362200D03*
X463000Y380400D03*
X127600Y432600D03*
X652700Y101100D03*
X670200Y101100D03*
X690200Y101100D03*
X680200Y88600D03*
X662700Y88600D03*
X652700Y76100D03*
X670200Y76100D03*
X690200Y76100D03*
X700200Y63600D03*
X665200Y18600D03*
X702700Y18600D03*
X665200Y63600D03*
X727700Y63600D03*
X730200Y18600D03*
X485000Y192500D03*
X475000Y207500D03*
X467500Y195000D03*
X475000Y180000D03*
X492500Y177500D03*
X512500Y180000D03*
X495000Y207500D03*
X502500Y195000D03*
X117700Y81100D03*
X687500Y317500D03*
X647500Y192500D03*
X470800Y313300D03*
X551400Y158800D03*
X483100Y313500D03*
X585800Y158700D03*
X494800Y313800D03*
X620700Y158600D03*
X390000Y287500D03*
X461700Y307400D03*
X366400Y302600D03*
X450000Y307500D03*
X424600Y370600D03*
X387500Y380000D03*
X412100Y387500D03*
X412200Y371200D03*
X561000Y93900D03*
X595500Y94100D03*
X630000Y94200D03*
X387700Y217100D03*
X387100Y235600D03*
X368100Y235800D03*
X69900Y167200D03*
X528600Y93800D03*
X87500Y285000D03*
X70000Y285000D03*
X37500Y285000D03*
X37500Y262500D03*
X52500Y262500D03*
X42200Y167100D03*
X414100Y334900D03*
X539800Y414700D03*
X70000Y300000D03*
X87500Y300000D03*
X435000Y427500D03*
X667500Y385000D03*
X502500Y375000D03*
X162500Y55000D03*
X178200Y68600D03*
X195700Y56100D03*
X208200Y43600D03*
X208200Y63600D03*
X408200Y41100D03*
X413200Y58600D03*
X433200Y66100D03*
X468200Y66100D03*
X500700Y66100D03*
X500700Y17600D03*
X468200Y18600D03*
X433200Y18600D03*
X195700Y26100D03*
X178200Y18600D03*
X163200Y26100D03*
X195700Y76100D03*
D25*
X769400Y28800D03*
D26*
X32000Y28300D03*
X32000Y460800D03*
X650100Y460800D03*
M02*
