G04 EAGLE Gerber X2 export*
%TF.Part,Single*%
%TF.FileFunction,Soldermask,Top,1*%
%TF.FilePolarity,Negative*%
%TF.GenerationSoftware,Autodesk,EAGLE,9.1.1*%
%TF.CreationDate,2018-07-30T19:22:14Z*%
G75*
%MOMM*%
%FSLAX34Y34*%
%LPD*%
%AMOC8*
5,1,8,0,0,1.08239X$1,22.5*%
G01*
%ADD10R,1.203200X0.403200*%
%ADD11R,0.403200X1.203200*%
%ADD12R,2.616200X2.616200*%
%ADD13C,2.616200*%
%ADD14R,2.453200X2.453200*%
%ADD15C,1.711200*%
%ADD16R,2.235200X2.235200*%
%ADD17C,2.235200*%
%ADD18R,1.603200X1.403200*%
%ADD19R,1.403200X1.603200*%
%ADD20R,2.082800X2.082800*%
%ADD21C,2.082800*%
%ADD22R,1.511200X1.511200*%
%ADD23C,1.511200*%
%ADD24R,0.753200X1.203200*%
%ADD25R,1.803200X2.006200*%
%ADD26R,2.006200X1.803200*%
%ADD27R,2.003200X1.803200*%
%ADD28R,1.803200X2.003200*%
%ADD29C,1.320800*%
%ADD30R,1.203200X0.653200*%
%ADD31R,0.653200X1.203200*%
%ADD32R,1.703200X3.803200*%
%ADD33R,6.203200X2.203200*%
%ADD34C,0.959600*%
%ADD35C,4.219200*%
%ADD36C,4.319200*%


D10*
X440500Y402000D03*
X440500Y397000D03*
X440500Y392000D03*
X440500Y387000D03*
X440500Y382000D03*
X440500Y377000D03*
X440500Y372000D03*
X440500Y367000D03*
X440500Y362000D03*
X440500Y357000D03*
X440500Y352000D03*
X440500Y347000D03*
D11*
X458000Y329500D03*
X463000Y329500D03*
X468000Y329500D03*
X473000Y329500D03*
X478000Y329500D03*
X483000Y329500D03*
X488000Y329500D03*
X493000Y329500D03*
X498000Y329500D03*
X503000Y329500D03*
X508000Y329500D03*
X513000Y329500D03*
D10*
X530500Y347000D03*
X530500Y352000D03*
X530500Y357000D03*
X530500Y362000D03*
X530500Y367000D03*
X530500Y372000D03*
X530500Y377000D03*
X530500Y382000D03*
X530500Y387000D03*
X530500Y392000D03*
X530500Y397000D03*
X530500Y402000D03*
D11*
X513000Y419500D03*
X508000Y419500D03*
X503000Y419500D03*
X498000Y419500D03*
X493000Y419500D03*
X488000Y419500D03*
X483000Y419500D03*
X478000Y419500D03*
X473000Y419500D03*
X468000Y419500D03*
X463000Y419500D03*
X458000Y419500D03*
D12*
X541400Y40800D03*
D13*
X576400Y40800D03*
X611400Y40800D03*
D12*
X433400Y40800D03*
D13*
X468400Y40800D03*
X503400Y40800D03*
D12*
X648800Y40800D03*
D13*
X683800Y40800D03*
X718800Y40800D03*
D14*
X67100Y342900D03*
X67100Y412900D03*
D15*
X38600Y355400D03*
X38600Y400400D03*
D14*
X732600Y372400D03*
X732600Y302400D03*
D15*
X761100Y359900D03*
X761100Y314900D03*
D14*
X732800Y269600D03*
X732800Y199600D03*
D15*
X761300Y257100D03*
X761300Y212100D03*
D14*
X733100Y167200D03*
X733100Y97200D03*
D15*
X761600Y154700D03*
X761600Y109700D03*
D16*
X128400Y42500D03*
D17*
X178400Y42500D03*
D18*
X82000Y97500D03*
X82000Y67500D03*
X57000Y97700D03*
X57000Y67700D03*
X31400Y97700D03*
X31400Y67700D03*
D19*
X418500Y267300D03*
X448500Y267300D03*
X418500Y294000D03*
X448500Y294000D03*
X191500Y471800D03*
X161500Y471800D03*
X191500Y432600D03*
X161500Y432600D03*
X191500Y395900D03*
X161500Y395900D03*
D20*
X733300Y461700D03*
D21*
X733300Y436300D03*
X733300Y410900D03*
D22*
X661650Y331075D03*
X585450Y331075D03*
D23*
X636250Y331075D03*
X610850Y331075D03*
X610850Y356475D03*
X636250Y356475D03*
X661650Y356475D03*
X585450Y356475D03*
D24*
X620600Y135400D03*
X630100Y135400D03*
X611100Y135400D03*
X611100Y108400D03*
X630100Y108400D03*
X585700Y135500D03*
X595200Y135500D03*
X576200Y135500D03*
X576200Y108500D03*
X595200Y108500D03*
X551500Y135500D03*
X561000Y135500D03*
X542000Y135500D03*
X542000Y108500D03*
X561000Y108500D03*
D25*
X110020Y117700D03*
X81580Y117700D03*
D26*
X58400Y147920D03*
X58400Y119480D03*
X31700Y147920D03*
X31700Y119480D03*
X636300Y415020D03*
X636300Y386580D03*
D27*
X693996Y363200D03*
X693996Y335200D03*
D25*
X219980Y472900D03*
X248420Y472900D03*
X219980Y433700D03*
X248420Y433700D03*
X219980Y397000D03*
X248420Y397000D03*
D27*
X162000Y301500D03*
X162000Y273500D03*
D28*
X525700Y296100D03*
X497700Y296100D03*
X525700Y274400D03*
X497700Y274400D03*
X435100Y442900D03*
X463100Y442900D03*
D27*
X554000Y431700D03*
X554000Y403700D03*
D29*
X405188Y353100D02*
X394012Y353100D01*
X394012Y403900D02*
X405188Y403900D01*
D25*
X491420Y464700D03*
X462980Y464700D03*
D26*
X613800Y428920D03*
X613800Y400480D03*
D30*
X191450Y213350D03*
X191450Y206850D03*
X191450Y200350D03*
X191450Y193850D03*
X215950Y193850D03*
X215950Y200350D03*
X215950Y206850D03*
X215950Y213350D03*
D27*
X139800Y194700D03*
X139800Y222700D03*
X174200Y177800D03*
X174200Y149800D03*
X164300Y209700D03*
X164300Y237700D03*
D28*
X84700Y264700D03*
X112700Y264700D03*
D26*
X273800Y287920D03*
X273800Y259480D03*
X252100Y287920D03*
X252100Y259480D03*
D25*
X212920Y264600D03*
X184480Y264600D03*
D31*
X308350Y119650D03*
X301850Y119650D03*
X295350Y119650D03*
X288850Y119650D03*
X288850Y95150D03*
X295350Y95150D03*
X301850Y95150D03*
X308350Y95150D03*
D28*
X289700Y173100D03*
X317700Y173100D03*
X273300Y130900D03*
X245300Y130900D03*
X304700Y149100D03*
X332700Y149100D03*
D27*
X368100Y217000D03*
X368100Y189000D03*
D25*
X375300Y30460D03*
X346860Y30460D03*
X375460Y52430D03*
X347020Y52430D03*
D26*
X350600Y97980D03*
X350600Y126420D03*
D32*
X312400Y224200D03*
X342900Y224200D03*
D33*
X61500Y193300D03*
X61500Y239300D03*
D26*
X236650Y211320D03*
X236650Y182880D03*
D25*
X306720Y75000D03*
X278280Y75000D03*
D34*
X114200Y222600D03*
X114200Y245100D03*
X139200Y245100D03*
X162600Y259600D03*
X136700Y265100D03*
X166700Y130100D03*
X134800Y66500D03*
X117700Y66100D03*
X101100Y65800D03*
X99200Y52600D03*
X81700Y25000D03*
X118700Y23200D03*
X100600Y25300D03*
X88900Y40800D03*
X184200Y130100D03*
X318000Y192700D03*
X343000Y185200D03*
X358000Y165200D03*
X369000Y146100D03*
X541900Y147600D03*
X576200Y147300D03*
X611000Y147500D03*
X137900Y22600D03*
X15900Y63600D03*
X70400Y40900D03*
X419000Y362200D03*
X463000Y380400D03*
X127600Y432600D03*
X652700Y101100D03*
X670200Y101100D03*
X690200Y101100D03*
X680200Y88600D03*
X662700Y88600D03*
X652700Y76100D03*
X670200Y76100D03*
X690200Y76100D03*
X700200Y63600D03*
X665200Y18600D03*
X702700Y18600D03*
X665200Y63600D03*
X727700Y63600D03*
X730200Y18600D03*
X485000Y192500D03*
X475000Y207500D03*
X467500Y195000D03*
X475000Y180000D03*
X492500Y177500D03*
X512500Y180000D03*
X495000Y207500D03*
X502500Y195000D03*
X117700Y81100D03*
X687500Y317500D03*
X647500Y192500D03*
X470800Y313300D03*
X551400Y158800D03*
X483100Y313500D03*
X585800Y158700D03*
X494800Y313800D03*
X620700Y158600D03*
X390000Y287500D03*
X461700Y307400D03*
X366400Y302600D03*
X450000Y307500D03*
X424600Y370600D03*
X387500Y380000D03*
X412100Y387500D03*
X412200Y371200D03*
X561000Y93900D03*
X595500Y94100D03*
X630000Y94200D03*
X387700Y217100D03*
X387100Y235600D03*
X368100Y235800D03*
X69900Y167200D03*
X528600Y93800D03*
X87500Y285000D03*
X70000Y285000D03*
X37500Y285000D03*
X37500Y262500D03*
X52500Y262500D03*
X42200Y167100D03*
X414100Y334900D03*
X539800Y414700D03*
X70000Y300000D03*
X87500Y300000D03*
X435000Y427500D03*
X667500Y385000D03*
X502500Y375000D03*
X162500Y55000D03*
X178200Y68600D03*
X195700Y56100D03*
X208200Y43600D03*
X208200Y63600D03*
X408200Y41100D03*
X413200Y58600D03*
X433200Y66100D03*
X468200Y66100D03*
X500700Y66100D03*
X500700Y17600D03*
X468200Y18600D03*
X433200Y18600D03*
X195700Y26100D03*
X178200Y18600D03*
X163200Y26100D03*
X195700Y76100D03*
D35*
X769400Y28800D03*
D36*
X32000Y28300D03*
X32000Y460800D03*
X650100Y460800D03*
M02*
